G04*
G04 #@! TF.GenerationSoftware,Altium Limited,Altium Designer,24.4.1 (13)*
G04*
G04 Layer_Color=128*
%FSLAX25Y25*%
%MOIN*%
G70*
G04*
G04 #@! TF.SameCoordinates,89CB3089-6BD8-41CF-BEDE-02629DB89CB6*
G04*
G04*
G04 #@! TF.FilePolarity,Positive*
G04*
G01*
G75*
%ADD10C,0.00787*%
%ADD11C,0.00591*%
%ADD12C,0.00394*%
%ADD13C,0.01575*%
%ADD14C,0.00984*%
%ADD43C,0.00200*%
G36*
X557241Y-114219D02*
X558959D01*
Y-114506D01*
X559818D01*
Y-114792D01*
X560676D01*
Y-115078D01*
X561535D01*
Y-115365D01*
X562108D01*
Y-115651D01*
X562394D01*
Y-115937D01*
X562967D01*
Y-116224D01*
X563253D01*
Y-116510D01*
X563826D01*
Y-116796D01*
X564112D01*
Y-117083D01*
X564398D01*
Y-117369D01*
X564685D01*
Y-117655D01*
X564971D01*
Y-117941D01*
X565258D01*
Y-118228D01*
X565544D01*
Y-118514D01*
Y-118800D01*
X565830D01*
Y-119087D01*
X566116D01*
Y-119373D01*
Y-119659D01*
X566403D01*
Y-119946D01*
X566689D01*
Y-120232D01*
Y-120518D01*
X566975D01*
Y-120805D01*
Y-121091D01*
Y-121377D01*
X567262D01*
Y-121663D01*
Y-121950D01*
Y-122236D01*
X567548D01*
Y-122522D01*
Y-122809D01*
Y-123095D01*
Y-123381D01*
X567834D01*
Y-123668D01*
Y-123954D01*
Y-124240D01*
Y-124527D01*
Y-124813D01*
X568121D01*
Y-125099D01*
Y-125385D01*
Y-125672D01*
Y-125958D01*
Y-126244D01*
Y-126531D01*
Y-126817D01*
Y-127103D01*
Y-127390D01*
Y-127676D01*
Y-127962D01*
Y-128249D01*
Y-128535D01*
Y-128821D01*
Y-129108D01*
Y-129394D01*
Y-129680D01*
Y-129966D01*
Y-130253D01*
Y-130539D01*
X567834D01*
Y-130825D01*
Y-131112D01*
Y-131398D01*
Y-131684D01*
Y-131971D01*
Y-132257D01*
Y-132543D01*
X567548D01*
Y-132830D01*
Y-133116D01*
Y-133402D01*
Y-133689D01*
Y-133975D01*
X567262D01*
Y-134261D01*
Y-134547D01*
Y-134834D01*
Y-135120D01*
Y-135406D01*
X566975D01*
Y-135693D01*
Y-135979D01*
Y-136265D01*
X566689D01*
Y-136552D01*
Y-136838D01*
Y-137124D01*
Y-137411D01*
X566403D01*
Y-137697D01*
Y-137983D01*
Y-138270D01*
X566116D01*
Y-138556D01*
Y-138842D01*
X565830D01*
Y-139128D01*
Y-139415D01*
Y-139701D01*
X565544D01*
Y-139988D01*
Y-140274D01*
X565258D01*
Y-140560D01*
Y-140846D01*
X564971D01*
Y-141133D01*
Y-141419D01*
X564685D01*
Y-141705D01*
X564398D01*
Y-141992D01*
Y-142278D01*
X564112D01*
Y-142564D01*
X563826D01*
Y-142851D01*
X563540D01*
Y-143137D01*
Y-143423D01*
X563253D01*
Y-143710D01*
X562967D01*
Y-143996D01*
X562681D01*
Y-144282D01*
X562394D01*
Y-144569D01*
X562108D01*
Y-144855D01*
X561535D01*
Y-145141D01*
X561249D01*
Y-145427D01*
X560676D01*
Y-145714D01*
X560390D01*
Y-146000D01*
X559818D01*
Y-146286D01*
X558959D01*
Y-146573D01*
X558100D01*
Y-146859D01*
X557241D01*
Y-147145D01*
X555523D01*
Y-147432D01*
X550369D01*
Y-147145D01*
X547792D01*
Y-146859D01*
X545788D01*
Y-146573D01*
X544357D01*
Y-146286D01*
X542925D01*
Y-146000D01*
X541494D01*
Y-146286D01*
Y-146573D01*
Y-146859D01*
Y-147145D01*
Y-147432D01*
Y-147718D01*
Y-148004D01*
X541207D01*
Y-148291D01*
Y-148577D01*
Y-148863D01*
Y-149150D01*
Y-149436D01*
Y-149722D01*
X540921D01*
Y-150008D01*
Y-150295D01*
Y-150581D01*
Y-150867D01*
Y-151154D01*
Y-151440D01*
X540635D01*
Y-151726D01*
Y-152013D01*
Y-152299D01*
Y-152585D01*
Y-152872D01*
Y-153158D01*
Y-153444D01*
X540348D01*
Y-153730D01*
Y-154017D01*
Y-154303D01*
Y-154589D01*
Y-154876D01*
Y-155162D01*
X540062D01*
Y-155448D01*
Y-155735D01*
Y-156021D01*
Y-156307D01*
Y-156594D01*
Y-156880D01*
X539776D01*
Y-157166D01*
Y-157453D01*
Y-157739D01*
Y-158025D01*
Y-158311D01*
Y-158598D01*
Y-158884D01*
X539489D01*
Y-159170D01*
Y-159457D01*
Y-159743D01*
Y-160029D01*
Y-160316D01*
Y-160602D01*
X539203D01*
Y-160888D01*
Y-161175D01*
Y-161461D01*
Y-161747D01*
Y-162034D01*
Y-162320D01*
X538917D01*
Y-162606D01*
Y-162892D01*
Y-163179D01*
Y-163465D01*
Y-163751D01*
Y-164038D01*
Y-164324D01*
X525460D01*
Y-164038D01*
X525746D01*
Y-163751D01*
Y-163465D01*
Y-163179D01*
Y-162892D01*
Y-162606D01*
X526033D01*
Y-162320D01*
Y-162034D01*
Y-161747D01*
Y-161461D01*
Y-161175D01*
Y-160888D01*
Y-160602D01*
X526319D01*
Y-160316D01*
Y-160029D01*
Y-159743D01*
Y-159457D01*
Y-159170D01*
Y-158884D01*
X526605D01*
Y-158598D01*
Y-158311D01*
Y-158025D01*
Y-157739D01*
Y-157453D01*
Y-157166D01*
X526892D01*
Y-156880D01*
Y-156594D01*
Y-156307D01*
Y-156021D01*
Y-155735D01*
Y-155448D01*
Y-155162D01*
X527178D01*
Y-154876D01*
Y-154589D01*
Y-154303D01*
Y-154017D01*
Y-153730D01*
Y-153444D01*
X527464D01*
Y-153158D01*
Y-152872D01*
Y-152585D01*
Y-152299D01*
Y-152013D01*
Y-151726D01*
X527750D01*
Y-151440D01*
Y-151154D01*
Y-150867D01*
Y-150581D01*
Y-150295D01*
Y-150008D01*
X528037D01*
Y-149722D01*
Y-149436D01*
Y-149150D01*
Y-148863D01*
Y-148577D01*
Y-148291D01*
Y-148004D01*
X528323D01*
Y-147718D01*
Y-147432D01*
Y-147145D01*
Y-146859D01*
Y-146573D01*
Y-146286D01*
X528609D01*
Y-146000D01*
Y-145714D01*
Y-145427D01*
Y-145141D01*
Y-144855D01*
Y-144569D01*
X528896D01*
Y-144282D01*
Y-143996D01*
Y-143710D01*
Y-143423D01*
Y-143137D01*
Y-142851D01*
X529182D01*
Y-142564D01*
Y-142278D01*
Y-141992D01*
Y-141705D01*
Y-141419D01*
Y-141133D01*
Y-140846D01*
X529468D01*
Y-140560D01*
Y-140274D01*
Y-139988D01*
Y-139701D01*
Y-139415D01*
Y-139128D01*
X529755D01*
Y-138842D01*
Y-138556D01*
Y-138270D01*
Y-137983D01*
Y-137697D01*
Y-137411D01*
X530041D01*
Y-137124D01*
Y-136838D01*
Y-136552D01*
Y-136265D01*
Y-135979D01*
Y-135693D01*
Y-135406D01*
X530327D01*
Y-135120D01*
Y-134834D01*
Y-134547D01*
Y-134261D01*
Y-133975D01*
Y-133689D01*
X530614D01*
Y-133402D01*
Y-133116D01*
Y-132830D01*
Y-132543D01*
Y-132257D01*
Y-131971D01*
X530900D01*
Y-131684D01*
Y-131398D01*
Y-131112D01*
Y-130825D01*
Y-130539D01*
Y-130253D01*
X531186D01*
Y-129966D01*
Y-129680D01*
Y-129394D01*
Y-129108D01*
Y-128821D01*
Y-128535D01*
Y-128249D01*
X531473D01*
Y-127962D01*
Y-127676D01*
Y-127390D01*
Y-127103D01*
Y-126817D01*
Y-126531D01*
X531759D01*
Y-126244D01*
Y-125958D01*
Y-125672D01*
Y-125385D01*
Y-125099D01*
Y-124813D01*
X532045D01*
Y-124527D01*
Y-124240D01*
Y-123954D01*
Y-123668D01*
Y-123381D01*
Y-123095D01*
Y-122809D01*
X532332D01*
Y-122522D01*
Y-122236D01*
Y-121950D01*
Y-121663D01*
Y-121377D01*
Y-121091D01*
X532618D01*
Y-120805D01*
Y-120518D01*
Y-120232D01*
Y-119946D01*
Y-119659D01*
Y-119373D01*
X532904D01*
Y-119087D01*
Y-118800D01*
Y-118514D01*
Y-118228D01*
Y-117941D01*
Y-117655D01*
Y-117369D01*
X533190D01*
Y-117083D01*
Y-116796D01*
Y-116510D01*
Y-116224D01*
Y-115937D01*
Y-115651D01*
X533477D01*
Y-115365D01*
Y-115078D01*
Y-114792D01*
Y-114506D01*
Y-114219D01*
Y-113933D01*
X557241D01*
Y-114219D01*
D02*
G37*
G36*
X588449Y-110784D02*
Y-111070D01*
X588163D01*
Y-111356D01*
Y-111643D01*
Y-111929D01*
Y-112215D01*
Y-112501D01*
Y-112788D01*
X587876D01*
Y-113074D01*
Y-113360D01*
Y-113647D01*
Y-113933D01*
Y-114219D01*
Y-114506D01*
X587590D01*
Y-114792D01*
Y-115078D01*
Y-115365D01*
Y-115651D01*
Y-115937D01*
Y-116224D01*
Y-116510D01*
X587304D01*
Y-116796D01*
Y-117083D01*
Y-117369D01*
Y-117655D01*
Y-117941D01*
Y-118228D01*
X587017D01*
Y-118514D01*
Y-118800D01*
Y-119087D01*
Y-119373D01*
Y-119659D01*
Y-119946D01*
X586731D01*
Y-120232D01*
Y-120518D01*
Y-120805D01*
Y-121091D01*
Y-121377D01*
Y-121663D01*
Y-121950D01*
X586445D01*
Y-122236D01*
Y-122522D01*
Y-122809D01*
Y-123095D01*
Y-123381D01*
Y-123668D01*
X586158D01*
Y-123954D01*
Y-124240D01*
Y-124527D01*
Y-124813D01*
Y-125099D01*
Y-125385D01*
X585872D01*
Y-125672D01*
Y-125958D01*
Y-126244D01*
Y-126531D01*
Y-126817D01*
Y-127103D01*
X585586D01*
Y-127390D01*
Y-127676D01*
Y-127962D01*
Y-128249D01*
Y-128535D01*
Y-128821D01*
Y-129108D01*
X585299D01*
Y-129394D01*
Y-129680D01*
Y-129966D01*
Y-130253D01*
Y-130539D01*
Y-130825D01*
X585013D01*
Y-131112D01*
Y-131398D01*
X585586D01*
Y-131112D01*
X585872D01*
Y-130825D01*
X586158D01*
Y-130539D01*
X586731D01*
Y-130253D01*
X587017D01*
Y-129966D01*
X587304D01*
Y-129680D01*
X587876D01*
Y-129394D01*
X588449D01*
Y-129108D01*
X588735D01*
Y-128821D01*
X589308D01*
Y-128535D01*
X590167D01*
Y-128249D01*
X590739D01*
Y-127962D01*
X591598D01*
Y-127676D01*
X593030D01*
Y-127390D01*
X599329D01*
Y-127676D01*
X600474D01*
Y-127962D01*
X601333D01*
Y-128249D01*
X601905D01*
Y-128535D01*
X602192D01*
Y-128821D01*
X602765D01*
Y-129108D01*
X603051D01*
Y-129394D01*
X603337D01*
Y-129680D01*
X603623D01*
Y-129966D01*
X603910D01*
Y-130253D01*
Y-130539D01*
X604196D01*
Y-130825D01*
Y-131112D01*
X604482D01*
Y-131398D01*
Y-131684D01*
Y-131971D01*
X604769D01*
Y-132257D01*
Y-132543D01*
Y-132830D01*
Y-133116D01*
X605055D01*
Y-133402D01*
Y-133689D01*
Y-133975D01*
Y-134261D01*
Y-134547D01*
Y-134834D01*
Y-135120D01*
Y-135406D01*
Y-135693D01*
Y-135979D01*
Y-136265D01*
Y-136552D01*
Y-136838D01*
Y-137124D01*
Y-137411D01*
Y-137697D01*
Y-137983D01*
Y-138270D01*
X604769D01*
Y-138556D01*
Y-138842D01*
Y-139128D01*
Y-139415D01*
Y-139701D01*
Y-139988D01*
Y-140274D01*
X604482D01*
Y-140560D01*
Y-140846D01*
Y-141133D01*
Y-141419D01*
Y-141705D01*
Y-141992D01*
Y-142278D01*
X604196D01*
Y-142564D01*
Y-142851D01*
Y-143137D01*
Y-143423D01*
Y-143710D01*
Y-143996D01*
X603910D01*
Y-144282D01*
Y-144569D01*
Y-144855D01*
Y-145141D01*
Y-145427D01*
Y-145714D01*
X603623D01*
Y-146000D01*
Y-146286D01*
Y-146573D01*
Y-146859D01*
Y-147145D01*
Y-147432D01*
X603337D01*
Y-147718D01*
Y-148004D01*
Y-148291D01*
Y-148577D01*
Y-148863D01*
Y-149150D01*
Y-149436D01*
X603051D01*
Y-149722D01*
Y-150008D01*
Y-150295D01*
Y-150581D01*
Y-150867D01*
Y-151154D01*
X602765D01*
Y-151440D01*
Y-151726D01*
Y-152013D01*
Y-152299D01*
Y-152585D01*
Y-152872D01*
X602478D01*
Y-153158D01*
Y-153444D01*
Y-153730D01*
Y-154017D01*
Y-154303D01*
Y-154589D01*
Y-154876D01*
X602192D01*
Y-155162D01*
Y-155448D01*
Y-155735D01*
Y-156021D01*
Y-156307D01*
Y-156594D01*
X601905D01*
Y-156880D01*
Y-157166D01*
Y-157453D01*
Y-157739D01*
Y-158025D01*
Y-158311D01*
X601619D01*
Y-158598D01*
Y-158884D01*
Y-159170D01*
Y-159457D01*
Y-159743D01*
Y-160029D01*
X601333D01*
Y-160316D01*
Y-160602D01*
Y-160888D01*
Y-161175D01*
Y-161461D01*
Y-161747D01*
Y-162034D01*
X601047D01*
Y-162320D01*
Y-162606D01*
Y-162892D01*
Y-163179D01*
Y-163465D01*
Y-163751D01*
X600760D01*
Y-164038D01*
Y-164324D01*
X587590D01*
Y-164038D01*
Y-163751D01*
X587876D01*
Y-163465D01*
Y-163179D01*
Y-162892D01*
Y-162606D01*
Y-162320D01*
Y-162034D01*
X588163D01*
Y-161747D01*
Y-161461D01*
Y-161175D01*
Y-160888D01*
Y-160602D01*
Y-160316D01*
Y-160029D01*
X588449D01*
Y-159743D01*
Y-159457D01*
Y-159170D01*
Y-158884D01*
Y-158598D01*
Y-158311D01*
X588735D01*
Y-158025D01*
Y-157739D01*
Y-157453D01*
Y-157166D01*
Y-156880D01*
Y-156594D01*
X589021D01*
Y-156307D01*
Y-156021D01*
Y-155735D01*
Y-155448D01*
Y-155162D01*
Y-154876D01*
Y-154589D01*
X589308D01*
Y-154303D01*
Y-154017D01*
Y-153730D01*
Y-153444D01*
Y-153158D01*
Y-152872D01*
X589594D01*
Y-152585D01*
Y-152299D01*
Y-152013D01*
Y-151726D01*
Y-151440D01*
Y-151154D01*
Y-150867D01*
X589880D01*
Y-150581D01*
Y-150295D01*
Y-150008D01*
Y-149722D01*
Y-149436D01*
Y-149150D01*
X590167D01*
Y-148863D01*
Y-148577D01*
Y-148291D01*
Y-148004D01*
Y-147718D01*
Y-147432D01*
X590453D01*
Y-147145D01*
Y-146859D01*
Y-146573D01*
Y-146286D01*
Y-146000D01*
Y-145714D01*
X590739D01*
Y-145427D01*
Y-145141D01*
Y-144855D01*
Y-144569D01*
Y-144282D01*
Y-143996D01*
Y-143710D01*
X591026D01*
Y-143423D01*
Y-143137D01*
Y-142851D01*
Y-142564D01*
Y-142278D01*
Y-141992D01*
X591312D01*
Y-141705D01*
Y-141419D01*
Y-141133D01*
Y-140846D01*
Y-140560D01*
Y-140274D01*
Y-139988D01*
X591598D01*
Y-139701D01*
Y-139415D01*
Y-139128D01*
Y-138842D01*
Y-138556D01*
Y-138270D01*
X591312D01*
Y-137983D01*
Y-137697D01*
X591026D01*
Y-137411D01*
X590739D01*
Y-137124D01*
X590167D01*
Y-136838D01*
X588449D01*
Y-137124D01*
X587017D01*
Y-137411D01*
X586158D01*
Y-137697D01*
X585586D01*
Y-137983D01*
X585299D01*
Y-138270D01*
X584727D01*
Y-138556D01*
X584440D01*
Y-138842D01*
X584154D01*
Y-139128D01*
Y-139415D01*
X583868D01*
Y-139701D01*
Y-139988D01*
Y-140274D01*
X583581D01*
Y-140560D01*
Y-140846D01*
Y-141133D01*
Y-141419D01*
Y-141705D01*
Y-141992D01*
X583295D01*
Y-142278D01*
Y-142564D01*
Y-142851D01*
Y-143137D01*
Y-143423D01*
Y-143710D01*
Y-143996D01*
X583009D01*
Y-144282D01*
Y-144569D01*
Y-144855D01*
Y-145141D01*
Y-145427D01*
Y-145714D01*
X582723D01*
Y-146000D01*
Y-146286D01*
Y-146573D01*
Y-146859D01*
Y-147145D01*
Y-147432D01*
X582436D01*
Y-147718D01*
Y-148004D01*
Y-148291D01*
Y-148577D01*
Y-148863D01*
Y-149150D01*
X582150D01*
Y-149436D01*
Y-149722D01*
Y-150008D01*
Y-150295D01*
Y-150581D01*
Y-150867D01*
Y-151154D01*
X581864D01*
Y-151440D01*
Y-151726D01*
Y-152013D01*
Y-152299D01*
Y-152585D01*
Y-152872D01*
X581577D01*
Y-153158D01*
Y-153444D01*
Y-153730D01*
Y-154017D01*
Y-154303D01*
Y-154589D01*
X581291D01*
Y-154876D01*
Y-155162D01*
Y-155448D01*
Y-155735D01*
Y-156021D01*
Y-156307D01*
Y-156594D01*
X581005D01*
Y-156880D01*
Y-157166D01*
Y-157453D01*
Y-157739D01*
Y-158025D01*
Y-158311D01*
X580718D01*
Y-158598D01*
Y-158884D01*
Y-159170D01*
Y-159457D01*
Y-159743D01*
Y-160029D01*
X580432D01*
Y-160316D01*
Y-160602D01*
Y-160888D01*
Y-161175D01*
Y-161461D01*
Y-161747D01*
X580146D01*
Y-162034D01*
Y-162320D01*
Y-162606D01*
Y-162892D01*
Y-163179D01*
Y-163465D01*
Y-163751D01*
X579859D01*
Y-164038D01*
Y-164324D01*
X566689D01*
Y-164038D01*
Y-163751D01*
X566975D01*
Y-163465D01*
Y-163179D01*
Y-162892D01*
Y-162606D01*
Y-162320D01*
Y-162034D01*
Y-161747D01*
X567262D01*
Y-161461D01*
Y-161175D01*
Y-160888D01*
Y-160602D01*
Y-160316D01*
Y-160029D01*
X567548D01*
Y-159743D01*
Y-159457D01*
Y-159170D01*
Y-158884D01*
Y-158598D01*
Y-158311D01*
X567834D01*
Y-158025D01*
Y-157739D01*
Y-157453D01*
Y-157166D01*
Y-156880D01*
Y-156594D01*
Y-156307D01*
X568121D01*
Y-156021D01*
Y-155735D01*
Y-155448D01*
Y-155162D01*
Y-154876D01*
Y-154589D01*
X568407D01*
Y-154303D01*
Y-154017D01*
Y-153730D01*
Y-153444D01*
Y-153158D01*
Y-152872D01*
X568693D01*
Y-152585D01*
Y-152299D01*
Y-152013D01*
Y-151726D01*
Y-151440D01*
Y-151154D01*
X568980D01*
Y-150867D01*
Y-150581D01*
Y-150295D01*
Y-150008D01*
Y-149722D01*
Y-149436D01*
Y-149150D01*
X569266D01*
Y-148863D01*
Y-148577D01*
Y-148291D01*
Y-148004D01*
Y-147718D01*
Y-147432D01*
X569552D01*
Y-147145D01*
Y-146859D01*
Y-146573D01*
Y-146286D01*
Y-146000D01*
Y-145714D01*
X569838D01*
Y-145427D01*
Y-145141D01*
Y-144855D01*
Y-144569D01*
Y-144282D01*
Y-143996D01*
Y-143710D01*
X570125D01*
Y-143423D01*
Y-143137D01*
Y-142851D01*
Y-142564D01*
Y-142278D01*
Y-141992D01*
X570411D01*
Y-141705D01*
Y-141419D01*
Y-141133D01*
Y-140846D01*
Y-140560D01*
Y-140274D01*
X570697D01*
Y-139988D01*
Y-139701D01*
Y-139415D01*
Y-139128D01*
Y-138842D01*
Y-138556D01*
X570984D01*
Y-138270D01*
Y-137983D01*
Y-137697D01*
Y-137411D01*
Y-137124D01*
Y-136838D01*
Y-136552D01*
X571270D01*
Y-136265D01*
Y-135979D01*
Y-135693D01*
Y-135406D01*
Y-135120D01*
Y-134834D01*
X571556D01*
Y-134547D01*
Y-134261D01*
Y-133975D01*
Y-133689D01*
Y-133402D01*
Y-133116D01*
X571843D01*
Y-132830D01*
Y-132543D01*
Y-132257D01*
Y-131971D01*
Y-131684D01*
Y-131398D01*
X572129D01*
Y-131112D01*
Y-130825D01*
Y-130539D01*
Y-130253D01*
Y-129966D01*
Y-129680D01*
Y-129394D01*
X572415D01*
Y-129108D01*
Y-128821D01*
Y-128535D01*
Y-128249D01*
Y-127962D01*
Y-127676D01*
X572702D01*
Y-127390D01*
Y-127103D01*
Y-126817D01*
Y-126531D01*
Y-126244D01*
Y-125958D01*
X572988D01*
Y-125672D01*
Y-125385D01*
Y-125099D01*
Y-124813D01*
Y-124527D01*
Y-124240D01*
Y-123954D01*
X573274D01*
Y-123668D01*
Y-123381D01*
Y-123095D01*
Y-122809D01*
Y-122522D01*
Y-122236D01*
X573560D01*
Y-121950D01*
Y-121663D01*
Y-121377D01*
Y-121091D01*
Y-120805D01*
Y-120518D01*
X573847D01*
Y-120232D01*
Y-119946D01*
Y-119659D01*
Y-119373D01*
Y-119087D01*
Y-118800D01*
X574133D01*
Y-118514D01*
Y-118228D01*
Y-117941D01*
Y-117655D01*
Y-117369D01*
Y-117083D01*
Y-116796D01*
X574419D01*
Y-116510D01*
Y-116224D01*
Y-115937D01*
Y-115651D01*
Y-115365D01*
Y-115078D01*
X574706D01*
Y-114792D01*
Y-114506D01*
Y-114219D01*
Y-113933D01*
Y-113647D01*
Y-113360D01*
X574992D01*
Y-113074D01*
Y-112788D01*
Y-112501D01*
Y-112215D01*
Y-111929D01*
Y-111643D01*
Y-111356D01*
X575278D01*
Y-111070D01*
Y-110784D01*
Y-110497D01*
X588449D01*
Y-110784D01*
D02*
G37*
G36*
X690376Y-128249D02*
X690090D01*
Y-128535D01*
X689804D01*
Y-128821D01*
Y-129108D01*
X689517D01*
Y-129394D01*
X689231D01*
Y-129680D01*
X688945D01*
Y-129966D01*
Y-130253D01*
X688658D01*
Y-130539D01*
X688372D01*
Y-130825D01*
X688086D01*
Y-131112D01*
X687799D01*
Y-131398D01*
Y-131684D01*
X687513D01*
Y-131971D01*
X687227D01*
Y-132257D01*
X686940D01*
Y-132543D01*
Y-132830D01*
X686654D01*
Y-133116D01*
X686368D01*
Y-133402D01*
X686082D01*
Y-133689D01*
X685795D01*
Y-133975D01*
Y-134261D01*
X685509D01*
Y-134547D01*
X685223D01*
Y-134834D01*
X684936D01*
Y-135120D01*
Y-135406D01*
X684650D01*
Y-135693D01*
X684364D01*
Y-135979D01*
X684077D01*
Y-136265D01*
Y-136552D01*
X683791D01*
Y-136838D01*
X683505D01*
Y-137124D01*
X683218D01*
Y-137411D01*
X682932D01*
Y-137697D01*
Y-137983D01*
X682646D01*
Y-138270D01*
X682359D01*
Y-138556D01*
X682073D01*
Y-138842D01*
Y-139128D01*
X681787D01*
Y-139415D01*
X681500D01*
Y-139701D01*
X681214D01*
Y-139988D01*
Y-140274D01*
X680928D01*
Y-140560D01*
X680642D01*
Y-140846D01*
X680355D01*
Y-141133D01*
X680069D01*
Y-141419D01*
Y-141705D01*
X679783D01*
Y-141992D01*
X679496D01*
Y-142278D01*
X679210D01*
Y-142564D01*
Y-142851D01*
X678924D01*
Y-143137D01*
X678637D01*
Y-143423D01*
X678351D01*
Y-143710D01*
Y-143996D01*
X678065D01*
Y-144282D01*
X677778D01*
Y-144569D01*
X677492D01*
Y-144855D01*
X677206D01*
Y-145141D01*
Y-145427D01*
X676920D01*
Y-145714D01*
X676633D01*
Y-146000D01*
X676347D01*
Y-146286D01*
Y-146573D01*
X676060D01*
Y-146859D01*
X675774D01*
Y-147145D01*
X675488D01*
Y-147432D01*
X675202D01*
Y-147718D01*
Y-148004D01*
X675488D01*
Y-148291D01*
Y-148577D01*
X675774D01*
Y-148863D01*
Y-149150D01*
X676060D01*
Y-149436D01*
X676347D01*
Y-149722D01*
Y-150008D01*
X676633D01*
Y-150295D01*
Y-150581D01*
X676920D01*
Y-150867D01*
Y-151154D01*
X677206D01*
Y-151440D01*
Y-151726D01*
X677492D01*
Y-152013D01*
Y-152299D01*
X677778D01*
Y-152585D01*
Y-152872D01*
X678065D01*
Y-153158D01*
Y-153444D01*
X678351D01*
Y-153730D01*
Y-154017D01*
X678637D01*
Y-154303D01*
X678924D01*
Y-154589D01*
Y-154876D01*
X679210D01*
Y-155162D01*
Y-155448D01*
X679496D01*
Y-155735D01*
Y-156021D01*
X679783D01*
Y-156307D01*
Y-156594D01*
X680069D01*
Y-156880D01*
Y-157166D01*
X680355D01*
Y-157453D01*
Y-157739D01*
X680642D01*
Y-158025D01*
Y-158311D01*
X680928D01*
Y-158598D01*
X681214D01*
Y-158884D01*
Y-159170D01*
X681500D01*
Y-159457D01*
Y-159743D01*
X681787D01*
Y-160029D01*
Y-160316D01*
X682073D01*
Y-160602D01*
Y-160888D01*
X682359D01*
Y-161175D01*
Y-161461D01*
X682646D01*
Y-161747D01*
Y-162034D01*
X682932D01*
Y-162320D01*
Y-162606D01*
X683218D01*
Y-162892D01*
X683505D01*
Y-163179D01*
Y-163465D01*
X683791D01*
Y-163751D01*
Y-164038D01*
X684077D01*
Y-164324D01*
X668903D01*
Y-164038D01*
X668616D01*
Y-163751D01*
Y-163465D01*
Y-163179D01*
X668330D01*
Y-162892D01*
Y-162606D01*
Y-162320D01*
X668044D01*
Y-162034D01*
Y-161747D01*
X667758D01*
Y-161461D01*
Y-161175D01*
Y-160888D01*
X667471D01*
Y-160602D01*
Y-160316D01*
Y-160029D01*
X667185D01*
Y-159743D01*
Y-159457D01*
X666898D01*
Y-159170D01*
Y-158884D01*
Y-158598D01*
X666612D01*
Y-158311D01*
Y-158025D01*
Y-157739D01*
X666326D01*
Y-157453D01*
Y-157166D01*
Y-156880D01*
X666040D01*
Y-156594D01*
X665467D01*
Y-156880D01*
Y-157166D01*
X665181D01*
Y-157453D01*
X664894D01*
Y-157739D01*
Y-158025D01*
X664608D01*
Y-158311D01*
X664322D01*
Y-158598D01*
Y-158884D01*
X664035D01*
Y-159170D01*
X663749D01*
Y-159457D01*
Y-159743D01*
X663463D01*
Y-160029D01*
X663176D01*
Y-160316D01*
X662890D01*
Y-160602D01*
Y-160888D01*
X662604D01*
Y-161175D01*
X662318D01*
Y-161461D01*
Y-161747D01*
X662031D01*
Y-162034D01*
X661745D01*
Y-162320D01*
Y-162606D01*
X661459D01*
Y-162892D01*
X661172D01*
Y-163179D01*
Y-163465D01*
X660886D01*
Y-163751D01*
X660600D01*
Y-164038D01*
Y-164324D01*
X644566D01*
Y-164038D01*
X644852D01*
Y-163751D01*
X645139D01*
Y-163465D01*
X645425D01*
Y-163179D01*
X645711D01*
Y-162892D01*
Y-162606D01*
X645998D01*
Y-162320D01*
X646284D01*
Y-162034D01*
X646570D01*
Y-161747D01*
X646857D01*
Y-161461D01*
Y-161175D01*
X647143D01*
Y-160888D01*
X647429D01*
Y-160602D01*
X647716D01*
Y-160316D01*
Y-160029D01*
X648002D01*
Y-159743D01*
X648288D01*
Y-159457D01*
X648574D01*
Y-159170D01*
X648861D01*
Y-158884D01*
Y-158598D01*
X649147D01*
Y-158311D01*
X649433D01*
Y-158025D01*
X649720D01*
Y-157739D01*
X650006D01*
Y-157453D01*
Y-157166D01*
X650292D01*
Y-156880D01*
X650579D01*
Y-156594D01*
X650865D01*
Y-156307D01*
Y-156021D01*
X651151D01*
Y-155735D01*
X651438D01*
Y-155448D01*
X651724D01*
Y-155162D01*
X652010D01*
Y-154876D01*
Y-154589D01*
X652297D01*
Y-154303D01*
X652583D01*
Y-154017D01*
X652869D01*
Y-153730D01*
Y-153444D01*
X653156D01*
Y-153158D01*
X653442D01*
Y-152872D01*
X653728D01*
Y-152585D01*
X654014D01*
Y-152299D01*
Y-152013D01*
X654301D01*
Y-151726D01*
X654587D01*
Y-151440D01*
X654873D01*
Y-151154D01*
Y-150867D01*
X655160D01*
Y-150581D01*
X655446D01*
Y-150295D01*
X655732D01*
Y-150008D01*
X656019D01*
Y-149722D01*
Y-149436D01*
X656305D01*
Y-149150D01*
X656591D01*
Y-148863D01*
X656878D01*
Y-148577D01*
X657164D01*
Y-148291D01*
Y-148004D01*
X657450D01*
Y-147718D01*
X657736D01*
Y-147432D01*
X658023D01*
Y-147145D01*
Y-146859D01*
X658309D01*
Y-146573D01*
X658596D01*
Y-146286D01*
X658882D01*
Y-146000D01*
X659168D01*
Y-145714D01*
Y-145427D01*
X659454D01*
Y-145141D01*
Y-144855D01*
Y-144569D01*
X659168D01*
Y-144282D01*
X658882D01*
Y-143996D01*
Y-143710D01*
X658596D01*
Y-143423D01*
Y-143137D01*
X658309D01*
Y-142851D01*
Y-142564D01*
X658023D01*
Y-142278D01*
Y-141992D01*
X657736D01*
Y-141705D01*
Y-141419D01*
X657450D01*
Y-141133D01*
Y-140846D01*
X657164D01*
Y-140560D01*
X656878D01*
Y-140274D01*
Y-139988D01*
X656591D01*
Y-139701D01*
Y-139415D01*
X656305D01*
Y-139128D01*
Y-138842D01*
X656019D01*
Y-138556D01*
Y-138270D01*
X655732D01*
Y-137983D01*
Y-137697D01*
X655446D01*
Y-137411D01*
Y-137124D01*
X655160D01*
Y-136838D01*
X654873D01*
Y-136552D01*
Y-136265D01*
X654587D01*
Y-135979D01*
Y-135693D01*
X654301D01*
Y-135406D01*
Y-135120D01*
X654014D01*
Y-134834D01*
Y-134547D01*
X653728D01*
Y-134261D01*
Y-133975D01*
X653442D01*
Y-133689D01*
Y-133402D01*
X653156D01*
Y-133116D01*
Y-132830D01*
X652869D01*
Y-132543D01*
X652583D01*
Y-132257D01*
Y-131971D01*
X652297D01*
Y-131684D01*
Y-131398D01*
X652010D01*
Y-131112D01*
Y-130825D01*
X651724D01*
Y-130539D01*
Y-130253D01*
X651438D01*
Y-129966D01*
Y-129680D01*
X651151D01*
Y-129394D01*
Y-129108D01*
X650865D01*
Y-128821D01*
X650579D01*
Y-128535D01*
Y-128249D01*
X650292D01*
Y-127962D01*
X666040D01*
Y-128249D01*
X666326D01*
Y-128535D01*
Y-128821D01*
Y-129108D01*
X666612D01*
Y-129394D01*
Y-129680D01*
Y-129966D01*
X666898D01*
Y-130253D01*
Y-130539D01*
Y-130825D01*
X667185D01*
Y-131112D01*
Y-131398D01*
Y-131684D01*
X667471D01*
Y-131971D01*
Y-132257D01*
Y-132543D01*
X667758D01*
Y-132830D01*
Y-133116D01*
Y-133402D01*
X668044D01*
Y-133689D01*
Y-133975D01*
Y-134261D01*
X668330D01*
Y-134547D01*
Y-134834D01*
Y-135120D01*
X668616D01*
Y-135406D01*
Y-135693D01*
Y-135979D01*
Y-136265D01*
X669189D01*
Y-135979D01*
X669475D01*
Y-135693D01*
X669762D01*
Y-135406D01*
Y-135120D01*
X670048D01*
Y-134834D01*
X670334D01*
Y-134547D01*
Y-134261D01*
X670621D01*
Y-133975D01*
X670907D01*
Y-133689D01*
Y-133402D01*
X671193D01*
Y-133116D01*
X671480D01*
Y-132830D01*
Y-132543D01*
X671766D01*
Y-132257D01*
X672052D01*
Y-131971D01*
Y-131684D01*
X672338D01*
Y-131398D01*
X672625D01*
Y-131112D01*
Y-130825D01*
X672911D01*
Y-130539D01*
X673197D01*
Y-130253D01*
Y-129966D01*
X673484D01*
Y-129680D01*
X673770D01*
Y-129394D01*
Y-129108D01*
X674056D01*
Y-128821D01*
X674343D01*
Y-128535D01*
Y-128249D01*
X674629D01*
Y-127962D01*
X690376D01*
Y-128249D01*
D02*
G37*
G36*
X646284D02*
Y-128535D01*
Y-128821D01*
Y-129108D01*
Y-129394D01*
Y-129680D01*
Y-129966D01*
Y-130253D01*
Y-130539D01*
Y-130825D01*
Y-131112D01*
Y-131398D01*
Y-131684D01*
Y-131971D01*
Y-132257D01*
Y-132543D01*
Y-132830D01*
Y-133116D01*
Y-133402D01*
Y-133689D01*
Y-133975D01*
X645998D01*
Y-134261D01*
Y-134547D01*
Y-134834D01*
Y-135120D01*
Y-135406D01*
X645711D01*
Y-135693D01*
Y-135979D01*
Y-136265D01*
Y-136552D01*
X645425D01*
Y-136838D01*
Y-137124D01*
Y-137411D01*
Y-137697D01*
X645139D01*
Y-137983D01*
Y-138270D01*
Y-138556D01*
X644852D01*
Y-138842D01*
Y-139128D01*
Y-139415D01*
X644566D01*
Y-139701D01*
Y-139988D01*
Y-140274D01*
X644280D01*
Y-140560D01*
Y-140846D01*
Y-141133D01*
X643994D01*
Y-141419D01*
Y-141705D01*
X643707D01*
Y-141992D01*
Y-142278D01*
X643421D01*
Y-142564D01*
Y-142851D01*
Y-143137D01*
X643135D01*
Y-143423D01*
Y-143710D01*
X642848D01*
Y-143996D01*
Y-144282D01*
Y-144569D01*
X642562D01*
Y-144855D01*
Y-145141D01*
X642276D01*
Y-145427D01*
Y-145714D01*
Y-146000D01*
X641989D01*
Y-146286D01*
Y-146573D01*
X641703D01*
Y-146859D01*
Y-147145D01*
Y-147432D01*
X641417D01*
Y-147718D01*
Y-148004D01*
X641130D01*
Y-148291D01*
Y-148577D01*
Y-148863D01*
X640844D01*
Y-149150D01*
Y-149436D01*
X640558D01*
Y-149722D01*
Y-150008D01*
Y-150295D01*
X640271D01*
Y-150581D01*
Y-150867D01*
X639985D01*
Y-151154D01*
Y-151440D01*
Y-151726D01*
X639699D01*
Y-152013D01*
Y-152299D01*
X639412D01*
Y-152585D01*
Y-152872D01*
Y-153158D01*
X639126D01*
Y-153444D01*
Y-153730D01*
X638840D01*
Y-154017D01*
Y-154303D01*
Y-154589D01*
X638554D01*
Y-154876D01*
Y-155162D01*
X638267D01*
Y-155448D01*
Y-155735D01*
Y-156021D01*
X637981D01*
Y-156307D01*
Y-156594D01*
X637695D01*
Y-156880D01*
Y-157166D01*
Y-157453D01*
X637408D01*
Y-157739D01*
Y-158025D01*
X637122D01*
Y-158311D01*
Y-158598D01*
Y-158884D01*
X636836D01*
Y-159170D01*
Y-159457D01*
X636549D01*
Y-159743D01*
Y-160029D01*
Y-160316D01*
X636263D01*
Y-160602D01*
Y-160888D01*
X635977D01*
Y-161175D01*
Y-161461D01*
Y-161747D01*
X635690D01*
Y-162034D01*
Y-162320D01*
X635404D01*
Y-162606D01*
Y-162892D01*
Y-163179D01*
X635118D01*
Y-163465D01*
Y-163751D01*
X634831D01*
Y-164038D01*
Y-164324D01*
Y-164610D01*
X634545D01*
Y-164897D01*
Y-165183D01*
X634259D01*
Y-165469D01*
Y-165756D01*
X633973D01*
Y-166042D01*
Y-166328D01*
X633686D01*
Y-166615D01*
Y-166901D01*
Y-167187D01*
X633400D01*
Y-167473D01*
X633114D01*
Y-167760D01*
Y-168046D01*
Y-168333D01*
X632827D01*
Y-168619D01*
X632541D01*
Y-168905D01*
Y-169191D01*
X632255D01*
Y-169478D01*
Y-169764D01*
X631968D01*
Y-170050D01*
Y-170337D01*
X631682D01*
Y-170623D01*
Y-170909D01*
X631396D01*
Y-171196D01*
X631109D01*
Y-171482D01*
Y-171768D01*
X630823D01*
Y-172055D01*
Y-172341D01*
X630537D01*
Y-172627D01*
X630251D01*
Y-172914D01*
X629964D01*
Y-173200D01*
Y-173486D01*
X629678D01*
Y-173772D01*
X629392D01*
Y-174059D01*
Y-174345D01*
X629105D01*
Y-174631D01*
X628819D01*
Y-174918D01*
X628533D01*
Y-175204D01*
Y-175490D01*
X628246D01*
Y-175777D01*
X627960D01*
Y-176063D01*
X627674D01*
Y-176349D01*
X627387D01*
Y-176636D01*
X627101D01*
Y-176922D01*
Y-177208D01*
X626815D01*
Y-177495D01*
X626528D01*
Y-177781D01*
X626242D01*
Y-178067D01*
X625956D01*
Y-178353D01*
X625669D01*
Y-178640D01*
X625383D01*
Y-178926D01*
X625097D01*
Y-179212D01*
X624524D01*
Y-179499D01*
X624238D01*
Y-179785D01*
X623952D01*
Y-180071D01*
X623665D01*
Y-180358D01*
X623379D01*
Y-180644D01*
X622806D01*
Y-180930D01*
X622520D01*
Y-181217D01*
X621947D01*
Y-181503D01*
X621661D01*
Y-181789D01*
X621089D01*
Y-182076D01*
X620802D01*
Y-182362D01*
X620229D01*
Y-182648D01*
X619657D01*
Y-182934D01*
X619084D01*
Y-183221D01*
X618512D01*
Y-183507D01*
X617939D01*
Y-183793D01*
X617080D01*
Y-184080D01*
X616507D01*
Y-184366D01*
X615649D01*
Y-184652D01*
X614503D01*
Y-184939D01*
X613358D01*
Y-185225D01*
X611640D01*
Y-185511D01*
X609636D01*
Y-185798D01*
X609350D01*
Y-185511D01*
Y-185225D01*
Y-184939D01*
Y-184652D01*
Y-184366D01*
Y-184080D01*
Y-183793D01*
Y-183507D01*
Y-183221D01*
Y-182934D01*
Y-182648D01*
Y-182362D01*
Y-182076D01*
Y-181789D01*
Y-181503D01*
Y-181217D01*
Y-180930D01*
Y-180644D01*
Y-180358D01*
Y-180071D01*
Y-179785D01*
Y-179499D01*
Y-179212D01*
Y-178926D01*
Y-178640D01*
Y-178353D01*
Y-178067D01*
Y-177781D01*
Y-177495D01*
Y-177208D01*
Y-176922D01*
Y-176636D01*
Y-176349D01*
X609922D01*
Y-176063D01*
X610495D01*
Y-175777D01*
X611067D01*
Y-175490D01*
X611640D01*
Y-175204D01*
X612213D01*
Y-174918D01*
X612785D01*
Y-174631D01*
X613072D01*
Y-174345D01*
X613644D01*
Y-174059D01*
X613931D01*
Y-173772D01*
X614503D01*
Y-173486D01*
X614790D01*
Y-173200D01*
X615076D01*
Y-172914D01*
X615649D01*
Y-172627D01*
X615935D01*
Y-172341D01*
X616221D01*
Y-172055D01*
X616507D01*
Y-171768D01*
X616794D01*
Y-171482D01*
X617080D01*
Y-171196D01*
X617366D01*
Y-170909D01*
X617653D01*
Y-170623D01*
X617939D01*
Y-170337D01*
X618225D01*
Y-170050D01*
X618512D01*
Y-169764D01*
X618798D01*
Y-169478D01*
Y-169191D01*
X619084D01*
Y-168905D01*
X619371D01*
Y-168619D01*
X619657D01*
Y-168333D01*
Y-168046D01*
X619943D01*
Y-167760D01*
X620229D01*
Y-167473D01*
Y-167187D01*
X620516D01*
Y-166901D01*
Y-166615D01*
X620802D01*
Y-166328D01*
X621089D01*
Y-166042D01*
Y-165756D01*
X621375D01*
Y-165469D01*
Y-165183D01*
X621661D01*
Y-164897D01*
Y-164610D01*
X619943D01*
Y-164324D01*
X617939D01*
Y-164038D01*
X616794D01*
Y-163751D01*
X616221D01*
Y-163465D01*
X615362D01*
Y-163179D01*
X614790D01*
Y-162892D01*
X614503D01*
Y-162606D01*
X613931D01*
Y-162320D01*
X613644D01*
Y-162034D01*
X613358D01*
Y-161747D01*
X613072D01*
Y-161461D01*
X612785D01*
Y-161175D01*
X612499D01*
Y-160888D01*
Y-160602D01*
X612213D01*
Y-160316D01*
X611927D01*
Y-160029D01*
Y-159743D01*
X611640D01*
Y-159457D01*
Y-159170D01*
X611354D01*
Y-158884D01*
Y-158598D01*
X611067D01*
Y-158311D01*
Y-158025D01*
Y-157739D01*
X610781D01*
Y-157453D01*
Y-157166D01*
Y-156880D01*
Y-156594D01*
X610495D01*
Y-156307D01*
Y-156021D01*
Y-155735D01*
Y-155448D01*
Y-155162D01*
Y-154876D01*
Y-154589D01*
X610209D01*
Y-154303D01*
Y-154017D01*
Y-153730D01*
Y-153444D01*
Y-153158D01*
Y-152872D01*
Y-152585D01*
Y-152299D01*
Y-152013D01*
Y-151726D01*
Y-151440D01*
Y-151154D01*
Y-150867D01*
Y-150581D01*
Y-150295D01*
X609922D01*
Y-150008D01*
Y-149722D01*
Y-149436D01*
Y-149150D01*
Y-148863D01*
Y-148577D01*
Y-148291D01*
Y-148004D01*
Y-147718D01*
Y-147432D01*
Y-147145D01*
Y-146859D01*
Y-146573D01*
Y-146286D01*
Y-146000D01*
X609636D01*
Y-145714D01*
Y-145427D01*
Y-145141D01*
Y-144855D01*
Y-144569D01*
Y-144282D01*
Y-143996D01*
Y-143710D01*
Y-143423D01*
Y-143137D01*
Y-142851D01*
Y-142564D01*
Y-142278D01*
Y-141992D01*
Y-141705D01*
Y-141419D01*
X609350D01*
Y-141133D01*
Y-140846D01*
Y-140560D01*
Y-140274D01*
Y-139988D01*
Y-139701D01*
Y-139415D01*
Y-139128D01*
Y-138842D01*
Y-138556D01*
Y-138270D01*
Y-137983D01*
Y-137697D01*
Y-137411D01*
Y-137124D01*
Y-136838D01*
X609063D01*
Y-136552D01*
Y-136265D01*
Y-135979D01*
Y-135693D01*
Y-135406D01*
Y-135120D01*
Y-134834D01*
Y-134547D01*
Y-134261D01*
Y-133975D01*
Y-133689D01*
Y-133402D01*
Y-133116D01*
Y-132830D01*
X608777D01*
Y-132543D01*
Y-132257D01*
Y-131971D01*
Y-131684D01*
Y-131398D01*
Y-131112D01*
Y-130825D01*
Y-130539D01*
Y-130253D01*
Y-129966D01*
Y-129680D01*
Y-129394D01*
Y-129108D01*
Y-128821D01*
Y-128535D01*
Y-128249D01*
X608491D01*
Y-127962D01*
X622234D01*
Y-128249D01*
Y-128535D01*
Y-128821D01*
Y-129108D01*
Y-129394D01*
Y-129680D01*
Y-129966D01*
Y-130253D01*
Y-130539D01*
Y-130825D01*
Y-131112D01*
Y-131398D01*
Y-131684D01*
Y-131971D01*
X622520D01*
Y-132257D01*
Y-132543D01*
Y-132830D01*
Y-133116D01*
Y-133402D01*
Y-133689D01*
Y-133975D01*
Y-134261D01*
Y-134547D01*
Y-134834D01*
Y-135120D01*
Y-135406D01*
Y-135693D01*
Y-135979D01*
Y-136265D01*
Y-136552D01*
Y-136838D01*
Y-137124D01*
Y-137411D01*
Y-137697D01*
Y-137983D01*
Y-138270D01*
Y-138556D01*
Y-138842D01*
Y-139128D01*
Y-139415D01*
Y-139701D01*
Y-139988D01*
Y-140274D01*
Y-140560D01*
Y-140846D01*
Y-141133D01*
Y-141419D01*
Y-141705D01*
Y-141992D01*
Y-142278D01*
Y-142564D01*
Y-142851D01*
Y-143137D01*
Y-143423D01*
Y-143710D01*
X622806D01*
Y-143996D01*
X622520D01*
Y-144282D01*
Y-144569D01*
X622806D01*
Y-144855D01*
Y-145141D01*
Y-145427D01*
Y-145714D01*
Y-146000D01*
Y-146286D01*
Y-146573D01*
Y-146859D01*
Y-147145D01*
Y-147432D01*
Y-147718D01*
Y-148004D01*
Y-148291D01*
Y-148577D01*
Y-148863D01*
Y-149150D01*
Y-149436D01*
Y-149722D01*
Y-150008D01*
Y-150295D01*
Y-150581D01*
Y-150867D01*
Y-151154D01*
Y-151440D01*
Y-151726D01*
Y-152013D01*
X623093D01*
Y-152299D01*
Y-152585D01*
Y-152872D01*
X623379D01*
Y-153158D01*
X623665D01*
Y-153444D01*
X623952D01*
Y-153730D01*
X624811D01*
Y-154017D01*
X625669D01*
Y-153730D01*
X625956D01*
Y-153444D01*
Y-153158D01*
Y-152872D01*
X626242D01*
Y-152585D01*
Y-152299D01*
X626528D01*
Y-152013D01*
Y-151726D01*
Y-151440D01*
X626815D01*
Y-151154D01*
Y-150867D01*
Y-150581D01*
X627101D01*
Y-150295D01*
Y-150008D01*
Y-149722D01*
X627387D01*
Y-149436D01*
Y-149150D01*
Y-148863D01*
X627674D01*
Y-148577D01*
Y-148291D01*
X627960D01*
Y-148004D01*
Y-147718D01*
Y-147432D01*
X628246D01*
Y-147145D01*
Y-146859D01*
Y-146573D01*
X628533D01*
Y-146286D01*
Y-146000D01*
Y-145714D01*
X628819D01*
Y-145427D01*
Y-145141D01*
X629105D01*
Y-144855D01*
Y-144569D01*
Y-144282D01*
X629392D01*
Y-143996D01*
Y-143710D01*
Y-143423D01*
X629678D01*
Y-143137D01*
Y-142851D01*
Y-142564D01*
X629964D01*
Y-142278D01*
Y-141992D01*
X630251D01*
Y-141705D01*
Y-141419D01*
Y-141133D01*
X630537D01*
Y-140846D01*
Y-140560D01*
Y-140274D01*
X630823D01*
Y-139988D01*
Y-139701D01*
Y-139415D01*
X631109D01*
Y-139128D01*
Y-138842D01*
X631396D01*
Y-138556D01*
Y-138270D01*
Y-137983D01*
X631682D01*
Y-137697D01*
Y-137411D01*
Y-137124D01*
X631968D01*
Y-136838D01*
Y-136552D01*
Y-136265D01*
X632255D01*
Y-135979D01*
Y-135693D01*
Y-135406D01*
Y-135120D01*
X632541D01*
Y-134834D01*
Y-134547D01*
Y-134261D01*
Y-133975D01*
X632827D01*
Y-133689D01*
Y-133402D01*
Y-133116D01*
Y-132830D01*
Y-132543D01*
X633114D01*
Y-132257D01*
Y-131971D01*
Y-131684D01*
Y-131398D01*
Y-131112D01*
Y-130825D01*
X633400D01*
Y-130539D01*
Y-130253D01*
Y-129966D01*
Y-129680D01*
Y-129394D01*
Y-129108D01*
Y-128821D01*
Y-128535D01*
Y-128249D01*
Y-127962D01*
X646284D01*
Y-128249D01*
D02*
G37*
%LPC*%
G36*
X552946Y-125099D02*
X544929D01*
Y-125385D01*
Y-125672D01*
Y-125958D01*
Y-126244D01*
Y-126531D01*
X544643D01*
Y-126817D01*
Y-127103D01*
Y-127390D01*
Y-127676D01*
Y-127962D01*
Y-128249D01*
X544357D01*
Y-128535D01*
Y-128821D01*
Y-129108D01*
Y-129394D01*
Y-129680D01*
Y-129966D01*
X544070D01*
Y-130253D01*
Y-130539D01*
Y-130825D01*
Y-131112D01*
Y-131398D01*
Y-131684D01*
X543784D01*
Y-131971D01*
Y-132257D01*
Y-132543D01*
Y-132830D01*
Y-133116D01*
Y-133402D01*
Y-133689D01*
X543498D01*
Y-133975D01*
Y-134261D01*
Y-134547D01*
Y-134834D01*
Y-135120D01*
Y-135406D01*
X543211D01*
Y-135693D01*
Y-135979D01*
Y-136265D01*
X550369D01*
Y-135979D01*
X551514D01*
Y-135693D01*
X552087D01*
Y-135406D01*
X552373D01*
Y-135120D01*
X552660D01*
Y-134834D01*
X552946D01*
Y-134547D01*
X553232D01*
Y-134261D01*
Y-133975D01*
X553519D01*
Y-133689D01*
Y-133402D01*
X553805D01*
Y-133116D01*
Y-132830D01*
X554091D01*
Y-132543D01*
Y-132257D01*
Y-131971D01*
Y-131684D01*
X554378D01*
Y-131398D01*
Y-131112D01*
Y-130825D01*
Y-130539D01*
Y-130253D01*
X554664D01*
Y-129966D01*
Y-129680D01*
Y-129394D01*
Y-129108D01*
Y-128821D01*
Y-128535D01*
Y-128249D01*
Y-127962D01*
Y-127676D01*
Y-127390D01*
Y-127103D01*
X554378D01*
Y-126817D01*
Y-126531D01*
X554091D01*
Y-126244D01*
Y-125958D01*
X553805D01*
Y-125672D01*
X553519D01*
Y-125385D01*
X552946D01*
Y-125099D01*
D02*
G37*
%LPD*%
D10*
X863787Y-202012D02*
Y-162642D01*
X706307Y-123272D02*
X981897D01*
X706307Y-162642D02*
X981897D01*
X509456Y-202012D02*
X981897D01*
X509456Y-83902D02*
X981897D01*
X509456Y-241382D02*
Y-83902D01*
X706307Y-241382D02*
Y-83902D01*
X-671646Y927909D02*
X981897D01*
Y-241382D02*
Y927909D01*
X-671646Y-241382D02*
Y927909D01*
Y-241382D02*
X981897D01*
X720085Y-227604D02*
X716149D01*
Y-230556D01*
X718117D01*
X716149D01*
Y-233508D01*
X722053Y-229572D02*
Y-233508D01*
Y-231540D01*
X723037Y-230556D01*
X724021Y-229572D01*
X725005D01*
X727956Y-233508D02*
X729924D01*
X728940D01*
Y-229572D01*
X727956D01*
X732876Y-228588D02*
X733860Y-227604D01*
X735828D01*
X736812Y-228588D01*
Y-229572D01*
X735828Y-230556D01*
X734844D01*
X735828D01*
X736812Y-231540D01*
Y-232524D01*
X735828Y-233508D01*
X733860D01*
X732876Y-232524D01*
X742716Y-227604D02*
Y-233508D01*
X739764D01*
X738780Y-232524D01*
Y-230556D01*
X739764Y-229572D01*
X742716D01*
X744683Y-234492D02*
X748619D01*
X754523Y-233508D02*
X750587D01*
X754523Y-229572D01*
Y-228588D01*
X753539Y-227604D01*
X751571D01*
X750587Y-228588D01*
X756491D02*
X757475Y-227604D01*
X759442D01*
X760426Y-228588D01*
Y-232524D01*
X759442Y-233508D01*
X757475D01*
X756491Y-232524D01*
Y-228588D01*
X766330Y-233508D02*
X762394D01*
X766330Y-229572D01*
Y-228588D01*
X765346Y-227604D01*
X763378D01*
X762394Y-228588D01*
X771250Y-233508D02*
Y-227604D01*
X768298Y-230556D01*
X772233D01*
X774201Y-234492D02*
X778137D01*
X784041Y-228588D02*
X783057Y-227604D01*
X781089D01*
X780105Y-228588D01*
Y-232524D01*
X781089Y-233508D01*
X783057D01*
X784041Y-232524D01*
X786009Y-227604D02*
Y-231540D01*
X787976Y-233508D01*
X789944Y-231540D01*
Y-227604D01*
X791912Y-233508D02*
Y-227604D01*
X794864D01*
X795848Y-228588D01*
Y-230556D01*
X794864Y-231540D01*
X791912D01*
X793880D02*
X795848Y-233508D01*
X797816Y-234492D02*
X801752D01*
X803719Y-228588D02*
X804703Y-227604D01*
X806671D01*
X807655Y-228588D01*
Y-232524D01*
X806671Y-233508D01*
X804703D01*
X803719Y-232524D01*
Y-228588D01*
X809623D02*
X810607Y-227604D01*
X812575D01*
X813559Y-228588D01*
Y-232524D01*
X812575Y-233508D01*
X810607D01*
X809623Y-232524D01*
Y-228588D01*
X815527Y-233508D02*
Y-232524D01*
X816510D01*
Y-233508D01*
X815527D01*
X820446D02*
Y-227604D01*
X823398D01*
X824382Y-228588D01*
Y-230556D01*
X823398Y-231540D01*
X820446D01*
X830286Y-229572D02*
X827334D01*
X826350Y-230556D01*
Y-232524D01*
X827334Y-233508D01*
X830286D01*
X832253Y-227604D02*
Y-233508D01*
X835205D01*
X836189Y-232524D01*
Y-231540D01*
Y-230556D01*
X835205Y-229572D01*
X832253D01*
X838157Y-227604D02*
Y-233508D01*
X841109D01*
X842093Y-232524D01*
Y-228588D01*
X841109Y-227604D01*
X838157D01*
X845045Y-233508D02*
X847012D01*
X847996Y-232524D01*
Y-230556D01*
X847012Y-229572D01*
X845045D01*
X844061Y-230556D01*
Y-232524D01*
X845045Y-233508D01*
X853900Y-229572D02*
X850948D01*
X849964Y-230556D01*
Y-232524D01*
X850948Y-233508D01*
X853900D01*
D11*
X-84294Y32547D02*
G03*
X84297Y32547I84295J121207D01*
G01*
D12*
X138174Y211425D02*
G03*
X129639Y214961I-8535J-8535D01*
G01*
X159047Y167716D02*
G03*
X155512Y159180I8535J-8535D01*
G01*
Y57355D02*
G03*
X159047Y48820I12071J0D01*
G01*
X159052Y167720D02*
G03*
X159052Y190548I-11414J11414D01*
G01*
X-160244Y177354D02*
G03*
X-163779Y168819I8535J-8535D01*
G01*
X-147630Y189968D02*
G03*
X-144095Y198504I-8535J8535D01*
G01*
X-127953Y214961D02*
G03*
X-144095Y198819I0J-16142D01*
G01*
X136224Y25988D02*
G03*
X159052Y48816I11414J11414D01*
G01*
X133201Y29011D02*
G03*
X124665Y32547I-8535J-8535D01*
G01*
X-124665D02*
G03*
X-133201Y29011I0J-12071D01*
G01*
X-163779Y37402D02*
G03*
X-136224Y25988I16142J0D01*
G01*
X-127953Y214961D02*
X129639D01*
X138174Y211425D02*
X159052Y190548D01*
X144370Y195276D02*
X147638D01*
X155512Y57355D02*
Y159180D01*
X159047Y48820D02*
X159052Y48816D01*
X-163779Y37402D02*
Y168819D01*
X-160244Y177354D02*
X-147630Y189968D01*
X-144095Y198504D02*
Y198819D01*
X133201Y29011D02*
X136224Y25988D01*
X84294Y32547D02*
X124665D01*
X-124665D02*
X-84294D01*
X-136224Y25988D02*
X-133201Y29011D01*
D13*
X531110Y-219734D02*
Y-235476D01*
X536358Y-230229D01*
X541605Y-235476D01*
Y-219734D01*
X546853Y-235476D02*
X552101D01*
X549477D01*
Y-224981D01*
X546853D01*
X559972Y-235476D02*
Y-224981D01*
X562596D01*
X565220Y-227605D01*
Y-235476D01*
Y-227605D01*
X567843Y-224981D01*
X570467Y-227605D01*
Y-235476D01*
X575715Y-219734D02*
Y-230229D01*
X580963Y-235476D01*
X586210Y-230229D01*
Y-219734D01*
X601953Y-222357D02*
X599329Y-219734D01*
X594082D01*
X591458Y-222357D01*
Y-232853D01*
X594082Y-235476D01*
X599329D01*
X601953Y-232853D01*
Y-227605D01*
X596705D01*
X885441Y-182987D02*
X888064Y-180364D01*
X893312D01*
X895936Y-182987D01*
Y-193483D01*
X893312Y-196106D01*
X888064D01*
X885441Y-193483D01*
Y-182987D01*
X901184D02*
X903807Y-180364D01*
X909055D01*
X911679Y-182987D01*
Y-193483D01*
X909055Y-196106D01*
X903807D01*
X901184Y-193483D01*
Y-182987D01*
X722055Y-196106D02*
X726647D01*
X724351D01*
Y-182331D01*
X722055Y-184627D01*
X742717Y-182331D02*
X738126Y-184627D01*
X733534Y-189219D01*
Y-193811D01*
X735830Y-196106D01*
X740422D01*
X742717Y-193811D01*
Y-191515D01*
X740422Y-189219D01*
X733534D01*
X747309Y-196106D02*
X756493Y-186923D01*
X761084Y-184627D02*
X763380Y-182331D01*
X767972D01*
X770268Y-184627D01*
Y-193811D01*
X767972Y-196106D01*
X763380D01*
X761084Y-193811D01*
Y-184627D01*
X781747Y-196106D02*
Y-182331D01*
X774859Y-189219D01*
X784043D01*
X788634Y-196106D02*
X797818Y-186923D01*
X811593Y-196106D02*
X802409D01*
X811593Y-186923D01*
Y-184627D01*
X809297Y-182331D01*
X804705D01*
X802409Y-184627D01*
X816185D02*
X818480Y-182331D01*
X823072D01*
X825368Y-184627D01*
Y-193811D01*
X823072Y-196106D01*
X818480D01*
X816185Y-193811D01*
Y-184627D01*
X839143Y-196106D02*
X829960D01*
X839143Y-186923D01*
Y-184627D01*
X836847Y-182331D01*
X832255D01*
X829960Y-184627D01*
X850622Y-196106D02*
Y-182331D01*
X843735Y-189219D01*
X852918D01*
X724545Y-104772D02*
X716149D01*
Y-111069D01*
X720347D01*
X716149D01*
Y-117366D01*
X728744Y-108970D02*
Y-117366D01*
Y-113168D01*
X730843Y-111069D01*
X732942Y-108970D01*
X735041D01*
X741338Y-117366D02*
X745536D01*
X743437D01*
Y-108970D01*
X741338D01*
X751833Y-106871D02*
X753932Y-104772D01*
X758131D01*
X760230Y-106871D01*
Y-108970D01*
X758131Y-111069D01*
X756031D01*
X758131D01*
X760230Y-113168D01*
Y-115267D01*
X758131Y-117366D01*
X753932D01*
X751833Y-115267D01*
X764428Y-104772D02*
Y-117366D01*
X770725D01*
X772824Y-115267D01*
Y-106871D01*
X770725Y-104772D01*
X764428D01*
X789616D02*
Y-117366D01*
X795914D01*
X798013Y-115267D01*
Y-113168D01*
X795914Y-111069D01*
X789616D01*
X795914D01*
X798013Y-108970D01*
Y-106871D01*
X795914Y-104772D01*
X789616D01*
X804310Y-108970D02*
X808508D01*
X810607Y-111069D01*
Y-117366D01*
X804310D01*
X802211Y-115267D01*
X804310Y-113168D01*
X810607D01*
X823201Y-104772D02*
Y-117366D01*
X816904D01*
X814805Y-115267D01*
Y-111069D01*
X816904Y-108970D01*
X823201D01*
X831598Y-121564D02*
X833697D01*
X835796Y-119465D01*
Y-108970D01*
X829498D01*
X827400Y-111069D01*
Y-115267D01*
X829498Y-117366D01*
X835796D01*
X846291D02*
X842093D01*
X839994Y-115267D01*
Y-111069D01*
X842093Y-108970D01*
X846291D01*
X848390Y-111069D01*
Y-113168D01*
X839994D01*
X873579Y-117366D02*
X865183D01*
X873579Y-108970D01*
Y-106871D01*
X871480Y-104772D01*
X867282D01*
X865183Y-106871D01*
X877777D02*
X879876Y-104772D01*
X884074D01*
X886173Y-106871D01*
Y-115267D01*
X884074Y-117366D01*
X879876D01*
X877777Y-115267D01*
Y-106871D01*
X898767Y-117366D02*
X890371D01*
X898767Y-108970D01*
Y-106871D01*
X896668Y-104772D01*
X892470D01*
X890371Y-106871D01*
X909263Y-117366D02*
Y-104772D01*
X902966Y-111069D01*
X911362D01*
X936551Y-106871D02*
X934451Y-104772D01*
X930253D01*
X928154Y-106871D01*
Y-115267D01*
X930253Y-117366D01*
X934451D01*
X936551Y-115267D01*
X940749Y-104772D02*
Y-113168D01*
X944947Y-117366D01*
X949145Y-113168D01*
Y-104772D01*
X953343Y-117366D02*
Y-104772D01*
X959640D01*
X961739Y-106871D01*
Y-111069D01*
X959640Y-113168D01*
X953343D01*
X957541D02*
X961739Y-117366D01*
X727960Y-140993D02*
Y-154768D01*
X734848D01*
X737144Y-152472D01*
Y-143289D01*
X734848Y-140993D01*
X727960D01*
X741735Y-145584D02*
Y-154768D01*
Y-150176D01*
X744031Y-147880D01*
X746327Y-145584D01*
X748623D01*
X755511Y-154768D02*
X760102D01*
X757806D01*
Y-145584D01*
X755511D01*
X766990Y-154768D02*
X771581D01*
X769286D01*
Y-140993D01*
X766990D01*
X778469Y-154768D02*
X783061D01*
X780765D01*
Y-140993D01*
X778469D01*
X812907Y-143289D02*
X810611Y-140993D01*
X806019D01*
X803723Y-143289D01*
Y-152472D01*
X806019Y-154768D01*
X810611D01*
X812907Y-152472D01*
Y-147880D01*
X808315D01*
X817498Y-145584D02*
Y-152472D01*
X819794Y-154768D01*
X826682D01*
Y-145584D01*
X831273Y-154768D02*
X835865D01*
X833569D01*
Y-145584D01*
X831273D01*
X851936Y-140993D02*
Y-154768D01*
X845049D01*
X842753Y-152472D01*
Y-147880D01*
X845049Y-145584D01*
X851936D01*
X863415Y-154768D02*
X858824D01*
X856528Y-152472D01*
Y-147880D01*
X858824Y-145584D01*
X863415D01*
X865711Y-147880D01*
Y-150176D01*
X856528D01*
D14*
X867724Y-174453D02*
Y-166581D01*
X871660D01*
X872972Y-167893D01*
Y-170517D01*
X871660Y-171829D01*
X867724D01*
X870348D02*
X872972Y-174453D01*
X879531D02*
X876908D01*
X875596Y-173141D01*
Y-170517D01*
X876908Y-169205D01*
X879531D01*
X880843Y-170517D01*
Y-171829D01*
X875596D01*
X883467Y-169205D02*
X886091Y-174453D01*
X888715Y-169205D01*
X513393Y-205951D02*
Y-213823D01*
X517329D01*
X518641Y-212511D01*
Y-207263D01*
X517329Y-205951D01*
X513393D01*
X525201Y-213823D02*
X522577D01*
X521265Y-212511D01*
Y-209887D01*
X522577Y-208575D01*
X525201D01*
X526512Y-209887D01*
Y-211199D01*
X521265D01*
X529136Y-213823D02*
X533072D01*
X534384Y-212511D01*
X533072Y-211199D01*
X530448D01*
X529136Y-209887D01*
X530448Y-208575D01*
X534384D01*
X539632Y-216447D02*
X540944D01*
X542255Y-215135D01*
Y-208575D01*
X538320D01*
X537008Y-209887D01*
Y-212511D01*
X538320Y-213823D01*
X542255D01*
X544879D02*
X547503D01*
X546191D01*
Y-208575D01*
X544879D01*
X551439Y-213823D02*
Y-208575D01*
X555375D01*
X556686Y-209887D01*
Y-213823D01*
X563246D02*
X560622D01*
X559310Y-212511D01*
Y-209887D01*
X560622Y-208575D01*
X563246D01*
X564558Y-209887D01*
Y-211199D01*
X559310D01*
X567182Y-208575D02*
Y-213823D01*
Y-211199D01*
X568494Y-209887D01*
X569806Y-208575D01*
X571118D01*
X710244Y-87841D02*
Y-95713D01*
X714180D01*
X715491Y-94401D01*
Y-89153D01*
X714180Y-87841D01*
X710244D01*
X719427Y-95713D02*
X722051D01*
X723363Y-94401D01*
Y-91777D01*
X722051Y-90465D01*
X719427D01*
X718115Y-91777D01*
Y-94401D01*
X719427Y-95713D01*
X731234Y-90465D02*
X727299D01*
X725987Y-91777D01*
Y-94401D01*
X727299Y-95713D01*
X731234D01*
X733858Y-90465D02*
Y-94401D01*
X735170Y-95713D01*
X739106D01*
Y-90465D01*
X741730Y-95713D02*
Y-90465D01*
X743042D01*
X744353Y-91777D01*
Y-95713D01*
Y-91777D01*
X745665Y-90465D01*
X746977Y-91777D01*
Y-95713D01*
X753537D02*
X750913D01*
X749601Y-94401D01*
Y-91777D01*
X750913Y-90465D01*
X753537D01*
X754849Y-91777D01*
Y-93089D01*
X749601D01*
X757473Y-95713D02*
Y-90465D01*
X761408D01*
X762720Y-91777D01*
Y-95713D01*
X766656Y-89153D02*
Y-90465D01*
X765344D01*
X767968D01*
X766656D01*
Y-94401D01*
X767968Y-95713D01*
X710244Y-127211D02*
Y-135083D01*
X715491D01*
X719427Y-129835D02*
X722051D01*
X723363Y-131147D01*
Y-135083D01*
X719427D01*
X718115Y-133771D01*
X719427Y-132459D01*
X723363D01*
X725987Y-129835D02*
Y-133771D01*
X727299Y-135083D01*
X731234D01*
Y-136395D01*
X729922Y-137707D01*
X728611D01*
X731234Y-135083D02*
Y-129835D01*
X737794Y-135083D02*
X735170D01*
X733858Y-133771D01*
Y-131147D01*
X735170Y-129835D01*
X737794D01*
X739106Y-131147D01*
Y-132459D01*
X733858D01*
X741730Y-129835D02*
Y-135083D01*
Y-132459D01*
X743042Y-131147D01*
X744353Y-129835D01*
X745665D01*
X757473Y-135083D02*
Y-127211D01*
X762720Y-135083D01*
Y-127211D01*
X766656Y-129835D02*
X769280D01*
X770592Y-131147D01*
Y-135083D01*
X766656D01*
X765344Y-133771D01*
X766656Y-132459D01*
X770592D01*
X773216Y-135083D02*
Y-129835D01*
X774528D01*
X775839Y-131147D01*
Y-135083D01*
Y-131147D01*
X777151Y-129835D01*
X778463Y-131147D01*
Y-135083D01*
X785023D02*
X782399D01*
X781087Y-133771D01*
Y-131147D01*
X782399Y-129835D01*
X785023D01*
X786335Y-131147D01*
Y-132459D01*
X781087D01*
X710244Y-166581D02*
Y-174453D01*
X714180D01*
X715491Y-173141D01*
Y-167893D01*
X714180Y-166581D01*
X710244D01*
X719427Y-169205D02*
X722051D01*
X723363Y-170517D01*
Y-174453D01*
X719427D01*
X718115Y-173141D01*
X719427Y-171829D01*
X723363D01*
X727299Y-167893D02*
Y-169205D01*
X725987D01*
X728611D01*
X727299D01*
Y-173141D01*
X728611Y-174453D01*
X736482D02*
X733858D01*
X732546Y-173141D01*
Y-170517D01*
X733858Y-169205D01*
X736482D01*
X737794Y-170517D01*
Y-171829D01*
X732546D01*
X710244Y-205951D02*
Y-213823D01*
X714180D01*
X715491Y-212511D01*
Y-207263D01*
X714180Y-205951D01*
X710244D01*
X719427Y-213823D02*
X722051D01*
X723363Y-212511D01*
Y-209887D01*
X722051Y-208575D01*
X719427D01*
X718115Y-209887D01*
Y-212511D01*
X719427Y-213823D01*
X731234Y-208575D02*
X727299D01*
X725987Y-209887D01*
Y-212511D01*
X727299Y-213823D01*
X731234D01*
X733858Y-208575D02*
Y-212511D01*
X735170Y-213823D01*
X739106D01*
Y-208575D01*
X741730Y-213823D02*
Y-208575D01*
X743042D01*
X744353Y-209887D01*
Y-213823D01*
Y-209887D01*
X745665Y-208575D01*
X746977Y-209887D01*
Y-213823D01*
X753537D02*
X750913D01*
X749601Y-212511D01*
Y-209887D01*
X750913Y-208575D01*
X753537D01*
X754849Y-209887D01*
Y-211199D01*
X749601D01*
X757473Y-213823D02*
Y-208575D01*
X761408D01*
X762720Y-209887D01*
Y-213823D01*
X766656Y-207263D02*
Y-208575D01*
X765344D01*
X767968D01*
X766656D01*
Y-212511D01*
X767968Y-213823D01*
D43*
X23228Y16654D02*
X26772D01*
X25000Y14882D02*
Y18425D01*
X23228Y26654D02*
X26772D01*
X25000Y24882D02*
Y28425D01*
X3228Y16654D02*
X6772D01*
X5000Y14882D02*
Y18425D01*
X3228Y26654D02*
X6772D01*
X5000Y24882D02*
Y28425D01*
X13228Y16654D02*
X16772D01*
X15000Y14882D02*
Y18425D01*
X13228Y26654D02*
X16772D01*
X15000Y24882D02*
Y28425D01*
X-6772Y26654D02*
X-3228D01*
X-5000Y24882D02*
Y28425D01*
X-6772Y16654D02*
X-3228D01*
X-5000Y14882D02*
Y18425D01*
X-16772Y26654D02*
X-13228D01*
X-15000Y24882D02*
Y28425D01*
X-16772Y16654D02*
X-13228D01*
X-15000Y14882D02*
Y18425D01*
X-26772Y26654D02*
X-23228D01*
X-25000Y24882D02*
Y28425D01*
X-26772Y16654D02*
X-23228D01*
X-25000Y14882D02*
Y18425D01*
X-132874Y198819D02*
X-123031D01*
X-127953Y193898D02*
Y203740D01*
X-152559Y37402D02*
X-142717D01*
X-147638Y32480D02*
Y42323D01*
X142717Y37402D02*
X152559D01*
X147638Y32480D02*
Y42323D01*
X142717Y179134D02*
X152559D01*
X147638Y174213D02*
Y184055D01*
M02*
