G04*
G04 #@! TF.GenerationSoftware,Altium Limited,Altium Designer,23.10.1 (27)*
G04*
G04 Layer_Color=8421504*
%FSLAX25Y25*%
%MOIN*%
G70*
G04*
G04 #@! TF.SameCoordinates,FE32BD50-8FB3-4611-A274-B7C51E55429E*
G04*
G04*
G04 #@! TF.FilePolarity,Positive*
G04*
G01*
G75*
%ADD10C,0.01575*%
%ADD11C,0.00591*%
%ADD12P,0.11136X4X180.0*%
G04:AMPARAMS|DCode=13|XSize=59.06mil|YSize=39.37mil|CornerRadius=0mil|HoleSize=0mil|Usage=FLASHONLY|Rotation=59.000|XOffset=0mil|YOffset=0mil|HoleType=Round|Shape=Rectangle|*
%AMROTATEDRECTD13*
4,1,4,0.00167,-0.03545,-0.03208,-0.01517,-0.00167,0.03545,0.03208,0.01517,0.00167,-0.03545,0.0*
%
%ADD13ROTATEDRECTD13*%

G04:AMPARAMS|DCode=14|XSize=59.06mil|YSize=39.37mil|CornerRadius=0mil|HoleSize=0mil|Usage=FLASHONLY|Rotation=54.000|XOffset=0mil|YOffset=0mil|HoleType=Round|Shape=Rectangle|*
%AMROTATEDRECTD14*
4,1,4,-0.00143,-0.03546,-0.03328,-0.01232,0.00143,0.03546,0.03328,0.01232,-0.00143,-0.03546,0.0*
%
%ADD14ROTATEDRECTD14*%

%ADD15R,0.05906X0.03937*%
G04:AMPARAMS|DCode=16|XSize=59.06mil|YSize=39.37mil|CornerRadius=0mil|HoleSize=0mil|Usage=FLASHONLY|Rotation=127.000|XOffset=0mil|YOffset=0mil|HoleType=Round|Shape=Rectangle|*
%AMROTATEDRECTD16*
4,1,4,0.03349,-0.01174,0.00205,-0.03543,-0.03349,0.01174,-0.00205,0.03543,0.03349,-0.01174,0.0*
%
%ADD16ROTATEDRECTD16*%

G04:AMPARAMS|DCode=17|XSize=59.06mil|YSize=39.37mil|CornerRadius=0mil|HoleSize=0mil|Usage=FLASHONLY|Rotation=121.000|XOffset=0mil|YOffset=0mil|HoleType=Round|Shape=Rectangle|*
%AMROTATEDRECTD17*
4,1,4,0.03208,-0.01517,-0.00167,-0.03545,-0.03208,0.01517,0.00167,0.03545,0.03208,-0.01517,0.0*
%
%ADD17ROTATEDRECTD17*%

%ADD18R,0.03150X0.05906*%
G36*
X-118112Y489063D02*
X-117143D01*
X-115241Y489441D01*
X-113450Y490183D01*
X-111838Y491260D01*
X-110467Y492631D01*
X-109390Y494243D01*
X-108648Y496035D01*
X-108270Y497936D01*
Y498906D01*
Y499875D01*
X-108648Y501777D01*
X-109390Y503568D01*
X-110467Y505180D01*
X-111838Y506551D01*
X-113450Y507628D01*
X-115241Y508370D01*
X-117143Y508748D01*
X-118112D01*
X-119081D01*
X-120983Y508370D01*
X-122774Y507628D01*
X-124386Y506551D01*
X-125757Y505180D01*
X-126834Y503568D01*
X-127576Y501777D01*
X-127955Y499875D01*
Y498906D01*
Y497936D01*
X-127576Y496035D01*
X-126834Y494243D01*
X-125757Y492631D01*
X-124386Y491260D01*
X-122774Y490183D01*
X-120983Y489441D01*
X-119081Y489063D01*
X-118112D01*
D01*
D02*
G37*
G36*
X118112D02*
X117143D01*
X115241Y489441D01*
X113450Y490183D01*
X111838Y491260D01*
X110467Y492631D01*
X109390Y494243D01*
X108648Y496035D01*
X108270Y497936D01*
Y498906D01*
Y499875D01*
X108648Y501777D01*
X109390Y503568D01*
X110467Y505180D01*
X111838Y506551D01*
X113450Y507628D01*
X115241Y508370D01*
X117143Y508748D01*
X118112D01*
X119081D01*
X120983Y508370D01*
X122774Y507628D01*
X124386Y506551D01*
X125757Y505180D01*
X126834Y503568D01*
X127576Y501777D01*
X127955Y499875D01*
Y498906D01*
Y497936D01*
X127576Y496035D01*
X126834Y494243D01*
X125757Y492631D01*
X124386Y491260D01*
X122774Y490183D01*
X120983Y489441D01*
X119081Y489063D01*
X118112D01*
D01*
D02*
G37*
D10*
X727960Y-140993D02*
X737144D01*
X732552D01*
Y-154768D01*
X744031D02*
X748623D01*
X750919Y-152472D01*
Y-147880D01*
X748623Y-145584D01*
X744031D01*
X741735Y-147880D01*
Y-152472D01*
X744031Y-154768D01*
X755511Y-159360D02*
Y-145584D01*
X762398D01*
X764694Y-147880D01*
Y-152472D01*
X762398Y-154768D01*
X755511D01*
X783061D02*
Y-140993D01*
X789948D01*
X792244Y-143289D01*
Y-147880D01*
X789948Y-150176D01*
X783061D01*
X799132Y-145584D02*
X803723D01*
X806019Y-147880D01*
Y-154768D01*
X799132D01*
X796836Y-152472D01*
X799132Y-150176D01*
X806019D01*
X810611Y-154768D02*
X817498D01*
X819794Y-152472D01*
X817498Y-150176D01*
X812907D01*
X810611Y-147880D01*
X812907Y-145584D01*
X819794D01*
X826682Y-143289D02*
Y-145584D01*
X824386D01*
X828978D01*
X826682D01*
Y-152472D01*
X828978Y-154768D01*
X842753D02*
X838161D01*
X835865Y-152472D01*
Y-147880D01*
X838161Y-145584D01*
X842753D01*
X845049Y-147880D01*
Y-150176D01*
X835865D01*
D11*
X-259842Y-178260D02*
X259842Y-178260D01*
X-259842D02*
Y573709D01*
X259842Y-178260D02*
Y573709D01*
X-259842D02*
X259842Y573709D01*
D12*
X119572Y168814D02*
D03*
X102869Y185517D02*
D03*
X119572Y83184D02*
D03*
X102869Y99887D02*
D03*
X65467Y143194D02*
D03*
X82171Y126491D02*
D03*
X-99916Y224916D02*
D03*
X-116619Y241619D02*
D03*
X116619Y288892D02*
D03*
X99916Y305596D02*
D03*
X156974Y126491D02*
D03*
X140270Y143194D02*
D03*
X-99916Y288892D02*
D03*
X-116619Y305596D02*
D03*
D13*
X-228778Y121748D02*
D03*
X-217979Y115260D02*
D03*
X-227915Y98724D02*
D03*
X-238714Y105213D02*
D03*
D14*
X-205813Y153013D02*
D03*
X-195621Y145608D02*
D03*
X-206960Y130001D02*
D03*
X-217152Y137406D02*
D03*
D15*
X-9646Y137402D02*
D03*
Y150000D02*
D03*
X9646D02*
D03*
Y137402D02*
D03*
D16*
X195767Y145489D02*
D03*
X205829Y153071D02*
D03*
X217439Y137664D02*
D03*
X207377Y130082D02*
D03*
D17*
X217885Y114573D02*
D03*
X228684Y121061D02*
D03*
X238620Y104525D02*
D03*
X227821Y98037D02*
D03*
D18*
X-5000Y126378D02*
D03*
X0D02*
D03*
X5000D02*
D03*
M02*
