M48
;Layer_Color=9474304
;FILE_FORMAT=2:5
INCH,LZ
;TYPE=PLATED
T01F00S00C0.00984
T03F00S00C0.03543
T04F00S00C0.04331
T05F00S00C0.15748
;TYPE=NON_PLATED
T06F00S00C0.02559
T07F00S00C0.03543
T08F00S00C0.03937
T09F00S00C0.04331
T10F00S00C0.04724
T11F00S00C0.05906
T13F00S00C0.11811
T14F00S00C0.23622
%
T01
X0163386Y0052165
X0197483Y0044677
X0123031Y0063976
X0080709Y0051181
X003937Y0038386
X-002874Y003622
Y0032283
X-0074803Y0038386
X-0177165Y0024606
X-0187992Y0057087
X-0212598Y0088583
X-0233118Y0089812
X-0244047Y0100741
X-0228778Y0121748
X-020696Y0130001
X-0140748Y0120079
X-0115157Y0202756
X-011811Y0216535
X-0088779Y0222492
X-0080709Y0222885
X-0070866Y0225394
X-0072835Y0213583
X-0060039Y0232283
Y0237205
X-0062008Y0244095
X-0099213Y0235138
X-0137008Y0241732
X-0088583Y0182087
X-0057087Y0184055
X-001378Y0188976
X-0009843Y0191929
X-0003937Y0188976
X0002756
X0005Y0191929
X-0Y0191929
X00025Y0196063
X0008856Y0188976
X0011811Y0191929
X0015748Y0188976
X0020669Y0191929
X0024606Y0186024
X0027559Y0183071
X00275Y0198425
Y0216339
X0023622Y0218504
X00175Y0216339
X00075Y0216339
X00025
X-000344Y0217909
X-0003937Y0212598
X-0022638Y0211614
X-0019685Y0231299
X-0018701Y0239173
X-0021654Y0241142
X-0024606Y0239173
X0008858Y0238378
X0011811Y0241142
X0014764Y0237943
X0020669Y0239173
X0027559Y0239173
X0017954Y0233268
X0052165Y0241331
X006437Y0230068
X0075787Y0197835
X0091535Y019685
X0107283Y0181102
X0106299Y0152559
X007185Y0140748
X0025Y0137829
X0024165Y015
X0002756Y0137795
X-0025591Y0136811
Y0125984
X-0025657Y0121338
X0051181Y0093504
X0109252Y0098425
X0128937Y0107283
X0131397Y0111713
X0130428Y0143194
X0154528Y0142717
X0158465
X0162402
X0160433Y0145669
X0156496
X0158465Y0148622
Y0152559
Y0156496
Y0160433
Y016437
X0160433Y0167323
X0156496
X0153543Y0165354
X0155512Y0162402
Y0158465
Y0154528
Y0150591
X0161417
Y0154528
Y0158465
Y0162402
X0163386Y0165354
Y0132874
X0162402Y0129921
X016437Y0126969
X0159252Y0132874
X0153543
X017126Y0122441
X0175197Y0111713
X0190578Y0144095
X0207677Y0138779
X0202756Y015748
X0222441Y0123031
X0230315Y0109252
X0219047Y0101772
X0208465Y0096417
X0188976Y0229921
X0180315Y0243701
X0168504Y0240158
X0153937Y0236221
X0128937Y0216535
X013189Y0186024
X0163542Y0248409
Y0264567
X0167282
X0184646Y026811
X018189Y027441
X0194451Y0285502
X0188976Y0292323
X0202756Y032185
X0194451Y0336581
X0202756Y0354331
X015129Y034234
X0148534Y0323836
X0132823Y0318898
Y0314961
X0131052Y0289961
X015129Y0283679
X0203543Y0255118
X011811Y0246063
X008563Y0264764
X0067668Y0261213
Y0244677
X0059055Y0271654
X0056642Y0275591
X0064961Y0279528
X0060039Y0284449
X0064051Y0296555
X0048622Y0294685
X0029847Y0295315
X0024467Y0295458
X0007402Y0292499
X-0003937Y0284449
X-000689Y0281496
X-0012795Y027559
X-0015748Y0272638
X-0018701Y0278543
X-0020669Y029626
X-0009806Y0266732
X000315Y0267677
Y0262165
X0008661Y0262165
X0008661Y0267677
X0029134Y0267717
X0026575Y0276575
X0044882Y0267684
X0080559Y028937
X0088729Y0286024
X008883Y0301469
X0098279Y0296653
X0106448Y0293307
X-0030831Y0295315
X-0041019
X-0055118Y0295276
X-0055392Y0287875
X-0062008Y0284449
X-0060039Y0281496
X-0062008Y0278543
X-0060039Y027559
X-0062008Y0272638
X-0060039Y0269685
X-0062008Y0266732
X-0070866Y0262795
X-0029528Y0269685
X-0115157Y0277559
X-0134006Y027575
X-0153543Y027559
X-0147638Y0255512
X-0133605Y030561
X-013014Y0317565
X-0117378Y0320425
X-009941Y0312992
X-0132874Y033563
X-0142913Y0329921
X-0179134Y0290354
X-0188976Y0287402
Y0277165
T03
X-0198976Y0308898
Y0318898
X-0188976
Y0308898
Y0328898
X-0198976
T04
X-016765Y0135246
Y014312
Y0150994
X-0140878Y0177765
X-0133004
X-012513
T05
X0147638Y0037402
X-0147638
X-0127953Y0198819
X0147638Y0179134
T06
X0177562Y0240347
X0188939Y0260054
T07
X0238174Y0119253
X0232269Y0129482
X0209043Y015739
X0200405Y0165445
T08
X0196026Y0299033
X0196026Y0330451
T09
X-0025Y0016654
X-0015
Y0026654
X-0025
X-0005
X0005
Y0016654
X-0005
X0015
X0025
Y0026654
X0015
T10
X-002Y0021654
X002
X-017494Y0230783
X-0183194Y0225423
X-0169151Y0258014
X-0196382Y0263802
X-0204637Y0258441
T11
X-0156625Y0119497
X-0109382Y0166742
T13
X0118112Y0380796
X-0118112
T14
X0178117Y0362606
X-0178109Y0362606
M30
