G04*
G04 #@! TF.GenerationSoftware,Altium Limited,Altium Designer,24.4.1 (13)*
G04*
G04 Layer_Physical_Order=1*
G04 Layer_Color=3394611*
%FSLAX25Y25*%
%MOIN*%
G70*
G04*
G04 #@! TF.SameCoordinates,26F0EDD7-2FD7-4C20-BC01-A1B826D05D5E*
G04*
G04*
G04 #@! TF.FilePolarity,Positive*
G04*
G01*
G75*
%ADD10C,0.00394*%
%ADD11C,0.00591*%
%ADD13C,0.00787*%
%ADD14C,0.01575*%
%ADD15C,0.00984*%
%ADD16P,0.11136X4X180.0*%
G04:AMPARAMS|DCode=17|XSize=59.06mil|YSize=39.37mil|CornerRadius=0mil|HoleSize=0mil|Usage=FLASHONLY|Rotation=59.000|XOffset=0mil|YOffset=0mil|HoleType=Round|Shape=Rectangle|*
%AMROTATEDRECTD17*
4,1,4,0.00167,-0.03545,-0.03208,-0.01517,-0.00167,0.03545,0.03208,0.01517,0.00167,-0.03545,0.0*
%
%ADD17ROTATEDRECTD17*%

G04:AMPARAMS|DCode=18|XSize=59.06mil|YSize=39.37mil|CornerRadius=0mil|HoleSize=0mil|Usage=FLASHONLY|Rotation=54.000|XOffset=0mil|YOffset=0mil|HoleType=Round|Shape=Rectangle|*
%AMROTATEDRECTD18*
4,1,4,-0.00143,-0.03546,-0.03328,-0.01232,0.00143,0.03546,0.03328,0.01232,-0.00143,-0.03546,0.0*
%
%ADD18ROTATEDRECTD18*%

%ADD19R,0.05906X0.03937*%
G04:AMPARAMS|DCode=20|XSize=59.06mil|YSize=39.37mil|CornerRadius=0mil|HoleSize=0mil|Usage=FLASHONLY|Rotation=127.000|XOffset=0mil|YOffset=0mil|HoleType=Round|Shape=Rectangle|*
%AMROTATEDRECTD20*
4,1,4,0.03349,-0.01174,0.00205,-0.03543,-0.03349,0.01174,-0.00205,0.03543,0.03349,-0.01174,0.0*
%
%ADD20ROTATEDRECTD20*%

G04:AMPARAMS|DCode=21|XSize=59.06mil|YSize=39.37mil|CornerRadius=0mil|HoleSize=0mil|Usage=FLASHONLY|Rotation=121.000|XOffset=0mil|YOffset=0mil|HoleType=Round|Shape=Rectangle|*
%AMROTATEDRECTD21*
4,1,4,0.03208,-0.01517,-0.00167,-0.03545,-0.03208,0.01517,0.00167,0.03545,0.03208,-0.01517,0.0*
%
%ADD21ROTATEDRECTD21*%

%ADD22R,0.03150X0.05906*%
%ADD31C,0.04724*%
%ADD43C,0.01968*%
%ADD44C,0.09843*%
%ADD45C,0.04331*%
%ADD46C,0.02559*%
G04:AMPARAMS|DCode=47|XSize=90.55mil|YSize=62.99mil|CornerRadius=0mil|HoleSize=0mil|Usage=FLASHONLY|Rotation=33.000|XOffset=0mil|YOffset=0mil|HoleType=Round|Shape=Round|*
%AMOVALD47*
21,1,0.02756,0.06299,0.00000,0.00000,33.0*
1,1,0.06299,-0.01156,-0.00751*
1,1,0.06299,0.01156,0.00751*
%
%ADD47OVALD47*%

G04:AMPARAMS|DCode=48|XSize=90.55mil|YSize=62.99mil|CornerRadius=0mil|HoleSize=0mil|Usage=FLASHONLY|Rotation=303.000|XOffset=0mil|YOffset=0mil|HoleType=Round|Shape=Round|*
%AMOVALD48*
21,1,0.02756,0.06299,0.00000,0.00000,303.0*
1,1,0.06299,-0.00751,0.01156*
1,1,0.06299,0.00751,-0.01156*
%
%ADD48OVALD48*%

%ADD49C,0.05906*%
%ADD50C,0.06693*%
%ADD51O,0.09843X0.43307*%
%ADD52C,0.03543*%
%ADD53R,0.05906X0.05906*%
%ADD54C,0.02362*%
G36*
X-175896Y390800D02*
X-173938Y390554D01*
X-172022Y390084D01*
X-170172Y389397D01*
X-169297Y388951D01*
X-168287Y388426D01*
X-166370Y387186D01*
X-164579Y385768D01*
X-162932Y384186D01*
X-162188Y383320D01*
X-162187Y383320D01*
X-162187Y383319D01*
X-161246Y382228D01*
X-159518Y379922D01*
X-157953Y377502D01*
X-156559Y374980D01*
X-155950Y373674D01*
X-155941Y373663D01*
X-155938Y373650D01*
X-154796Y371365D01*
X-154786Y371353D01*
X-154781Y371337D01*
X-152353Y366843D01*
X-152339Y366827D01*
X-152332Y366806D01*
X-149715Y362419D01*
X-149701Y362403D01*
X-149693Y362383D01*
X-146892Y358112D01*
X-146877Y358096D01*
X-146868Y358076D01*
X-143889Y353927D01*
X-143874Y353912D01*
X-143864Y353893D01*
X-140711Y349874D01*
X-140695Y349860D01*
X-140684Y349841D01*
X-137364Y345959D01*
X-137347Y345946D01*
X-137336Y345928D01*
X-133854Y342190D01*
X-133837Y342178D01*
X-133825Y342160D01*
X-130187Y338574D01*
X-130169Y338562D01*
X-130157Y338544D01*
X-126371Y335116D01*
X-126352Y335104D01*
X-126338Y335088D01*
X-122410Y331823D01*
X-122391Y331812D01*
X-122377Y331796D01*
X-118314Y328701D01*
X-118299Y328694D01*
X-118288Y328682D01*
X-116208Y327199D01*
X-116200Y327195D01*
X-116193Y327189D01*
X-113364Y325251D01*
X-113347Y325244D01*
X-113333Y325230D01*
X-107535Y321571D01*
X-107511Y321562D01*
X-107491Y321545D01*
X-101517Y318180D01*
X-101493Y318172D01*
X-101473Y318156D01*
X-95338Y315094D01*
X-95319Y315089D01*
X-95304Y315078D01*
X-92918Y313997D01*
X-92689Y313655D01*
X-82828Y303794D01*
X-82840Y303783D01*
X-81242Y302418D01*
X-79450Y301320D01*
X-77508Y300516D01*
X-75465Y300025D01*
X-73370Y299860D01*
Y299876D01*
X73370D01*
Y299860D01*
X75465Y300025D01*
X77508Y300516D01*
X79450Y301320D01*
X81242Y302418D01*
X82840Y303783D01*
X82828Y303794D01*
X92689Y313655D01*
X92914Y313991D01*
X94753Y314814D01*
X94766Y314824D01*
X94782Y314828D01*
X99860Y317296D01*
X99877Y317309D01*
X99898Y317316D01*
X104866Y319998D01*
X104883Y320012D01*
X104903Y320019D01*
X109752Y322910D01*
X109768Y322924D01*
X109789Y322932D01*
X114511Y326027D01*
X114526Y326042D01*
X114546Y326051D01*
X119132Y329344D01*
X119147Y329360D01*
X119166Y329369D01*
X123608Y332854D01*
X123623Y332871D01*
X123641Y332881D01*
X127931Y336551D01*
X127941Y336564D01*
X127955Y336573D01*
X130041Y338475D01*
X130048Y338485D01*
X130058Y338492D01*
X132025Y340375D01*
X132035Y340389D01*
X132049Y340399D01*
X135849Y344298D01*
X135862Y344317D01*
X135881Y344332D01*
X139498Y348401D01*
X139510Y348421D01*
X139528Y348436D01*
X142953Y352667D01*
X142964Y352688D01*
X142982Y352704D01*
X146209Y357089D01*
X146219Y357110D01*
X146235Y357126D01*
X149258Y361655D01*
X149267Y361677D01*
X149282Y361694D01*
X152093Y366356D01*
X152101Y366378D01*
X152116Y366396D01*
X154709Y371184D01*
X154714Y371200D01*
X154725Y371214D01*
X155938Y373651D01*
X155948Y373685D01*
X155967Y373715D01*
X156462Y374908D01*
X157642Y377206D01*
X159006Y379400D01*
X160544Y381476D01*
X162247Y383419D01*
X164103Y385216D01*
X166099Y386856D01*
X168223Y388328D01*
X169318Y388961D01*
X170173Y389397D01*
X172023Y390084D01*
X173939Y390554D01*
X175897Y390800D01*
X176877Y390810D01*
X177884Y390807D01*
X179897Y390586D01*
X181875Y390151D01*
X183795Y389506D01*
X184713Y389084D01*
X185790Y388585D01*
X187856Y387415D01*
X189820Y386080D01*
X191667Y384589D01*
X192527Y383770D01*
X192528Y383769D01*
X192529Y383768D01*
X193578Y382773D01*
X195554Y380662D01*
X197398Y378436D01*
X199104Y376102D01*
X199886Y374886D01*
X199887Y374885D01*
X199887Y374884D01*
X200835Y373417D01*
X202592Y370399D01*
X204207Y367303D01*
X205677Y364135D01*
X206338Y362519D01*
X206339Y362519D01*
X206339Y362518D01*
X207126Y360602D01*
X208554Y356716D01*
X209835Y352777D01*
X210966Y348793D01*
X211456Y346782D01*
X211456Y346781D01*
X211456Y346781D01*
X212030Y344437D01*
X213025Y339714D01*
X213868Y334962D01*
X214558Y330185D01*
X214825Y327786D01*
X214825Y327786D01*
X214825Y327786D01*
X215134Y325030D01*
X215595Y319502D01*
X215899Y313964D01*
X216044Y308419D01*
X216038Y305646D01*
X216039Y305640D01*
X216038Y305634D01*
X216061Y303259D01*
X215967Y298509D01*
X215734Y293764D01*
X215360Y289028D01*
X214848Y284306D01*
X214197Y279599D01*
X213408Y274915D01*
X212482Y270256D01*
X211951Y267944D01*
X211498Y266034D01*
X210458Y262240D01*
X209288Y258483D01*
X207990Y254769D01*
X207278Y252936D01*
X206640Y251295D01*
X205244Y248063D01*
X203731Y244883D01*
X202102Y241762D01*
X201231Y240232D01*
X201231Y240231D01*
X201230Y240230D01*
X200475Y238896D01*
X198865Y236287D01*
X197159Y233739D01*
X195358Y231257D01*
X193466Y228844D01*
X191484Y226504D01*
X189417Y224240D01*
X187266Y222054D01*
X186152Y221004D01*
X184344Y219321D01*
X180521Y216178D01*
X176511Y213279D01*
X172330Y210632D01*
X167993Y208249D01*
X163518Y206138D01*
X158920Y204308D01*
X154218Y202765D01*
X151824Y202140D01*
X151704Y202082D01*
X151578Y202040D01*
X151530Y201997D01*
X151472Y201970D01*
X151383Y201870D01*
X151283Y201782D01*
X151254Y201725D01*
X151212Y201677D01*
X151168Y201551D01*
X151109Y201431D01*
X151104Y201367D01*
X151084Y201307D01*
X151091Y201174D01*
X151082Y201041D01*
X151103Y200980D01*
X151107Y200916D01*
X151165Y200796D01*
X151207Y200670D01*
X151250Y200621D01*
X151277Y200564D01*
X151377Y200475D01*
X151465Y200375D01*
X151522Y200346D01*
X151570Y200304D01*
X151696Y200260D01*
X151816Y200201D01*
X153691Y199694D01*
X157404Y198557D01*
X161077Y197296D01*
X164707Y195913D01*
X168287Y194410D01*
X171816Y192788D01*
X175289Y191049D01*
X178701Y189195D01*
X180376Y188212D01*
X180380Y188211D01*
X180383Y188208D01*
X182191Y187166D01*
X185750Y184988D01*
X189249Y182715D01*
X192687Y180350D01*
X194374Y179123D01*
X194375Y179122D01*
X194376Y179121D01*
X196678Y177455D01*
X201169Y173972D01*
X205544Y170343D01*
X209796Y166571D01*
X213921Y162661D01*
X217915Y158617D01*
X221773Y154443D01*
X225490Y150144D01*
X229065Y145725D01*
X232491Y141190D01*
X235766Y136544D01*
X238885Y131793D01*
X240363Y129371D01*
X241386Y127658D01*
X243324Y124159D01*
X245150Y120600D01*
X246860Y116984D01*
X247656Y115149D01*
X247656Y115149D01*
X247656Y115148D01*
X248412Y113411D01*
X249787Y109880D01*
X251024Y106299D01*
X252121Y102671D01*
X252598Y100838D01*
X252598Y100838D01*
X252598Y100837D01*
X253049Y99110D01*
X253784Y95616D01*
X254350Y92090D01*
X254747Y88542D01*
X254859Y86760D01*
X254875Y86700D01*
X254875Y86638D01*
X254986Y86044D01*
X255072Y84838D01*
X255018Y83629D01*
X254826Y82435D01*
X254498Y81271D01*
X254039Y80153D01*
X253454Y79094D01*
X252752Y78109D01*
X252393Y77712D01*
X252063Y77435D01*
X251219Y76897D01*
X250312Y76473D01*
X249358Y76171D01*
X248866Y76082D01*
X248863Y76081D01*
X248860Y76081D01*
X248179Y75956D01*
X246804Y75796D01*
X245421Y75727D01*
X244037Y75751D01*
X243347Y75809D01*
X243343Y75809D01*
X243338Y75810D01*
X242412Y75879D01*
X240566Y76073D01*
X238726Y76323D01*
X236895Y76629D01*
X235984Y76810D01*
X235982D01*
X235980Y76811D01*
X234839Y77032D01*
X232561Y77504D01*
X230290Y78004D01*
X228025Y78533D01*
X226897Y78811D01*
X216140Y81511D01*
X216139Y81512D01*
X216139Y81512D01*
X203789Y84596D01*
X203785Y84596D01*
X203781Y84598D01*
X202048Y85015D01*
X202045Y85015D01*
X202042Y85016D01*
X198572Y85832D01*
X198568Y85832D01*
X198565Y85833D01*
X195088Y86624D01*
X195085Y86624D01*
X195081Y86625D01*
X191599Y87390D01*
X191596Y87390D01*
X191594Y87391D01*
X189851Y87764D01*
X189848Y87764D01*
X189846Y87765D01*
X187925Y88166D01*
X187921Y88167D01*
X187917Y88168D01*
X184068Y88941D01*
X184063Y88941D01*
X184058Y88943D01*
X180201Y89676D01*
X180196Y89676D01*
X180191Y89678D01*
X176326Y90370D01*
X176322Y90370D01*
X176319Y90372D01*
X174384Y90703D01*
X174230Y90699D01*
X174077Y90708D01*
X174036Y90693D01*
X173993Y90692D01*
X173852Y90630D01*
X173707Y90579D01*
X173675Y90550D01*
X173635Y90533D01*
X173529Y90421D01*
X173415Y90319D01*
X173396Y90280D01*
X173366Y90249D01*
X173311Y90105D01*
X173244Y89966D01*
X173241Y89923D01*
X173226Y89883D01*
X173230Y89729D01*
X173221Y89576D01*
X173235Y89535D01*
X173236Y89491D01*
X173299Y89351D01*
X173349Y89206D01*
X173378Y89173D01*
X173396Y89134D01*
X173507Y89028D01*
X173609Y88913D01*
X175366Y87585D01*
X178777Y84800D01*
X182083Y81890D01*
X185279Y78860D01*
X188359Y75713D01*
X191321Y72453D01*
X194160Y69086D01*
X196872Y65616D01*
X198162Y63832D01*
X199427Y62075D01*
X201810Y58452D01*
X204038Y54732D01*
X206108Y50923D01*
X207062Y48976D01*
X207063Y48976D01*
X207063Y48976D01*
X208008Y47047D01*
X209717Y43106D01*
X211241Y39089D01*
X212576Y35006D01*
X213147Y32935D01*
X213720Y30859D01*
X214650Y26654D01*
X215363Y22405D01*
X215858Y18126D01*
X215996Y15977D01*
X216024Y15872D01*
X216033Y15764D01*
X216208Y15154D01*
X216321Y13891D01*
X216192Y12630D01*
X215826Y11416D01*
X215236Y10293D01*
X214443Y9303D01*
X213477Y8482D01*
X212372Y7859D01*
X211816Y7673D01*
X211079Y7502D01*
X209487Y7286D01*
X207882Y7219D01*
X206278Y7303D01*
X205483Y7419D01*
X205472Y7419D01*
X205461Y7422D01*
X204280Y7569D01*
X201928Y7938D01*
X199589Y8384D01*
X197266Y8904D01*
X196114Y9202D01*
X196110Y9202D01*
X196107Y9204D01*
X194593Y9584D01*
X191571Y10370D01*
X188557Y11182D01*
X185550Y12020D01*
X184049Y12453D01*
X184045Y12453D01*
X184042Y12455D01*
X169440Y16536D01*
X169436Y16537D01*
X169431Y16539D01*
X167315Y17110D01*
X167311Y17110D01*
X167308Y17112D01*
X163067Y18222D01*
X163062Y18223D01*
X163058Y18225D01*
X158806Y19294D01*
X158801Y19294D01*
X158796Y19296D01*
X154534Y20323D01*
X154531Y20323D01*
X154527Y20324D01*
X152392Y20822D01*
X152389Y20822D01*
X152386Y20823D01*
X149986Y21366D01*
X149980Y21366D01*
X149975Y21369D01*
X145164Y22400D01*
X145156Y22400D01*
X145149Y22403D01*
X140323Y23363D01*
X140315D01*
X140308Y23366D01*
X135468Y24253D01*
X135462Y24253D01*
X135457Y24255D01*
X133032Y24671D01*
X133027Y24671D01*
X133023Y24673D01*
X130349Y25108D01*
X130341Y25108D01*
X130334Y25110D01*
X124974Y25905D01*
X124964Y25905D01*
X124955Y25908D01*
X119580Y26600D01*
X119571Y26600D01*
X119561Y26603D01*
X114174Y27193D01*
X114167Y27193D01*
X114160Y27194D01*
X111463Y27452D01*
X111458Y27451D01*
X111452Y27452D01*
X108512Y27701D01*
X108503Y27700D01*
X108495Y27703D01*
X102606Y28102D01*
X102594Y28101D01*
X102583Y28103D01*
X96687Y28372D01*
X96676Y28370D01*
X96665Y28372D01*
X90763Y28509D01*
X90755Y28508D01*
X90747Y28509D01*
X87796Y28528D01*
X87686Y28507D01*
X87573Y28505D01*
X87495Y28471D01*
X87411Y28455D01*
X87318Y28393D01*
X87215Y28348D01*
X84042Y26134D01*
X77479Y22036D01*
X70715Y18276D01*
X63770Y14865D01*
X56660Y11812D01*
X49403Y9125D01*
X42020Y6810D01*
X34528Y4873D01*
X26948Y3320D01*
X19298Y2155D01*
X11599Y1380D01*
X3870Y998D01*
X1Y1003D01*
X-0Y1003D01*
X-1Y1003D01*
X-3870Y998D01*
X-11598Y1380D01*
X-19298Y2155D01*
X-26947Y3320D01*
X-34527Y4873D01*
X-42019Y6810D01*
X-49402Y9125D01*
X-56658Y11812D01*
X-63768Y14865D01*
X-70714Y18276D01*
X-77476Y22036D01*
X-84039Y26134D01*
X-87213Y28348D01*
X-87318Y28394D01*
X-87414Y28457D01*
X-87495Y28472D01*
X-87571Y28505D01*
X-87686Y28507D01*
X-87799Y28528D01*
X-91860Y28477D01*
X-91870Y28475D01*
X-91881Y28477D01*
X-99998Y28203D01*
X-100012Y28199D01*
X-100026Y28201D01*
X-108132Y27697D01*
X-108146Y27693D01*
X-108160Y27695D01*
X-116248Y26961D01*
X-116262Y26957D01*
X-116276Y26959D01*
X-124340Y25997D01*
X-124354Y25992D01*
X-124369Y25993D01*
X-132402Y24803D01*
X-132416Y24798D01*
X-132430Y24798D01*
X-140427Y23381D01*
X-140440Y23376D01*
X-140455Y23376D01*
X-148408Y21733D01*
X-148418Y21729D01*
X-148429Y21729D01*
X-152388Y20823D01*
X-152390Y20822D01*
X-152392Y20822D01*
X-154526Y20324D01*
X-154530Y20323D01*
X-154534Y20323D01*
X-158796Y19296D01*
X-158800Y19294D01*
X-158805Y19293D01*
X-163057Y18225D01*
X-163061Y18223D01*
X-163066Y18222D01*
X-167307Y17111D01*
X-167311Y17110D01*
X-167315Y17110D01*
X-169431Y16539D01*
X-169435Y16536D01*
X-169440Y16536D01*
X-184041Y12455D01*
X-184045Y12453D01*
X-184049Y12453D01*
X-185549Y12020D01*
X-188556Y11182D01*
X-191570Y10370D01*
X-194593Y9583D01*
X-196106Y9204D01*
X-196109Y9202D01*
X-196113Y9202D01*
X-197265Y8904D01*
X-199589Y8384D01*
X-201927Y7938D01*
X-204279Y7569D01*
X-205460Y7422D01*
X-205471Y7419D01*
X-205482Y7419D01*
X-206277Y7303D01*
X-207881Y7219D01*
X-209486Y7286D01*
X-211078Y7502D01*
X-211857Y7683D01*
X-212370Y7807D01*
X-213332Y8265D01*
X-214178Y8912D01*
X-214873Y9719D01*
X-215113Y10153D01*
X-215408Y10796D01*
X-215837Y12222D01*
X-216066Y13692D01*
X-216090Y15180D01*
X-215999Y15919D01*
X-216001Y15946D01*
X-215994Y15973D01*
X-215847Y18119D01*
X-215344Y22391D01*
X-214632Y26633D01*
X-213713Y30836D01*
X-212590Y34988D01*
X-211263Y39080D01*
X-209738Y43102D01*
X-208018Y47045D01*
X-207062Y48972D01*
X-207062Y48974D01*
X-207060Y48976D01*
X-206106Y50923D01*
X-204036Y54732D01*
X-201807Y58452D01*
X-199425Y62074D01*
X-198159Y63833D01*
X-198159Y63833D01*
X-196230Y66508D01*
X-192076Y71632D01*
X-187639Y76512D01*
X-182933Y81134D01*
X-180454Y83308D01*
X-180453Y83309D01*
X-180453Y83310D01*
X-179622Y84040D01*
X-177935Y85473D01*
X-176223Y86874D01*
X-174485Y88245D01*
X-173605Y88915D01*
X-173503Y89030D01*
X-173391Y89137D01*
X-173374Y89176D01*
X-173346Y89208D01*
X-173295Y89354D01*
X-173233Y89495D01*
X-173232Y89538D01*
X-173218Y89578D01*
X-173228Y89732D01*
X-173224Y89887D01*
X-173240Y89927D01*
X-173242Y89969D01*
X-173310Y90108D01*
X-173366Y90252D01*
X-173395Y90283D01*
X-173414Y90321D01*
X-173530Y90423D01*
X-173636Y90535D01*
X-173675Y90552D01*
X-173707Y90580D01*
X-173853Y90631D01*
X-173994Y90693D01*
X-174037Y90694D01*
X-174077Y90708D01*
X-174231Y90698D01*
X-174386Y90702D01*
X-178075Y90055D01*
X-178081Y90053D01*
X-178088Y90053D01*
X-185448Y88661D01*
X-185457Y88658D01*
X-185466Y88658D01*
X-192800Y87134D01*
X-192809Y87131D01*
X-192818Y87131D01*
X-200124Y85477D01*
X-200130Y85474D01*
X-200137Y85474D01*
X-203778Y84598D01*
X-203782Y84596D01*
X-203787Y84596D01*
X-216137Y81512D01*
X-216137Y81512D01*
X-216138Y81511D01*
X-226896Y78811D01*
X-228023Y78533D01*
X-230287Y78004D01*
X-232558Y77504D01*
X-234836Y77032D01*
X-235978Y76811D01*
X-235980Y76810D01*
X-235982D01*
X-236893Y76629D01*
X-238724Y76323D01*
X-240564Y76073D01*
X-242410Y75879D01*
X-243336Y75810D01*
X-243340Y75809D01*
X-243345Y75809D01*
X-244035Y75751D01*
X-245419Y75727D01*
X-246802Y75796D01*
X-248177Y75956D01*
X-248858Y76081D01*
X-248861Y76081D01*
X-248863Y76082D01*
X-249356Y76171D01*
X-250310Y76473D01*
X-251217Y76897D01*
X-252061Y77435D01*
X-252428Y77743D01*
X-252775Y78060D01*
X-253397Y78820D01*
X-253902Y79662D01*
X-254280Y80568D01*
X-254401Y81044D01*
X-254576Y81737D01*
X-254810Y83154D01*
X-254925Y84585D01*
X-254921Y86022D01*
X-254859Y86737D01*
X-254859Y86743D01*
X-254858Y86748D01*
X-254720Y88583D01*
X-254285Y92237D01*
X-253692Y95869D01*
X-252943Y99472D01*
X-252039Y103039D01*
X-250980Y106564D01*
X-249771Y110039D01*
X-248412Y113459D01*
X-247659Y115138D01*
X-247657Y115144D01*
X-247654Y115149D01*
X-246858Y116984D01*
X-245148Y120600D01*
X-243322Y124159D01*
X-241384Y127658D01*
X-240358Y129376D01*
X-240358Y129376D01*
X-240358Y129376D01*
X-239291Y131167D01*
X-237057Y134688D01*
X-234727Y138146D01*
X-232302Y141539D01*
X-231043Y143201D01*
X-229327Y145466D01*
X-225747Y149882D01*
X-222026Y154179D01*
X-218166Y158352D01*
X-214171Y162397D01*
X-210047Y166309D01*
X-205797Y170085D01*
X-201426Y173719D01*
X-196939Y177209D01*
X-192340Y180551D01*
X-187634Y183740D01*
X-182827Y186774D01*
X-180378Y188210D01*
X-178650Y189207D01*
X-175129Y191098D01*
X-171551Y192881D01*
X-167921Y194554D01*
X-166082Y195334D01*
X-166081Y195335D01*
X-166081Y195335D01*
X-164346Y196073D01*
X-160825Y197420D01*
X-157257Y198637D01*
X-153646Y199723D01*
X-151822Y200199D01*
X-151699Y200258D01*
X-151569Y200303D01*
X-151524Y200343D01*
X-151470Y200369D01*
X-151379Y200472D01*
X-151276Y200563D01*
X-151250Y200617D01*
X-151209Y200662D01*
X-151165Y200792D01*
X-151105Y200915D01*
X-151101Y200975D01*
X-151081Y201032D01*
X-151089Y201169D01*
X-151081Y201306D01*
X-151101Y201363D01*
X-151104Y201423D01*
X-151164Y201546D01*
X-151209Y201676D01*
X-151249Y201721D01*
X-151275Y201775D01*
X-151378Y201866D01*
X-151469Y201969D01*
X-151523Y201995D01*
X-151568Y202035D01*
X-151698Y202080D01*
X-151821Y202140D01*
X-154185Y202760D01*
X-158832Y204284D01*
X-163376Y206087D01*
X-167804Y208162D01*
X-172098Y210502D01*
X-176242Y213097D01*
X-180221Y215939D01*
X-184020Y219016D01*
X-187627Y222318D01*
X-191026Y225833D01*
X-194206Y229547D01*
X-197156Y233447D01*
X-199863Y237518D01*
X-202319Y241746D01*
X-204515Y246115D01*
X-206441Y250609D01*
X-207266Y252911D01*
X-207273Y252922D01*
X-207276Y252935D01*
X-207988Y254769D01*
X-209286Y258483D01*
X-210456Y262240D01*
X-211495Y266034D01*
X-211950Y267948D01*
X-212463Y270110D01*
X-213354Y274464D01*
X-214109Y278844D01*
X-214726Y283246D01*
X-214966Y285455D01*
X-215239Y287969D01*
X-215647Y293009D01*
X-215914Y298058D01*
X-216042Y303113D01*
X-216036Y305641D01*
X-216037Y305647D01*
X-216036Y305654D01*
X-216061Y308247D01*
X-215956Y313432D01*
X-215693Y318613D01*
X-215275Y323782D01*
X-214701Y328937D01*
X-213971Y334072D01*
X-213086Y339183D01*
X-212048Y344265D01*
X-211453Y346786D01*
X-210964Y348793D01*
X-209832Y352777D01*
X-208552Y356715D01*
X-207124Y360602D01*
X-206337Y362518D01*
X-206336Y362519D01*
X-206336Y362519D01*
X-205675Y364135D01*
X-204205Y367303D01*
X-202589Y370399D01*
X-200833Y373417D01*
X-199885Y374884D01*
X-199884Y374885D01*
X-199883Y374886D01*
X-199102Y376102D01*
X-197396Y378436D01*
X-195551Y380662D01*
X-193576Y382773D01*
X-192527Y383768D01*
X-192526Y383769D01*
X-192525Y383770D01*
X-191665Y384589D01*
X-189818Y386080D01*
X-187855Y387415D01*
X-185788Y388585D01*
X-184711Y389084D01*
X-183793Y389506D01*
X-181873Y390151D01*
X-179896Y390586D01*
X-177883Y390808D01*
X-176876Y390810D01*
X-175896Y390800D01*
D02*
G37*
G36*
X690376Y-128249D02*
X690090D01*
Y-128535D01*
X689804D01*
Y-128821D01*
Y-129108D01*
X689517D01*
Y-129394D01*
X689231D01*
Y-129680D01*
X688945D01*
Y-129966D01*
Y-130253D01*
X688658D01*
Y-130539D01*
X688372D01*
Y-130825D01*
X688086D01*
Y-131112D01*
X687799D01*
Y-131398D01*
Y-131684D01*
X687513D01*
Y-131971D01*
X687227D01*
Y-132257D01*
X686940D01*
Y-132543D01*
Y-132830D01*
X686654D01*
Y-133116D01*
X686368D01*
Y-133402D01*
X686082D01*
Y-133689D01*
X685795D01*
Y-133975D01*
Y-134261D01*
X685509D01*
Y-134547D01*
X685223D01*
Y-134834D01*
X684936D01*
Y-135120D01*
Y-135406D01*
X684650D01*
Y-135693D01*
X684364D01*
Y-135979D01*
X684077D01*
Y-136265D01*
Y-136552D01*
X683791D01*
Y-136838D01*
X683505D01*
Y-137124D01*
X683218D01*
Y-137411D01*
X682932D01*
Y-137697D01*
Y-137983D01*
X682646D01*
Y-138270D01*
X682359D01*
Y-138556D01*
X682073D01*
Y-138842D01*
Y-139128D01*
X681787D01*
Y-139415D01*
X681500D01*
Y-139701D01*
X681214D01*
Y-139988D01*
Y-140274D01*
X680928D01*
Y-140560D01*
X680642D01*
Y-140846D01*
X680355D01*
Y-141133D01*
X680069D01*
Y-141419D01*
Y-141705D01*
X679783D01*
Y-141992D01*
X679496D01*
Y-142278D01*
X679210D01*
Y-142564D01*
Y-142851D01*
X678924D01*
Y-143137D01*
X678637D01*
Y-143423D01*
X678351D01*
Y-143710D01*
Y-143996D01*
X678065D01*
Y-144282D01*
X677778D01*
Y-144569D01*
X677492D01*
Y-144855D01*
X677206D01*
Y-145141D01*
Y-145427D01*
X676920D01*
Y-145714D01*
X676633D01*
Y-146000D01*
X676347D01*
Y-146286D01*
Y-146573D01*
X676060D01*
Y-146859D01*
X675774D01*
Y-147145D01*
X675488D01*
Y-147432D01*
X675202D01*
Y-147718D01*
Y-148004D01*
X675488D01*
Y-148291D01*
Y-148577D01*
X675774D01*
Y-148863D01*
Y-149150D01*
X676060D01*
Y-149436D01*
X676347D01*
Y-149722D01*
Y-150008D01*
X676633D01*
Y-150295D01*
Y-150581D01*
X676920D01*
Y-150867D01*
Y-151154D01*
X677206D01*
Y-151440D01*
Y-151726D01*
X677492D01*
Y-152013D01*
Y-152299D01*
X677778D01*
Y-152585D01*
Y-152872D01*
X678065D01*
Y-153158D01*
Y-153444D01*
X678351D01*
Y-153730D01*
Y-154017D01*
X678637D01*
Y-154303D01*
X678924D01*
Y-154589D01*
Y-154876D01*
X679210D01*
Y-155162D01*
Y-155448D01*
X679496D01*
Y-155735D01*
Y-156021D01*
X679783D01*
Y-156307D01*
Y-156594D01*
X680069D01*
Y-156880D01*
Y-157166D01*
X680355D01*
Y-157453D01*
Y-157739D01*
X680642D01*
Y-158025D01*
Y-158311D01*
X680928D01*
Y-158598D01*
X681214D01*
Y-158884D01*
Y-159170D01*
X681500D01*
Y-159457D01*
Y-159743D01*
X681787D01*
Y-160029D01*
Y-160316D01*
X682073D01*
Y-160602D01*
Y-160888D01*
X682359D01*
Y-161175D01*
Y-161461D01*
X682646D01*
Y-161747D01*
Y-162034D01*
X682932D01*
Y-162320D01*
Y-162606D01*
X683218D01*
Y-162892D01*
X683505D01*
Y-163179D01*
Y-163465D01*
X683791D01*
Y-163751D01*
Y-164038D01*
X684077D01*
Y-164324D01*
X668903D01*
Y-164038D01*
X668616D01*
Y-163751D01*
Y-163465D01*
Y-163179D01*
X668330D01*
Y-162892D01*
Y-162606D01*
Y-162320D01*
X668044D01*
Y-162034D01*
Y-161747D01*
X667758D01*
Y-161461D01*
Y-161175D01*
Y-160888D01*
X667471D01*
Y-160602D01*
Y-160316D01*
Y-160029D01*
X667185D01*
Y-159743D01*
Y-159457D01*
X666898D01*
Y-159170D01*
Y-158884D01*
Y-158598D01*
X666612D01*
Y-158311D01*
Y-158025D01*
Y-157739D01*
X666326D01*
Y-157453D01*
Y-157166D01*
Y-156880D01*
X666040D01*
Y-156594D01*
X665467D01*
Y-156880D01*
Y-157166D01*
X665181D01*
Y-157453D01*
X664894D01*
Y-157739D01*
Y-158025D01*
X664608D01*
Y-158311D01*
X664322D01*
Y-158598D01*
Y-158884D01*
X664035D01*
Y-159170D01*
X663749D01*
Y-159457D01*
Y-159743D01*
X663463D01*
Y-160029D01*
X663176D01*
Y-160316D01*
X662890D01*
Y-160602D01*
Y-160888D01*
X662604D01*
Y-161175D01*
X662318D01*
Y-161461D01*
Y-161747D01*
X662031D01*
Y-162034D01*
X661745D01*
Y-162320D01*
Y-162606D01*
X661459D01*
Y-162892D01*
X661172D01*
Y-163179D01*
Y-163465D01*
X660886D01*
Y-163751D01*
X660600D01*
Y-164038D01*
Y-164324D01*
X644566D01*
Y-164038D01*
X644852D01*
Y-163751D01*
X645139D01*
Y-163465D01*
X645425D01*
Y-163179D01*
X645711D01*
Y-162892D01*
Y-162606D01*
X645998D01*
Y-162320D01*
X646284D01*
Y-162034D01*
X646570D01*
Y-161747D01*
X646857D01*
Y-161461D01*
Y-161175D01*
X647143D01*
Y-160888D01*
X647429D01*
Y-160602D01*
X647716D01*
Y-160316D01*
Y-160029D01*
X648002D01*
Y-159743D01*
X648288D01*
Y-159457D01*
X648574D01*
Y-159170D01*
X648861D01*
Y-158884D01*
Y-158598D01*
X649147D01*
Y-158311D01*
X649433D01*
Y-158025D01*
X649720D01*
Y-157739D01*
X650006D01*
Y-157453D01*
Y-157166D01*
X650292D01*
Y-156880D01*
X650579D01*
Y-156594D01*
X650865D01*
Y-156307D01*
Y-156021D01*
X651151D01*
Y-155735D01*
X651438D01*
Y-155448D01*
X651724D01*
Y-155162D01*
X652010D01*
Y-154876D01*
Y-154589D01*
X652297D01*
Y-154303D01*
X652583D01*
Y-154017D01*
X652869D01*
Y-153730D01*
Y-153444D01*
X653156D01*
Y-153158D01*
X653442D01*
Y-152872D01*
X653728D01*
Y-152585D01*
X654014D01*
Y-152299D01*
Y-152013D01*
X654301D01*
Y-151726D01*
X654587D01*
Y-151440D01*
X654873D01*
Y-151154D01*
Y-150867D01*
X655160D01*
Y-150581D01*
X655446D01*
Y-150295D01*
X655732D01*
Y-150008D01*
X656019D01*
Y-149722D01*
Y-149436D01*
X656305D01*
Y-149150D01*
X656591D01*
Y-148863D01*
X656878D01*
Y-148577D01*
X657164D01*
Y-148291D01*
Y-148004D01*
X657450D01*
Y-147718D01*
X657736D01*
Y-147432D01*
X658023D01*
Y-147145D01*
Y-146859D01*
X658309D01*
Y-146573D01*
X658596D01*
Y-146286D01*
X658882D01*
Y-146000D01*
X659168D01*
Y-145714D01*
Y-145427D01*
X659454D01*
Y-145141D01*
Y-144855D01*
Y-144569D01*
X659168D01*
Y-144282D01*
X658882D01*
Y-143996D01*
Y-143710D01*
X658596D01*
Y-143423D01*
Y-143137D01*
X658309D01*
Y-142851D01*
Y-142564D01*
X658023D01*
Y-142278D01*
Y-141992D01*
X657736D01*
Y-141705D01*
Y-141419D01*
X657450D01*
Y-141133D01*
Y-140846D01*
X657164D01*
Y-140560D01*
X656878D01*
Y-140274D01*
Y-139988D01*
X656591D01*
Y-139701D01*
Y-139415D01*
X656305D01*
Y-139128D01*
Y-138842D01*
X656019D01*
Y-138556D01*
Y-138270D01*
X655732D01*
Y-137983D01*
Y-137697D01*
X655446D01*
Y-137411D01*
Y-137124D01*
X655160D01*
Y-136838D01*
X654873D01*
Y-136552D01*
Y-136265D01*
X654587D01*
Y-135979D01*
Y-135693D01*
X654301D01*
Y-135406D01*
Y-135120D01*
X654014D01*
Y-134834D01*
Y-134547D01*
X653728D01*
Y-134261D01*
Y-133975D01*
X653442D01*
Y-133689D01*
Y-133402D01*
X653156D01*
Y-133116D01*
Y-132830D01*
X652869D01*
Y-132543D01*
X652583D01*
Y-132257D01*
Y-131971D01*
X652297D01*
Y-131684D01*
Y-131398D01*
X652010D01*
Y-131112D01*
Y-130825D01*
X651724D01*
Y-130539D01*
Y-130253D01*
X651438D01*
Y-129966D01*
Y-129680D01*
X651151D01*
Y-129394D01*
Y-129108D01*
X650865D01*
Y-128821D01*
X650579D01*
Y-128535D01*
Y-128249D01*
X650292D01*
Y-127962D01*
X666040D01*
Y-128249D01*
X666326D01*
Y-128535D01*
Y-128821D01*
Y-129108D01*
X666612D01*
Y-129394D01*
Y-129680D01*
Y-129966D01*
X666898D01*
Y-130253D01*
Y-130539D01*
Y-130825D01*
X667185D01*
Y-131112D01*
Y-131398D01*
Y-131684D01*
X667471D01*
Y-131971D01*
Y-132257D01*
Y-132543D01*
X667758D01*
Y-132830D01*
Y-133116D01*
Y-133402D01*
X668044D01*
Y-133689D01*
Y-133975D01*
Y-134261D01*
X668330D01*
Y-134547D01*
Y-134834D01*
Y-135120D01*
X668616D01*
Y-135406D01*
Y-135693D01*
Y-135979D01*
Y-136265D01*
X669189D01*
Y-135979D01*
X669475D01*
Y-135693D01*
X669762D01*
Y-135406D01*
Y-135120D01*
X670048D01*
Y-134834D01*
X670334D01*
Y-134547D01*
Y-134261D01*
X670621D01*
Y-133975D01*
X670907D01*
Y-133689D01*
Y-133402D01*
X671193D01*
Y-133116D01*
X671480D01*
Y-132830D01*
Y-132543D01*
X671766D01*
Y-132257D01*
X672052D01*
Y-131971D01*
Y-131684D01*
X672338D01*
Y-131398D01*
X672625D01*
Y-131112D01*
Y-130825D01*
X672911D01*
Y-130539D01*
X673197D01*
Y-130253D01*
Y-129966D01*
X673484D01*
Y-129680D01*
X673770D01*
Y-129394D01*
Y-129108D01*
X674056D01*
Y-128821D01*
X674343D01*
Y-128535D01*
Y-128249D01*
X674629D01*
Y-127962D01*
X690376D01*
Y-128249D01*
D02*
G37*
G36*
X557241Y-114219D02*
X558959D01*
Y-114506D01*
X559818D01*
Y-114792D01*
X560676D01*
Y-115078D01*
X561535D01*
Y-115365D01*
X562108D01*
Y-115651D01*
X562394D01*
Y-115937D01*
X562967D01*
Y-116224D01*
X563253D01*
Y-116510D01*
X563826D01*
Y-116796D01*
X564112D01*
Y-117083D01*
X564398D01*
Y-117369D01*
X564685D01*
Y-117655D01*
X564971D01*
Y-117941D01*
X565258D01*
Y-118228D01*
X565544D01*
Y-118514D01*
Y-118800D01*
X565830D01*
Y-119087D01*
X566116D01*
Y-119373D01*
Y-119659D01*
X566403D01*
Y-119946D01*
X566689D01*
Y-120232D01*
Y-120518D01*
X566975D01*
Y-120805D01*
Y-121091D01*
Y-121377D01*
X567262D01*
Y-121663D01*
Y-121950D01*
Y-122236D01*
X567548D01*
Y-122522D01*
Y-122809D01*
Y-123095D01*
Y-123381D01*
X567834D01*
Y-123668D01*
Y-123954D01*
Y-124240D01*
Y-124527D01*
Y-124813D01*
X568121D01*
Y-125099D01*
Y-125385D01*
Y-125672D01*
Y-125958D01*
Y-126244D01*
Y-126531D01*
Y-126817D01*
Y-127103D01*
Y-127390D01*
Y-127676D01*
Y-127962D01*
Y-128249D01*
Y-128535D01*
Y-128821D01*
Y-129108D01*
Y-129394D01*
Y-129680D01*
Y-129966D01*
Y-130253D01*
Y-130539D01*
X567834D01*
Y-130825D01*
Y-131112D01*
Y-131398D01*
Y-131684D01*
Y-131971D01*
Y-132257D01*
Y-132543D01*
X567548D01*
Y-132830D01*
Y-133116D01*
Y-133402D01*
Y-133689D01*
Y-133975D01*
X567262D01*
Y-134261D01*
Y-134547D01*
Y-134834D01*
Y-135120D01*
Y-135406D01*
X566975D01*
Y-135693D01*
Y-135979D01*
Y-136265D01*
X566689D01*
Y-136552D01*
Y-136838D01*
Y-137124D01*
Y-137411D01*
X566403D01*
Y-137697D01*
Y-137983D01*
Y-138270D01*
X566116D01*
Y-138556D01*
Y-138842D01*
X565830D01*
Y-139128D01*
Y-139415D01*
Y-139701D01*
X565544D01*
Y-139988D01*
Y-140274D01*
X565258D01*
Y-140560D01*
Y-140846D01*
X564971D01*
Y-141133D01*
Y-141419D01*
X564685D01*
Y-141705D01*
X564398D01*
Y-141992D01*
Y-142278D01*
X564112D01*
Y-142564D01*
X563826D01*
Y-142851D01*
X563540D01*
Y-143137D01*
Y-143423D01*
X563253D01*
Y-143710D01*
X562967D01*
Y-143996D01*
X562681D01*
Y-144282D01*
X562394D01*
Y-144569D01*
X562108D01*
Y-144855D01*
X561535D01*
Y-145141D01*
X561249D01*
Y-145427D01*
X560676D01*
Y-145714D01*
X560390D01*
Y-146000D01*
X559818D01*
Y-146286D01*
X558959D01*
Y-146573D01*
X558100D01*
Y-146859D01*
X557241D01*
Y-147145D01*
X555523D01*
Y-147432D01*
X550369D01*
Y-147145D01*
X547792D01*
Y-146859D01*
X545788D01*
Y-146573D01*
X544357D01*
Y-146286D01*
X542925D01*
Y-146000D01*
X541494D01*
Y-146286D01*
Y-146573D01*
Y-146859D01*
Y-147145D01*
Y-147432D01*
Y-147718D01*
Y-148004D01*
X541207D01*
Y-148291D01*
Y-148577D01*
Y-148863D01*
Y-149150D01*
Y-149436D01*
Y-149722D01*
X540921D01*
Y-150008D01*
Y-150295D01*
Y-150581D01*
Y-150867D01*
Y-151154D01*
Y-151440D01*
X540635D01*
Y-151726D01*
Y-152013D01*
Y-152299D01*
Y-152585D01*
Y-152872D01*
Y-153158D01*
Y-153444D01*
X540348D01*
Y-153730D01*
Y-154017D01*
Y-154303D01*
Y-154589D01*
Y-154876D01*
Y-155162D01*
X540062D01*
Y-155448D01*
Y-155735D01*
Y-156021D01*
Y-156307D01*
Y-156594D01*
Y-156880D01*
X539776D01*
Y-157166D01*
Y-157453D01*
Y-157739D01*
Y-158025D01*
Y-158311D01*
Y-158598D01*
Y-158884D01*
X539489D01*
Y-159170D01*
Y-159457D01*
Y-159743D01*
Y-160029D01*
Y-160316D01*
Y-160602D01*
X539203D01*
Y-160888D01*
Y-161175D01*
Y-161461D01*
Y-161747D01*
Y-162034D01*
Y-162320D01*
X538917D01*
Y-162606D01*
Y-162892D01*
Y-163179D01*
Y-163465D01*
Y-163751D01*
Y-164038D01*
Y-164324D01*
X525460D01*
Y-164038D01*
X525746D01*
Y-163751D01*
Y-163465D01*
Y-163179D01*
Y-162892D01*
Y-162606D01*
X526033D01*
Y-162320D01*
Y-162034D01*
Y-161747D01*
Y-161461D01*
Y-161175D01*
Y-160888D01*
Y-160602D01*
X526319D01*
Y-160316D01*
Y-160029D01*
Y-159743D01*
Y-159457D01*
Y-159170D01*
Y-158884D01*
X526605D01*
Y-158598D01*
Y-158311D01*
Y-158025D01*
Y-157739D01*
Y-157453D01*
Y-157166D01*
X526892D01*
Y-156880D01*
Y-156594D01*
Y-156307D01*
Y-156021D01*
Y-155735D01*
Y-155448D01*
Y-155162D01*
X527178D01*
Y-154876D01*
Y-154589D01*
Y-154303D01*
Y-154017D01*
Y-153730D01*
Y-153444D01*
X527464D01*
Y-153158D01*
Y-152872D01*
Y-152585D01*
Y-152299D01*
Y-152013D01*
Y-151726D01*
X527750D01*
Y-151440D01*
Y-151154D01*
Y-150867D01*
Y-150581D01*
Y-150295D01*
Y-150008D01*
X528037D01*
Y-149722D01*
Y-149436D01*
Y-149150D01*
Y-148863D01*
Y-148577D01*
Y-148291D01*
Y-148004D01*
X528323D01*
Y-147718D01*
Y-147432D01*
Y-147145D01*
Y-146859D01*
Y-146573D01*
Y-146286D01*
X528609D01*
Y-146000D01*
Y-145714D01*
Y-145427D01*
Y-145141D01*
Y-144855D01*
Y-144569D01*
X528896D01*
Y-144282D01*
Y-143996D01*
Y-143710D01*
Y-143423D01*
Y-143137D01*
Y-142851D01*
X529182D01*
Y-142564D01*
Y-142278D01*
Y-141992D01*
Y-141705D01*
Y-141419D01*
Y-141133D01*
Y-140846D01*
X529468D01*
Y-140560D01*
Y-140274D01*
Y-139988D01*
Y-139701D01*
Y-139415D01*
Y-139128D01*
X529755D01*
Y-138842D01*
Y-138556D01*
Y-138270D01*
Y-137983D01*
Y-137697D01*
Y-137411D01*
X530041D01*
Y-137124D01*
Y-136838D01*
Y-136552D01*
Y-136265D01*
Y-135979D01*
Y-135693D01*
Y-135406D01*
X530327D01*
Y-135120D01*
Y-134834D01*
Y-134547D01*
Y-134261D01*
Y-133975D01*
Y-133689D01*
X530614D01*
Y-133402D01*
Y-133116D01*
Y-132830D01*
Y-132543D01*
Y-132257D01*
Y-131971D01*
X530900D01*
Y-131684D01*
Y-131398D01*
Y-131112D01*
Y-130825D01*
Y-130539D01*
Y-130253D01*
X531186D01*
Y-129966D01*
Y-129680D01*
Y-129394D01*
Y-129108D01*
Y-128821D01*
Y-128535D01*
Y-128249D01*
X531473D01*
Y-127962D01*
Y-127676D01*
Y-127390D01*
Y-127103D01*
Y-126817D01*
Y-126531D01*
X531759D01*
Y-126244D01*
Y-125958D01*
Y-125672D01*
Y-125385D01*
Y-125099D01*
Y-124813D01*
X532045D01*
Y-124527D01*
Y-124240D01*
Y-123954D01*
Y-123668D01*
Y-123381D01*
Y-123095D01*
Y-122809D01*
X532332D01*
Y-122522D01*
Y-122236D01*
Y-121950D01*
Y-121663D01*
Y-121377D01*
Y-121091D01*
X532618D01*
Y-120805D01*
Y-120518D01*
Y-120232D01*
Y-119946D01*
Y-119659D01*
Y-119373D01*
X532904D01*
Y-119087D01*
Y-118800D01*
Y-118514D01*
Y-118228D01*
Y-117941D01*
Y-117655D01*
Y-117369D01*
X533190D01*
Y-117083D01*
Y-116796D01*
Y-116510D01*
Y-116224D01*
Y-115937D01*
Y-115651D01*
X533477D01*
Y-115365D01*
Y-115078D01*
Y-114792D01*
Y-114506D01*
Y-114219D01*
Y-113933D01*
X557241D01*
Y-114219D01*
D02*
G37*
G36*
X646284Y-128249D02*
Y-128535D01*
Y-128821D01*
Y-129108D01*
Y-129394D01*
Y-129680D01*
Y-129966D01*
Y-130253D01*
Y-130539D01*
Y-130825D01*
Y-131112D01*
Y-131398D01*
Y-131684D01*
Y-131971D01*
Y-132257D01*
Y-132543D01*
Y-132830D01*
Y-133116D01*
Y-133402D01*
Y-133689D01*
Y-133975D01*
X645998D01*
Y-134261D01*
Y-134547D01*
Y-134834D01*
Y-135120D01*
Y-135406D01*
X645711D01*
Y-135693D01*
Y-135979D01*
Y-136265D01*
Y-136552D01*
X645425D01*
Y-136838D01*
Y-137124D01*
Y-137411D01*
Y-137697D01*
X645139D01*
Y-137983D01*
Y-138270D01*
Y-138556D01*
X644852D01*
Y-138842D01*
Y-139128D01*
Y-139415D01*
X644566D01*
Y-139701D01*
Y-139988D01*
Y-140274D01*
X644280D01*
Y-140560D01*
Y-140846D01*
Y-141133D01*
X643994D01*
Y-141419D01*
Y-141705D01*
X643707D01*
Y-141992D01*
Y-142278D01*
X643421D01*
Y-142564D01*
Y-142851D01*
Y-143137D01*
X643135D01*
Y-143423D01*
Y-143710D01*
X642848D01*
Y-143996D01*
Y-144282D01*
Y-144569D01*
X642562D01*
Y-144855D01*
Y-145141D01*
X642276D01*
Y-145427D01*
Y-145714D01*
Y-146000D01*
X641989D01*
Y-146286D01*
Y-146573D01*
X641703D01*
Y-146859D01*
Y-147145D01*
Y-147432D01*
X641417D01*
Y-147718D01*
Y-148004D01*
X641130D01*
Y-148291D01*
Y-148577D01*
Y-148863D01*
X640844D01*
Y-149150D01*
Y-149436D01*
X640558D01*
Y-149722D01*
Y-150008D01*
Y-150295D01*
X640271D01*
Y-150581D01*
Y-150867D01*
X639985D01*
Y-151154D01*
Y-151440D01*
Y-151726D01*
X639699D01*
Y-152013D01*
Y-152299D01*
X639412D01*
Y-152585D01*
Y-152872D01*
Y-153158D01*
X639126D01*
Y-153444D01*
Y-153730D01*
X638840D01*
Y-154017D01*
Y-154303D01*
Y-154589D01*
X638554D01*
Y-154876D01*
Y-155162D01*
X638267D01*
Y-155448D01*
Y-155735D01*
Y-156021D01*
X637981D01*
Y-156307D01*
Y-156594D01*
X637695D01*
Y-156880D01*
Y-157166D01*
Y-157453D01*
X637408D01*
Y-157739D01*
Y-158025D01*
X637122D01*
Y-158311D01*
Y-158598D01*
Y-158884D01*
X636836D01*
Y-159170D01*
Y-159457D01*
X636549D01*
Y-159743D01*
Y-160029D01*
Y-160316D01*
X636263D01*
Y-160602D01*
Y-160888D01*
X635977D01*
Y-161175D01*
Y-161461D01*
Y-161747D01*
X635690D01*
Y-162034D01*
Y-162320D01*
X635404D01*
Y-162606D01*
Y-162892D01*
Y-163179D01*
X635118D01*
Y-163465D01*
Y-163751D01*
X634831D01*
Y-164038D01*
Y-164324D01*
Y-164610D01*
X634545D01*
Y-164897D01*
Y-165183D01*
X634259D01*
Y-165469D01*
Y-165756D01*
X633973D01*
Y-166042D01*
Y-166328D01*
X633686D01*
Y-166615D01*
Y-166901D01*
Y-167187D01*
X633400D01*
Y-167473D01*
X633114D01*
Y-167760D01*
Y-168046D01*
Y-168333D01*
X632827D01*
Y-168619D01*
X632541D01*
Y-168905D01*
Y-169191D01*
X632255D01*
Y-169478D01*
Y-169764D01*
X631968D01*
Y-170050D01*
Y-170337D01*
X631682D01*
Y-170623D01*
Y-170909D01*
X631396D01*
Y-171196D01*
X631109D01*
Y-171482D01*
Y-171768D01*
X630823D01*
Y-172055D01*
Y-172341D01*
X630537D01*
Y-172627D01*
X630251D01*
Y-172914D01*
X629964D01*
Y-173200D01*
Y-173486D01*
X629678D01*
Y-173772D01*
X629392D01*
Y-174059D01*
Y-174345D01*
X629105D01*
Y-174631D01*
X628819D01*
Y-174918D01*
X628533D01*
Y-175204D01*
Y-175490D01*
X628246D01*
Y-175777D01*
X627960D01*
Y-176063D01*
X627674D01*
Y-176349D01*
X627387D01*
Y-176636D01*
X627101D01*
Y-176922D01*
Y-177208D01*
X626815D01*
Y-177495D01*
X626528D01*
Y-177781D01*
X626242D01*
Y-178067D01*
X625956D01*
Y-178353D01*
X625669D01*
Y-178640D01*
X625383D01*
Y-178926D01*
X625097D01*
Y-179212D01*
X624524D01*
Y-179499D01*
X624238D01*
Y-179785D01*
X623952D01*
Y-180071D01*
X623665D01*
Y-180358D01*
X623379D01*
Y-180644D01*
X622806D01*
Y-180930D01*
X622520D01*
Y-181217D01*
X621947D01*
Y-181503D01*
X621661D01*
Y-181789D01*
X621089D01*
Y-182076D01*
X620802D01*
Y-182362D01*
X620229D01*
Y-182648D01*
X619657D01*
Y-182934D01*
X619084D01*
Y-183221D01*
X618512D01*
Y-183507D01*
X617939D01*
Y-183793D01*
X617080D01*
Y-184080D01*
X616507D01*
Y-184366D01*
X615649D01*
Y-184652D01*
X614503D01*
Y-184939D01*
X613358D01*
Y-185225D01*
X611640D01*
Y-185511D01*
X609636D01*
Y-185798D01*
X609350D01*
Y-185511D01*
Y-185225D01*
Y-184939D01*
Y-184652D01*
Y-184366D01*
Y-184080D01*
Y-183793D01*
Y-183507D01*
Y-183221D01*
Y-182934D01*
Y-182648D01*
Y-182362D01*
Y-182076D01*
Y-181789D01*
Y-181503D01*
Y-181217D01*
Y-180930D01*
Y-180644D01*
Y-180358D01*
Y-180071D01*
Y-179785D01*
Y-179499D01*
Y-179212D01*
Y-178926D01*
Y-178640D01*
Y-178353D01*
Y-178067D01*
Y-177781D01*
Y-177495D01*
Y-177208D01*
Y-176922D01*
Y-176636D01*
Y-176349D01*
X609922D01*
Y-176063D01*
X610495D01*
Y-175777D01*
X611067D01*
Y-175490D01*
X611640D01*
Y-175204D01*
X612213D01*
Y-174918D01*
X612785D01*
Y-174631D01*
X613072D01*
Y-174345D01*
X613644D01*
Y-174059D01*
X613931D01*
Y-173772D01*
X614503D01*
Y-173486D01*
X614790D01*
Y-173200D01*
X615076D01*
Y-172914D01*
X615649D01*
Y-172627D01*
X615935D01*
Y-172341D01*
X616221D01*
Y-172055D01*
X616507D01*
Y-171768D01*
X616794D01*
Y-171482D01*
X617080D01*
Y-171196D01*
X617366D01*
Y-170909D01*
X617653D01*
Y-170623D01*
X617939D01*
Y-170337D01*
X618225D01*
Y-170050D01*
X618512D01*
Y-169764D01*
X618798D01*
Y-169478D01*
Y-169191D01*
X619084D01*
Y-168905D01*
X619371D01*
Y-168619D01*
X619657D01*
Y-168333D01*
Y-168046D01*
X619943D01*
Y-167760D01*
X620229D01*
Y-167473D01*
Y-167187D01*
X620516D01*
Y-166901D01*
Y-166615D01*
X620802D01*
Y-166328D01*
X621089D01*
Y-166042D01*
Y-165756D01*
X621375D01*
Y-165469D01*
Y-165183D01*
X621661D01*
Y-164897D01*
Y-164610D01*
X619943D01*
Y-164324D01*
X617939D01*
Y-164038D01*
X616794D01*
Y-163751D01*
X616221D01*
Y-163465D01*
X615362D01*
Y-163179D01*
X614790D01*
Y-162892D01*
X614503D01*
Y-162606D01*
X613931D01*
Y-162320D01*
X613644D01*
Y-162034D01*
X613358D01*
Y-161747D01*
X613072D01*
Y-161461D01*
X612785D01*
Y-161175D01*
X612499D01*
Y-160888D01*
Y-160602D01*
X612213D01*
Y-160316D01*
X611927D01*
Y-160029D01*
Y-159743D01*
X611640D01*
Y-159457D01*
Y-159170D01*
X611354D01*
Y-158884D01*
Y-158598D01*
X611067D01*
Y-158311D01*
Y-158025D01*
Y-157739D01*
X610781D01*
Y-157453D01*
Y-157166D01*
Y-156880D01*
Y-156594D01*
X610495D01*
Y-156307D01*
Y-156021D01*
Y-155735D01*
Y-155448D01*
Y-155162D01*
Y-154876D01*
Y-154589D01*
X610209D01*
Y-154303D01*
Y-154017D01*
Y-153730D01*
Y-153444D01*
Y-153158D01*
Y-152872D01*
Y-152585D01*
Y-152299D01*
Y-152013D01*
Y-151726D01*
Y-151440D01*
Y-151154D01*
Y-150867D01*
Y-150581D01*
Y-150295D01*
X609922D01*
Y-150008D01*
Y-149722D01*
Y-149436D01*
Y-149150D01*
Y-148863D01*
Y-148577D01*
Y-148291D01*
Y-148004D01*
Y-147718D01*
Y-147432D01*
Y-147145D01*
Y-146859D01*
Y-146573D01*
Y-146286D01*
Y-146000D01*
X609636D01*
Y-145714D01*
Y-145427D01*
Y-145141D01*
Y-144855D01*
Y-144569D01*
Y-144282D01*
Y-143996D01*
Y-143710D01*
Y-143423D01*
Y-143137D01*
Y-142851D01*
Y-142564D01*
Y-142278D01*
Y-141992D01*
Y-141705D01*
Y-141419D01*
X609350D01*
Y-141133D01*
Y-140846D01*
Y-140560D01*
Y-140274D01*
Y-139988D01*
Y-139701D01*
Y-139415D01*
Y-139128D01*
Y-138842D01*
Y-138556D01*
Y-138270D01*
Y-137983D01*
Y-137697D01*
Y-137411D01*
Y-137124D01*
Y-136838D01*
X609063D01*
Y-136552D01*
Y-136265D01*
Y-135979D01*
Y-135693D01*
Y-135406D01*
Y-135120D01*
Y-134834D01*
Y-134547D01*
Y-134261D01*
Y-133975D01*
Y-133689D01*
Y-133402D01*
Y-133116D01*
Y-132830D01*
X608777D01*
Y-132543D01*
Y-132257D01*
Y-131971D01*
Y-131684D01*
Y-131398D01*
Y-131112D01*
Y-130825D01*
Y-130539D01*
Y-130253D01*
Y-129966D01*
Y-129680D01*
Y-129394D01*
Y-129108D01*
Y-128821D01*
Y-128535D01*
Y-128249D01*
X608491D01*
Y-127962D01*
X622234D01*
Y-128249D01*
Y-128535D01*
Y-128821D01*
Y-129108D01*
Y-129394D01*
Y-129680D01*
Y-129966D01*
Y-130253D01*
Y-130539D01*
Y-130825D01*
Y-131112D01*
Y-131398D01*
Y-131684D01*
Y-131971D01*
X622520D01*
Y-132257D01*
Y-132543D01*
Y-132830D01*
Y-133116D01*
Y-133402D01*
Y-133689D01*
Y-133975D01*
Y-134261D01*
Y-134547D01*
Y-134834D01*
Y-135120D01*
Y-135406D01*
Y-135693D01*
Y-135979D01*
Y-136265D01*
Y-136552D01*
Y-136838D01*
Y-137124D01*
Y-137411D01*
Y-137697D01*
Y-137983D01*
Y-138270D01*
Y-138556D01*
Y-138842D01*
Y-139128D01*
Y-139415D01*
Y-139701D01*
Y-139988D01*
Y-140274D01*
Y-140560D01*
Y-140846D01*
Y-141133D01*
Y-141419D01*
Y-141705D01*
Y-141992D01*
Y-142278D01*
Y-142564D01*
Y-142851D01*
Y-143137D01*
Y-143423D01*
Y-143710D01*
X622806D01*
Y-143996D01*
X622520D01*
Y-144282D01*
Y-144569D01*
X622806D01*
Y-144855D01*
Y-145141D01*
Y-145427D01*
Y-145714D01*
Y-146000D01*
Y-146286D01*
Y-146573D01*
Y-146859D01*
Y-147145D01*
Y-147432D01*
Y-147718D01*
Y-148004D01*
Y-148291D01*
Y-148577D01*
Y-148863D01*
Y-149150D01*
Y-149436D01*
Y-149722D01*
Y-150008D01*
Y-150295D01*
Y-150581D01*
Y-150867D01*
Y-151154D01*
Y-151440D01*
Y-151726D01*
Y-152013D01*
X623093D01*
Y-152299D01*
Y-152585D01*
Y-152872D01*
X623379D01*
Y-153158D01*
X623665D01*
Y-153444D01*
X623952D01*
Y-153730D01*
X624811D01*
Y-154017D01*
X625669D01*
Y-153730D01*
X625956D01*
Y-153444D01*
Y-153158D01*
Y-152872D01*
X626242D01*
Y-152585D01*
Y-152299D01*
X626528D01*
Y-152013D01*
Y-151726D01*
Y-151440D01*
X626815D01*
Y-151154D01*
Y-150867D01*
Y-150581D01*
X627101D01*
Y-150295D01*
Y-150008D01*
Y-149722D01*
X627387D01*
Y-149436D01*
Y-149150D01*
Y-148863D01*
X627674D01*
Y-148577D01*
Y-148291D01*
X627960D01*
Y-148004D01*
Y-147718D01*
Y-147432D01*
X628246D01*
Y-147145D01*
Y-146859D01*
Y-146573D01*
X628533D01*
Y-146286D01*
Y-146000D01*
Y-145714D01*
X628819D01*
Y-145427D01*
Y-145141D01*
X629105D01*
Y-144855D01*
Y-144569D01*
Y-144282D01*
X629392D01*
Y-143996D01*
Y-143710D01*
Y-143423D01*
X629678D01*
Y-143137D01*
Y-142851D01*
Y-142564D01*
X629964D01*
Y-142278D01*
Y-141992D01*
X630251D01*
Y-141705D01*
Y-141419D01*
Y-141133D01*
X630537D01*
Y-140846D01*
Y-140560D01*
Y-140274D01*
X630823D01*
Y-139988D01*
Y-139701D01*
Y-139415D01*
X631109D01*
Y-139128D01*
Y-138842D01*
X631396D01*
Y-138556D01*
Y-138270D01*
Y-137983D01*
X631682D01*
Y-137697D01*
Y-137411D01*
Y-137124D01*
X631968D01*
Y-136838D01*
Y-136552D01*
Y-136265D01*
X632255D01*
Y-135979D01*
Y-135693D01*
Y-135406D01*
Y-135120D01*
X632541D01*
Y-134834D01*
Y-134547D01*
Y-134261D01*
Y-133975D01*
X632827D01*
Y-133689D01*
Y-133402D01*
Y-133116D01*
Y-132830D01*
Y-132543D01*
X633114D01*
Y-132257D01*
Y-131971D01*
Y-131684D01*
Y-131398D01*
Y-131112D01*
Y-130825D01*
X633400D01*
Y-130539D01*
Y-130253D01*
Y-129966D01*
Y-129680D01*
Y-129394D01*
Y-129108D01*
Y-128821D01*
Y-128535D01*
Y-128249D01*
Y-127962D01*
X646284D01*
Y-128249D01*
D02*
G37*
G36*
X588449Y-110784D02*
Y-111070D01*
X588163D01*
Y-111356D01*
Y-111643D01*
Y-111929D01*
Y-112215D01*
Y-112501D01*
Y-112788D01*
X587876D01*
Y-113074D01*
Y-113360D01*
Y-113647D01*
Y-113933D01*
Y-114219D01*
Y-114506D01*
X587590D01*
Y-114792D01*
Y-115078D01*
Y-115365D01*
Y-115651D01*
Y-115937D01*
Y-116224D01*
Y-116510D01*
X587304D01*
Y-116796D01*
Y-117083D01*
Y-117369D01*
Y-117655D01*
Y-117941D01*
Y-118228D01*
X587017D01*
Y-118514D01*
Y-118800D01*
Y-119087D01*
Y-119373D01*
Y-119659D01*
Y-119946D01*
X586731D01*
Y-120232D01*
Y-120518D01*
Y-120805D01*
Y-121091D01*
Y-121377D01*
Y-121663D01*
Y-121950D01*
X586445D01*
Y-122236D01*
Y-122522D01*
Y-122809D01*
Y-123095D01*
Y-123381D01*
Y-123668D01*
X586158D01*
Y-123954D01*
Y-124240D01*
Y-124527D01*
Y-124813D01*
Y-125099D01*
Y-125385D01*
X585872D01*
Y-125672D01*
Y-125958D01*
Y-126244D01*
Y-126531D01*
Y-126817D01*
Y-127103D01*
X585586D01*
Y-127390D01*
Y-127676D01*
Y-127962D01*
Y-128249D01*
Y-128535D01*
Y-128821D01*
Y-129108D01*
X585299D01*
Y-129394D01*
Y-129680D01*
Y-129966D01*
Y-130253D01*
Y-130539D01*
Y-130825D01*
X585013D01*
Y-131112D01*
Y-131398D01*
X585586D01*
Y-131112D01*
X585872D01*
Y-130825D01*
X586158D01*
Y-130539D01*
X586731D01*
Y-130253D01*
X587017D01*
Y-129966D01*
X587304D01*
Y-129680D01*
X587876D01*
Y-129394D01*
X588449D01*
Y-129108D01*
X588735D01*
Y-128821D01*
X589308D01*
Y-128535D01*
X590167D01*
Y-128249D01*
X590739D01*
Y-127962D01*
X591598D01*
Y-127676D01*
X593030D01*
Y-127390D01*
X599329D01*
Y-127676D01*
X600474D01*
Y-127962D01*
X601333D01*
Y-128249D01*
X601905D01*
Y-128535D01*
X602192D01*
Y-128821D01*
X602765D01*
Y-129108D01*
X603051D01*
Y-129394D01*
X603337D01*
Y-129680D01*
X603623D01*
Y-129966D01*
X603910D01*
Y-130253D01*
Y-130539D01*
X604196D01*
Y-130825D01*
Y-131112D01*
X604482D01*
Y-131398D01*
Y-131684D01*
Y-131971D01*
X604769D01*
Y-132257D01*
Y-132543D01*
Y-132830D01*
Y-133116D01*
X605055D01*
Y-133402D01*
Y-133689D01*
Y-133975D01*
Y-134261D01*
Y-134547D01*
Y-134834D01*
Y-135120D01*
Y-135406D01*
Y-135693D01*
Y-135979D01*
Y-136265D01*
Y-136552D01*
Y-136838D01*
Y-137124D01*
Y-137411D01*
Y-137697D01*
Y-137983D01*
Y-138270D01*
X604769D01*
Y-138556D01*
Y-138842D01*
Y-139128D01*
Y-139415D01*
Y-139701D01*
Y-139988D01*
Y-140274D01*
X604482D01*
Y-140560D01*
Y-140846D01*
Y-141133D01*
Y-141419D01*
Y-141705D01*
Y-141992D01*
Y-142278D01*
X604196D01*
Y-142564D01*
Y-142851D01*
Y-143137D01*
Y-143423D01*
Y-143710D01*
Y-143996D01*
X603910D01*
Y-144282D01*
Y-144569D01*
Y-144855D01*
Y-145141D01*
Y-145427D01*
Y-145714D01*
X603623D01*
Y-146000D01*
Y-146286D01*
Y-146573D01*
Y-146859D01*
Y-147145D01*
Y-147432D01*
X603337D01*
Y-147718D01*
Y-148004D01*
Y-148291D01*
Y-148577D01*
Y-148863D01*
Y-149150D01*
Y-149436D01*
X603051D01*
Y-149722D01*
Y-150008D01*
Y-150295D01*
Y-150581D01*
Y-150867D01*
Y-151154D01*
X602765D01*
Y-151440D01*
Y-151726D01*
Y-152013D01*
Y-152299D01*
Y-152585D01*
Y-152872D01*
X602478D01*
Y-153158D01*
Y-153444D01*
Y-153730D01*
Y-154017D01*
Y-154303D01*
Y-154589D01*
Y-154876D01*
X602192D01*
Y-155162D01*
Y-155448D01*
Y-155735D01*
Y-156021D01*
Y-156307D01*
Y-156594D01*
X601905D01*
Y-156880D01*
Y-157166D01*
Y-157453D01*
Y-157739D01*
Y-158025D01*
Y-158311D01*
X601619D01*
Y-158598D01*
Y-158884D01*
Y-159170D01*
Y-159457D01*
Y-159743D01*
Y-160029D01*
X601333D01*
Y-160316D01*
Y-160602D01*
Y-160888D01*
Y-161175D01*
Y-161461D01*
Y-161747D01*
Y-162034D01*
X601047D01*
Y-162320D01*
Y-162606D01*
Y-162892D01*
Y-163179D01*
Y-163465D01*
Y-163751D01*
X600760D01*
Y-164038D01*
Y-164324D01*
X587590D01*
Y-164038D01*
Y-163751D01*
X587876D01*
Y-163465D01*
Y-163179D01*
Y-162892D01*
Y-162606D01*
Y-162320D01*
Y-162034D01*
X588163D01*
Y-161747D01*
Y-161461D01*
Y-161175D01*
Y-160888D01*
Y-160602D01*
Y-160316D01*
Y-160029D01*
X588449D01*
Y-159743D01*
Y-159457D01*
Y-159170D01*
Y-158884D01*
Y-158598D01*
Y-158311D01*
X588735D01*
Y-158025D01*
Y-157739D01*
Y-157453D01*
Y-157166D01*
Y-156880D01*
Y-156594D01*
X589021D01*
Y-156307D01*
Y-156021D01*
Y-155735D01*
Y-155448D01*
Y-155162D01*
Y-154876D01*
Y-154589D01*
X589308D01*
Y-154303D01*
Y-154017D01*
Y-153730D01*
Y-153444D01*
Y-153158D01*
Y-152872D01*
X589594D01*
Y-152585D01*
Y-152299D01*
Y-152013D01*
Y-151726D01*
Y-151440D01*
Y-151154D01*
Y-150867D01*
X589880D01*
Y-150581D01*
Y-150295D01*
Y-150008D01*
Y-149722D01*
Y-149436D01*
Y-149150D01*
X590167D01*
Y-148863D01*
Y-148577D01*
Y-148291D01*
Y-148004D01*
Y-147718D01*
Y-147432D01*
X590453D01*
Y-147145D01*
Y-146859D01*
Y-146573D01*
Y-146286D01*
Y-146000D01*
Y-145714D01*
X590739D01*
Y-145427D01*
Y-145141D01*
Y-144855D01*
Y-144569D01*
Y-144282D01*
Y-143996D01*
Y-143710D01*
X591026D01*
Y-143423D01*
Y-143137D01*
Y-142851D01*
Y-142564D01*
Y-142278D01*
Y-141992D01*
X591312D01*
Y-141705D01*
Y-141419D01*
Y-141133D01*
Y-140846D01*
Y-140560D01*
Y-140274D01*
Y-139988D01*
X591598D01*
Y-139701D01*
Y-139415D01*
Y-139128D01*
Y-138842D01*
Y-138556D01*
Y-138270D01*
X591312D01*
Y-137983D01*
Y-137697D01*
X591026D01*
Y-137411D01*
X590739D01*
Y-137124D01*
X590167D01*
Y-136838D01*
X588449D01*
Y-137124D01*
X587017D01*
Y-137411D01*
X586158D01*
Y-137697D01*
X585586D01*
Y-137983D01*
X585299D01*
Y-138270D01*
X584727D01*
Y-138556D01*
X584440D01*
Y-138842D01*
X584154D01*
Y-139128D01*
Y-139415D01*
X583868D01*
Y-139701D01*
Y-139988D01*
Y-140274D01*
X583581D01*
Y-140560D01*
Y-140846D01*
Y-141133D01*
Y-141419D01*
Y-141705D01*
Y-141992D01*
X583295D01*
Y-142278D01*
Y-142564D01*
Y-142851D01*
Y-143137D01*
Y-143423D01*
Y-143710D01*
Y-143996D01*
X583009D01*
Y-144282D01*
Y-144569D01*
Y-144855D01*
Y-145141D01*
Y-145427D01*
Y-145714D01*
X582723D01*
Y-146000D01*
Y-146286D01*
Y-146573D01*
Y-146859D01*
Y-147145D01*
Y-147432D01*
X582436D01*
Y-147718D01*
Y-148004D01*
Y-148291D01*
Y-148577D01*
Y-148863D01*
Y-149150D01*
X582150D01*
Y-149436D01*
Y-149722D01*
Y-150008D01*
Y-150295D01*
Y-150581D01*
Y-150867D01*
Y-151154D01*
X581864D01*
Y-151440D01*
Y-151726D01*
Y-152013D01*
Y-152299D01*
Y-152585D01*
Y-152872D01*
X581577D01*
Y-153158D01*
Y-153444D01*
Y-153730D01*
Y-154017D01*
Y-154303D01*
Y-154589D01*
X581291D01*
Y-154876D01*
Y-155162D01*
Y-155448D01*
Y-155735D01*
Y-156021D01*
Y-156307D01*
Y-156594D01*
X581005D01*
Y-156880D01*
Y-157166D01*
Y-157453D01*
Y-157739D01*
Y-158025D01*
Y-158311D01*
X580718D01*
Y-158598D01*
Y-158884D01*
Y-159170D01*
Y-159457D01*
Y-159743D01*
Y-160029D01*
X580432D01*
Y-160316D01*
Y-160602D01*
Y-160888D01*
Y-161175D01*
Y-161461D01*
Y-161747D01*
X580146D01*
Y-162034D01*
Y-162320D01*
Y-162606D01*
Y-162892D01*
Y-163179D01*
Y-163465D01*
Y-163751D01*
X579859D01*
Y-164038D01*
Y-164324D01*
X566689D01*
Y-164038D01*
Y-163751D01*
X566975D01*
Y-163465D01*
Y-163179D01*
Y-162892D01*
Y-162606D01*
Y-162320D01*
Y-162034D01*
Y-161747D01*
X567262D01*
Y-161461D01*
Y-161175D01*
Y-160888D01*
Y-160602D01*
Y-160316D01*
Y-160029D01*
X567548D01*
Y-159743D01*
Y-159457D01*
Y-159170D01*
Y-158884D01*
Y-158598D01*
Y-158311D01*
X567834D01*
Y-158025D01*
Y-157739D01*
Y-157453D01*
Y-157166D01*
Y-156880D01*
Y-156594D01*
Y-156307D01*
X568121D01*
Y-156021D01*
Y-155735D01*
Y-155448D01*
Y-155162D01*
Y-154876D01*
Y-154589D01*
X568407D01*
Y-154303D01*
Y-154017D01*
Y-153730D01*
Y-153444D01*
Y-153158D01*
Y-152872D01*
X568693D01*
Y-152585D01*
Y-152299D01*
Y-152013D01*
Y-151726D01*
Y-151440D01*
Y-151154D01*
X568980D01*
Y-150867D01*
Y-150581D01*
Y-150295D01*
Y-150008D01*
Y-149722D01*
Y-149436D01*
Y-149150D01*
X569266D01*
Y-148863D01*
Y-148577D01*
Y-148291D01*
Y-148004D01*
Y-147718D01*
Y-147432D01*
X569552D01*
Y-147145D01*
Y-146859D01*
Y-146573D01*
Y-146286D01*
Y-146000D01*
Y-145714D01*
X569838D01*
Y-145427D01*
Y-145141D01*
Y-144855D01*
Y-144569D01*
Y-144282D01*
Y-143996D01*
Y-143710D01*
X570125D01*
Y-143423D01*
Y-143137D01*
Y-142851D01*
Y-142564D01*
Y-142278D01*
Y-141992D01*
X570411D01*
Y-141705D01*
Y-141419D01*
Y-141133D01*
Y-140846D01*
Y-140560D01*
Y-140274D01*
X570697D01*
Y-139988D01*
Y-139701D01*
Y-139415D01*
Y-139128D01*
Y-138842D01*
Y-138556D01*
X570984D01*
Y-138270D01*
Y-137983D01*
Y-137697D01*
Y-137411D01*
Y-137124D01*
Y-136838D01*
Y-136552D01*
X571270D01*
Y-136265D01*
Y-135979D01*
Y-135693D01*
Y-135406D01*
Y-135120D01*
Y-134834D01*
X571556D01*
Y-134547D01*
Y-134261D01*
Y-133975D01*
Y-133689D01*
Y-133402D01*
Y-133116D01*
X571843D01*
Y-132830D01*
Y-132543D01*
Y-132257D01*
Y-131971D01*
Y-131684D01*
Y-131398D01*
X572129D01*
Y-131112D01*
Y-130825D01*
Y-130539D01*
Y-130253D01*
Y-129966D01*
Y-129680D01*
Y-129394D01*
X572415D01*
Y-129108D01*
Y-128821D01*
Y-128535D01*
Y-128249D01*
Y-127962D01*
Y-127676D01*
X572702D01*
Y-127390D01*
Y-127103D01*
Y-126817D01*
Y-126531D01*
Y-126244D01*
Y-125958D01*
X572988D01*
Y-125672D01*
Y-125385D01*
Y-125099D01*
Y-124813D01*
Y-124527D01*
Y-124240D01*
Y-123954D01*
X573274D01*
Y-123668D01*
Y-123381D01*
Y-123095D01*
Y-122809D01*
Y-122522D01*
Y-122236D01*
X573560D01*
Y-121950D01*
Y-121663D01*
Y-121377D01*
Y-121091D01*
Y-120805D01*
Y-120518D01*
X573847D01*
Y-120232D01*
Y-119946D01*
Y-119659D01*
Y-119373D01*
Y-119087D01*
Y-118800D01*
X574133D01*
Y-118514D01*
Y-118228D01*
Y-117941D01*
Y-117655D01*
Y-117369D01*
Y-117083D01*
Y-116796D01*
X574419D01*
Y-116510D01*
Y-116224D01*
Y-115937D01*
Y-115651D01*
Y-115365D01*
Y-115078D01*
X574706D01*
Y-114792D01*
Y-114506D01*
Y-114219D01*
Y-113933D01*
Y-113647D01*
Y-113360D01*
X574992D01*
Y-113074D01*
Y-112788D01*
Y-112501D01*
Y-112215D01*
Y-111929D01*
Y-111643D01*
Y-111356D01*
X575278D01*
Y-111070D01*
Y-110784D01*
Y-110497D01*
X588449D01*
Y-110784D01*
D02*
G37*
%LPC*%
G36*
X178117Y376428D02*
X175954Y376257D01*
X173845Y375751D01*
X171841Y374921D01*
X169992Y373788D01*
X168343Y372379D01*
X166934Y370730D01*
X165801Y368881D01*
X164971Y366877D01*
X164465Y364768D01*
X164294Y362606D01*
X164465Y360443D01*
X164971Y358334D01*
X165801Y356330D01*
X166934Y354481D01*
X168343Y352832D01*
X169992Y351423D01*
X171841Y350290D01*
X173845Y349460D01*
X175954Y348954D01*
X178117Y348783D01*
X180279Y348954D01*
X182388Y349460D01*
X184392Y350290D01*
X186241Y351423D01*
X187890Y352832D01*
X189299Y354481D01*
X190432Y356330D01*
X191262Y358334D01*
X191769Y360443D01*
X191939Y362606D01*
X191769Y364768D01*
X191262Y366877D01*
X190432Y368881D01*
X189299Y370730D01*
X187890Y372379D01*
X186241Y373788D01*
X184392Y374921D01*
X182388Y375751D01*
X180279Y376257D01*
X178117Y376428D01*
D02*
G37*
G36*
X-178109Y376428D02*
X-180271Y376257D01*
X-182380Y375751D01*
X-184384Y374921D01*
X-186234Y373788D01*
X-187883Y372379D01*
X-189292Y370730D01*
X-190425Y368881D01*
X-191255Y366877D01*
X-191761Y364768D01*
X-191931Y362606D01*
X-191761Y360443D01*
X-191255Y358334D01*
X-190425Y356330D01*
X-189292Y354481D01*
X-187883Y352832D01*
X-186234Y351423D01*
X-184384Y350290D01*
X-182380Y349460D01*
X-180271Y348954D01*
X-178109Y348783D01*
X-175947Y348954D01*
X-173838Y349460D01*
X-171834Y350290D01*
X-169985Y351423D01*
X-168335Y352832D01*
X-166927Y354481D01*
X-165794Y356330D01*
X-164964Y358334D01*
X-164457Y360443D01*
X-164287Y362606D01*
X-164457Y364768D01*
X-164964Y366877D01*
X-165794Y368881D01*
X-166927Y370730D01*
X-168335Y372379D01*
X-169985Y373788D01*
X-171834Y374921D01*
X-173838Y375751D01*
X-175947Y376257D01*
X-178109Y376428D01*
D02*
G37*
G36*
X196417Y332419D02*
X195634D01*
X194911Y332119D01*
X194357Y331566D01*
X194057Y330842D01*
Y330059D01*
X194357Y329336D01*
X194911Y328782D01*
X195634Y328482D01*
X196417D01*
X197141Y328782D01*
X197695Y329336D01*
X197994Y330059D01*
Y330842D01*
X197695Y331566D01*
X197141Y332119D01*
X196417Y332419D01*
D02*
G37*
G36*
X-188458Y332835D02*
X-189495D01*
X-190496Y332566D01*
X-191394Y332048D01*
X-192127Y331315D01*
X-192645Y330417D01*
X-192913Y329416D01*
Y328379D01*
X-192645Y327378D01*
X-192127Y326480D01*
X-191394Y325747D01*
X-190496Y325229D01*
X-189495Y324961D01*
X-188458D01*
X-187457Y325229D01*
X-186559Y325747D01*
X-185826Y326480D01*
X-185308Y327378D01*
X-185039Y328379D01*
Y329416D01*
X-185308Y330417D01*
X-185826Y331315D01*
X-186559Y332048D01*
X-187457Y332566D01*
X-188458Y332835D01*
D02*
G37*
G36*
X-198458D02*
X-199495D01*
X-200496Y332566D01*
X-201394Y332048D01*
X-202127Y331315D01*
X-202645Y330417D01*
X-202913Y329416D01*
Y328379D01*
X-202645Y327378D01*
X-202127Y326480D01*
X-201394Y325747D01*
X-200496Y325229D01*
X-199495Y324961D01*
X-198458D01*
X-197457Y325229D01*
X-196559Y325747D01*
X-195826Y326480D01*
X-195308Y327378D01*
X-195039Y328379D01*
Y329416D01*
X-195308Y330417D01*
X-195826Y331315D01*
X-196559Y332048D01*
X-197457Y332566D01*
X-198458Y332835D01*
D02*
G37*
G36*
X-188458Y322835D02*
X-189495D01*
X-190496Y322566D01*
X-191394Y322048D01*
X-192127Y321315D01*
X-192645Y320417D01*
X-192913Y319416D01*
Y318379D01*
X-192645Y317378D01*
X-192127Y316480D01*
X-191394Y315747D01*
X-190496Y315229D01*
X-189495Y314961D01*
X-188458D01*
X-187457Y315229D01*
X-186559Y315747D01*
X-185826Y316480D01*
X-185308Y317378D01*
X-185039Y318379D01*
Y319416D01*
X-185308Y320417D01*
X-185826Y321315D01*
X-186559Y322048D01*
X-187457Y322566D01*
X-188458Y322835D01*
D02*
G37*
G36*
X-198458D02*
X-199495D01*
X-200496Y322566D01*
X-201394Y322048D01*
X-202127Y321315D01*
X-202645Y320417D01*
X-202913Y319416D01*
Y318379D01*
X-202645Y317378D01*
X-202127Y316480D01*
X-201394Y315747D01*
X-200496Y315229D01*
X-199495Y314961D01*
X-198458D01*
X-197457Y315229D01*
X-196559Y315747D01*
X-195826Y316480D01*
X-195308Y317378D01*
X-195039Y318379D01*
Y319416D01*
X-195308Y320417D01*
X-195826Y321315D01*
X-196559Y322048D01*
X-197457Y322566D01*
X-198458Y322835D01*
D02*
G37*
G36*
X-188456Y312850D02*
X-188476D01*
Y309398D01*
X-185024D01*
Y309418D01*
X-185293Y310423D01*
X-185813Y311325D01*
X-186549Y312061D01*
X-187451Y312581D01*
X-188456Y312850D01*
D02*
G37*
G36*
X-189476D02*
X-189497D01*
X-190502Y312581D01*
X-191403Y312061D01*
X-192139Y311325D01*
X-192660Y310423D01*
X-192929Y309418D01*
Y309398D01*
X-189476D01*
Y312850D01*
D02*
G37*
G36*
X-129710Y319730D02*
X-130571D01*
X-131367Y319401D01*
X-131976Y318792D01*
X-132306Y317996D01*
Y317134D01*
X-131976Y316338D01*
X-131445Y315807D01*
Y311191D01*
X-131440Y311168D01*
X-131567Y310205D01*
X-131948Y309285D01*
X-132539Y308514D01*
X-132559Y308501D01*
X-133285Y307776D01*
X-134036D01*
X-134832Y307446D01*
X-135441Y306837D01*
X-135770Y306041D01*
Y305180D01*
X-135441Y304384D01*
X-134832Y303775D01*
X-134036Y303445D01*
X-133175D01*
X-132379Y303775D01*
X-131770Y304384D01*
X-131440Y305180D01*
Y305931D01*
X-130714Y306656D01*
X-130710Y306652D01*
X-129912Y307625D01*
X-129318Y308735D01*
X-128953Y309939D01*
X-128830Y311191D01*
X-128836D01*
Y315807D01*
X-128305Y316338D01*
X-127975Y317134D01*
Y317996D01*
X-128305Y318792D01*
X-128914Y319401D01*
X-129710Y319730D01*
D02*
G37*
G36*
X-195039Y312835D02*
X-202913D01*
Y304961D01*
X-195039D01*
Y312835D01*
D02*
G37*
G36*
X-185024Y308398D02*
X-188476D01*
Y304945D01*
X-188456D01*
X-187451Y305214D01*
X-186549Y305735D01*
X-185813Y306471D01*
X-185293Y307372D01*
X-185024Y308377D01*
Y308398D01*
D02*
G37*
G36*
X-189476D02*
X-192929D01*
Y308377D01*
X-192660Y307372D01*
X-192139Y306471D01*
X-191403Y305735D01*
X-190502Y305214D01*
X-189497Y304945D01*
X-189476D01*
Y308398D01*
D02*
G37*
G36*
X99916Y312556D02*
X93992Y306631D01*
X92691Y306237D01*
X91143Y305409D01*
X89786Y304295D01*
X89798Y304283D01*
X89150Y303635D01*
X88399D01*
X87603Y303305D01*
X86994Y302696D01*
X86664Y301900D01*
Y301039D01*
X86994Y300243D01*
X87603Y299634D01*
X88399Y299304D01*
X89261D01*
X90056Y299634D01*
X90666Y300243D01*
X90995Y301039D01*
Y301790D01*
X91643Y302438D01*
X91654Y302454D01*
X92599Y303229D01*
X93694Y303815D01*
X94495Y304057D01*
X99916Y298636D01*
X106876Y305596D01*
X99916Y312556D01*
D02*
G37*
G36*
X196417Y301002D02*
X195634D01*
X194911Y300702D01*
X194357Y300149D01*
X194057Y299425D01*
Y298642D01*
X194357Y297918D01*
X194911Y297365D01*
X195634Y297065D01*
X196417D01*
X197141Y297365D01*
X197695Y297918D01*
X197994Y298642D01*
Y299425D01*
X197695Y300149D01*
X197141Y300702D01*
X196417Y301002D01*
D02*
G37*
G36*
X-99916Y295874D02*
X-103053Y292737D01*
X-99916Y289599D01*
X-96779Y292737D01*
X-99916Y295874D01*
D02*
G37*
G36*
X116619D02*
X113482Y292737D01*
X116619Y289599D01*
X119757Y292737D01*
X116619Y295874D01*
D02*
G37*
G36*
X120464Y292030D02*
X117326Y288892D01*
X120464Y285755D01*
X123601Y288892D01*
X120464Y292030D01*
D02*
G37*
G36*
X-96071Y292030D02*
X-99209Y288892D01*
X-96071Y285755D01*
X-92934Y288892D01*
X-96071Y292030D01*
D02*
G37*
G36*
X-103761D02*
X-106898Y288892D01*
X-103761Y285755D01*
X-100623Y288892D01*
X-103761Y292030D01*
D02*
G37*
G36*
X112775Y292030D02*
X109637Y288892D01*
X112775Y285755D01*
X115912Y288892D01*
X112775Y292030D01*
D02*
G37*
G36*
X-54961Y290040D02*
X-55822D01*
X-56618Y289711D01*
X-57227Y289101D01*
X-57557Y288306D01*
Y287444D01*
X-57227Y286648D01*
X-57120Y286541D01*
X-57446Y285753D01*
X-60250D01*
X-60781Y286284D01*
X-61577Y286614D01*
X-62439D01*
X-63234Y286284D01*
X-63844Y285675D01*
X-64173Y284879D01*
Y284018D01*
X-63844Y283222D01*
X-63234Y282613D01*
X-62439Y282283D01*
X-62203Y281931D01*
X-62205Y281927D01*
Y281065D01*
X-62840Y280542D01*
X-63234Y280379D01*
X-63844Y279770D01*
X-64173Y278974D01*
Y278113D01*
X-63844Y277317D01*
X-63234Y276708D01*
X-62439Y276378D01*
X-62203Y276025D01*
X-62205Y276021D01*
Y275160D01*
X-62840Y274637D01*
X-63234Y274474D01*
X-63844Y273864D01*
X-64173Y273068D01*
Y272292D01*
X-65098Y271209D01*
X-66026Y269695D01*
X-66706Y268055D01*
X-67120Y266329D01*
X-67259Y264559D01*
X-67250D01*
Y252174D01*
X-67259D01*
X-67120Y250404D01*
X-66706Y248678D01*
X-66026Y247037D01*
X-65098Y245524D01*
X-64173Y244440D01*
Y243664D01*
X-63844Y242868D01*
X-63234Y242259D01*
X-62439Y241930D01*
X-61577D01*
X-60781Y242259D01*
X-60172Y242868D01*
X-59842Y243664D01*
Y244526D01*
X-60172Y245321D01*
X-60781Y245931D01*
X-61577Y246260D01*
X-62308D01*
X-63189Y247334D01*
X-63994Y248840D01*
X-64490Y250474D01*
X-64652Y252117D01*
X-64640Y252174D01*
Y264559D01*
X-64652Y264616D01*
X-64589Y265249D01*
X-64110Y265414D01*
X-63779Y265441D01*
X-63234Y264897D01*
X-62439Y264567D01*
X-61577D01*
X-60781Y264897D01*
X-60250Y265428D01*
X-30987D01*
X-30857Y264640D01*
X-33073Y263888D01*
X-35732Y262577D01*
X-38196Y260930D01*
X-40424Y258976D01*
X-40411Y258962D01*
X-60003Y239370D01*
X-60470D01*
X-61266Y239040D01*
X-61875Y238431D01*
X-62205Y237635D01*
Y236774D01*
X-61875Y235978D01*
X-61266Y235369D01*
X-60786Y235170D01*
Y234318D01*
X-61266Y234119D01*
X-61875Y233510D01*
X-62205Y232714D01*
Y231853D01*
X-61875Y231057D01*
X-61266Y230448D01*
X-60470Y230118D01*
X-59609D01*
X-58813Y230448D01*
X-58204Y231057D01*
X-57874Y231853D01*
Y232604D01*
X-33646Y256832D01*
X-33640Y256841D01*
X-32765Y257559D01*
X-31758Y258098D01*
X-30664Y258429D01*
X-29538Y258540D01*
X-29528Y258538D01*
X-13000D01*
Y258528D01*
X-11231Y258667D01*
X-9504Y259082D01*
X-7864Y259761D01*
X-6350Y260689D01*
X-5000Y261842D01*
X-5007Y261849D01*
X8820Y275676D01*
X8853Y275725D01*
X10129Y276772D01*
X11635Y277577D01*
X13269Y278073D01*
X14912Y278234D01*
X14969Y278223D01*
X24132D01*
X24588Y277436D01*
X24409Y277006D01*
Y276144D01*
X24739Y275348D01*
X25348Y274739D01*
X26144Y274410D01*
X27005D01*
X27801Y274739D01*
X28332Y275270D01*
X46429D01*
X46494Y275283D01*
X47836Y275107D01*
X49148Y274563D01*
X49692Y274146D01*
X50275Y273653D01*
X50275Y273653D01*
X51626Y272500D01*
X53139Y271572D01*
X54780Y270893D01*
X56506Y270478D01*
X57225Y270422D01*
X57828Y269818D01*
X58624Y269488D01*
X59486D01*
X60282Y269818D01*
X60891Y270427D01*
X61221Y271223D01*
Y272084D01*
X60891Y272880D01*
X60282Y273489D01*
X59486Y273819D01*
X58624D01*
X57828Y273489D01*
X57370Y273030D01*
X56576Y273109D01*
X54942Y273604D01*
X53436Y274409D01*
X52687Y275024D01*
X52113Y275538D01*
X52113Y275538D01*
X50895Y276538D01*
X49505Y277281D01*
X48996Y277436D01*
X49113Y278223D01*
X63203D01*
X63734Y277692D01*
X64530Y277362D01*
X65391D01*
X66187Y277692D01*
X66796Y278301D01*
X67126Y279097D01*
Y279316D01*
X67913Y279642D01*
X83636Y263919D01*
X83794Y263537D01*
X84403Y262928D01*
X85199Y262598D01*
X86061D01*
X86857Y262928D01*
X87466Y263537D01*
X87795Y264333D01*
Y265195D01*
X87466Y265990D01*
X86857Y266599D01*
X86474Y266758D01*
X66867Y286365D01*
X66856Y286372D01*
X65433Y287587D01*
X63827Y288572D01*
X62087Y289293D01*
X60255Y289733D01*
X58390Y289879D01*
X58377Y289882D01*
X-54579D01*
X-54961Y290040D01*
D02*
G37*
G36*
X116619Y288185D02*
X113482Y285048D01*
X116619Y281910D01*
X119757Y285048D01*
X116619Y288185D01*
D02*
G37*
G36*
X-99916D02*
X-103053Y285048D01*
X-99916Y281910D01*
X-96779Y285048D01*
X-99916Y288185D01*
D02*
G37*
G36*
X-116619Y312556D02*
X-123579Y305596D01*
X-117924Y299941D01*
Y281088D01*
X-117929D01*
X-117808Y279859D01*
X-117450Y278677D01*
X-117218Y278243D01*
X-117323Y277990D01*
Y277128D01*
X-116993Y276332D01*
X-116384Y275723D01*
X-115588Y275394D01*
X-114727D01*
X-113931Y275723D01*
X-113322Y276332D01*
X-112992Y277128D01*
Y277990D01*
X-113322Y278786D01*
X-113931Y279395D01*
X-114727Y279724D01*
X-115027D01*
X-115196Y280133D01*
X-115319Y281068D01*
X-115315Y281088D01*
Y299941D01*
X-109660Y305596D01*
X-116619Y312556D01*
D02*
G37*
G36*
X-178936Y279453D02*
X-180010Y279254D01*
X-180997Y278784D01*
X-181733Y278306D01*
X-179726Y275215D01*
X-175534Y277937D01*
X-175917Y278384D01*
X-176817Y279003D01*
X-177847Y279368D01*
X-178936Y279453D01*
D02*
G37*
G36*
X-188546Y289567D02*
X-189407D01*
X-190203Y289237D01*
X-190812Y288628D01*
X-191142Y287832D01*
Y286971D01*
X-190983Y286589D01*
Y277978D01*
X-191142Y277596D01*
Y276735D01*
X-190812Y275939D01*
X-190203Y275330D01*
X-189407Y275000D01*
X-188546D01*
X-187750Y275330D01*
X-187141Y275939D01*
X-186811Y276735D01*
Y277596D01*
X-186969Y277978D01*
Y286589D01*
X-186811Y286971D01*
Y287832D01*
X-187141Y288628D01*
X-187750Y289237D01*
X-188546Y289567D01*
D02*
G37*
G36*
X-182572Y277761D02*
X-183308Y277283D01*
X-184139Y276573D01*
X-184758Y275673D01*
X-185122Y274643D01*
X-185208Y273554D01*
X-185009Y272479D01*
X-184756Y271948D01*
X-180564Y274670D01*
X-182572Y277761D01*
D02*
G37*
G36*
X-174990Y277098D02*
X-179181Y274376D01*
X-177174Y271285D01*
X-176437Y271763D01*
X-175607Y272473D01*
X-174988Y273374D01*
X-174623Y274404D01*
X-174537Y275493D01*
X-174736Y276567D01*
X-174990Y277098D01*
D02*
G37*
G36*
X-180020Y273832D02*
X-184211Y271110D01*
X-183829Y270662D01*
X-182929Y270043D01*
X-181899Y269679D01*
X-180809Y269593D01*
X-179735Y269792D01*
X-178749Y270263D01*
X-178013Y270741D01*
X-180020Y273832D01*
D02*
G37*
G36*
X-173575Y271199D02*
X-174650Y271000D01*
X-175636Y270529D01*
X-176372Y270051D01*
X-174365Y266960D01*
X-170174Y269682D01*
X-170556Y270129D01*
X-171456Y270748D01*
X-172486Y271113D01*
X-173575Y271199D01*
D02*
G37*
G36*
X29565Y269882D02*
X28703D01*
X27907Y269552D01*
X27298Y268943D01*
X26969Y268147D01*
Y267286D01*
X27298Y266490D01*
X27907Y265881D01*
X28703Y265551D01*
X29565D01*
X30360Y265881D01*
X30859Y266380D01*
X43124D01*
X43655Y265848D01*
X44451Y265519D01*
X45313D01*
X46108Y265848D01*
X46718Y266458D01*
X47047Y267253D01*
Y268115D01*
X46718Y268911D01*
X46108Y269520D01*
X45313Y269849D01*
X44451D01*
X43655Y269520D01*
X43124Y268989D01*
X30924D01*
X30360Y269552D01*
X29565Y269882D01*
D02*
G37*
G36*
X-177211Y269506D02*
X-177947Y269028D01*
X-178778Y268319D01*
X-179397Y267418D01*
X-179762Y266388D01*
X-179847Y265299D01*
X-179648Y264225D01*
X-179395Y263694D01*
X-175204Y266416D01*
X-177211Y269506D01*
D02*
G37*
G36*
X-169629Y268843D02*
X-173820Y266122D01*
X-171813Y263031D01*
X-171077Y263509D01*
X-170246Y264218D01*
X-169627Y265119D01*
X-169263Y266149D01*
X-169177Y267238D01*
X-169376Y268312D01*
X-169629Y268843D01*
D02*
G37*
G36*
X-196350Y266210D02*
X-197274Y266039D01*
X-198063Y265527D01*
X-198595Y264753D01*
X-198790Y263833D01*
X-198619Y262909D01*
X-198107Y262121D01*
X-197333Y261589D01*
X-196414Y261394D01*
X-195490Y261565D01*
X-194701Y262077D01*
X-194169Y262851D01*
X-193974Y263770D01*
X-194145Y264694D01*
X-194657Y265482D01*
X-195431Y266015D01*
X-196350Y266210D01*
D02*
G37*
G36*
X-174659Y265577D02*
X-178850Y262855D01*
X-178468Y262408D01*
X-177568Y261789D01*
X-176538Y261424D01*
X-175449Y261338D01*
X-174374Y261538D01*
X-173388Y262008D01*
X-172652Y262486D01*
X-174659Y265577D01*
D02*
G37*
G36*
X188854Y261356D02*
X188363Y261224D01*
X187959Y260915D01*
X187704Y260474D01*
X187638Y259969D01*
X187769Y259477D01*
X188079Y259073D01*
X188520Y258819D01*
X189025Y258753D01*
X189516Y258884D01*
X189920Y259194D01*
X190175Y259635D01*
X190241Y260140D01*
X190110Y260631D01*
X189800Y261035D01*
X189359Y261290D01*
X188854Y261356D01*
D02*
G37*
G36*
X-204605Y260850D02*
X-205529Y260678D01*
X-206317Y260167D01*
X-206850Y259392D01*
X-207045Y258473D01*
X-206874Y257549D01*
X-206362Y256761D01*
X-205587Y256228D01*
X-204668Y256033D01*
X-203744Y256204D01*
X-202956Y256716D01*
X-202424Y257491D01*
X-202228Y258410D01*
X-202400Y259334D01*
X-202911Y260122D01*
X-203686Y260654D01*
X-204605Y260850D01*
D02*
G37*
G36*
X-169120Y260422D02*
X-170044Y260251D01*
X-170832Y259739D01*
X-171364Y258965D01*
X-171560Y258045D01*
X-171388Y257121D01*
X-170877Y256333D01*
X-170102Y255801D01*
X-169183Y255606D01*
X-168259Y255777D01*
X-167471Y256289D01*
X-166939Y257063D01*
X-166743Y257982D01*
X-166914Y258906D01*
X-167426Y259695D01*
X-168201Y260227D01*
X-169120Y260422D01*
D02*
G37*
G36*
X-162853Y254674D02*
X-163924Y254475D01*
X-164906Y254007D01*
X-167217Y252506D01*
X-168045Y251799D01*
X-168661Y250902D01*
X-169025Y249876D01*
X-169110Y248791D01*
X-168912Y247720D01*
X-168443Y246738D01*
X-167736Y245910D01*
X-166839Y245294D01*
X-165813Y244930D01*
X-164728Y244845D01*
X-163658Y245043D01*
X-162676Y245512D01*
X-160364Y247013D01*
X-159537Y247720D01*
X-158920Y248617D01*
X-158557Y249643D01*
X-158471Y250728D01*
X-158670Y251798D01*
X-159138Y252781D01*
X-159845Y253608D01*
X-160742Y254225D01*
X-161768Y254588D01*
X-162853Y254674D01*
D02*
G37*
G36*
X52596Y243496D02*
X51735D01*
X50939Y243166D01*
X50408Y242635D01*
X32768D01*
Y242652D01*
X31073Y242485D01*
X29443Y241991D01*
X28121Y241284D01*
X27990Y241339D01*
X27128D01*
X26333Y241009D01*
X25723Y240400D01*
X25394Y239604D01*
Y238742D01*
X25723Y237947D01*
X26333Y237337D01*
X27128Y237008D01*
X27990D01*
X28786Y237337D01*
X29395Y237947D01*
X29724Y238742D01*
Y239183D01*
X30446Y239569D01*
X31585Y239914D01*
X32754Y240029D01*
X32768Y240026D01*
X50408D01*
X50939Y239495D01*
X51735Y239165D01*
X52596D01*
X53392Y239495D01*
X54001Y240104D01*
X54331Y240900D01*
Y241761D01*
X54001Y242557D01*
X53392Y243166D01*
X52596Y243496D01*
D02*
G37*
G36*
X-186629Y252612D02*
X-187700Y252414D01*
X-188682Y251945D01*
X-189510Y251238D01*
X-190126Y250341D01*
X-190490Y249315D01*
X-190575Y248230D01*
X-190377Y247160D01*
X-189908Y246177D01*
X-188407Y243866D01*
X-187700Y243039D01*
X-186803Y242422D01*
X-185777Y242059D01*
X-184692Y241973D01*
X-183622Y242172D01*
X-182639Y242640D01*
X-181812Y243347D01*
X-181195Y244244D01*
X-180832Y245270D01*
X-180746Y246355D01*
X-180945Y247426D01*
X-181413Y248408D01*
X-182914Y250719D01*
X-183621Y251547D01*
X-184518Y252163D01*
X-185544Y252527D01*
X-186629Y252612D01*
D02*
G37*
G36*
X163973Y250575D02*
X163112D01*
X162316Y250245D01*
X161707Y249636D01*
X161377Y248840D01*
Y247979D01*
X161707Y247183D01*
X162316Y246574D01*
X163112Y246244D01*
X163973D01*
X164769Y246574D01*
X165300Y247105D01*
X171464D01*
X171522Y247116D01*
X173164Y246954D01*
X174798Y246459D01*
X176305Y245653D01*
X177580Y244606D01*
X177613Y244558D01*
X178150Y244021D01*
Y243270D01*
X178479Y242474D01*
X179088Y241865D01*
X179884Y241535D01*
X180746D01*
X181542Y241865D01*
X182151Y242474D01*
X182480Y243270D01*
Y244131D01*
X182151Y244927D01*
X181542Y245536D01*
X180746Y245866D01*
X180027D01*
X179465Y246410D01*
X179465Y246410D01*
X178115Y247563D01*
X176601Y248491D01*
X174961Y249170D01*
X173234Y249584D01*
X171464Y249724D01*
Y249714D01*
X165300D01*
X164769Y250245D01*
X163973Y250575D01*
D02*
G37*
G36*
X-147207Y257677D02*
X-148068D01*
X-148864Y257347D01*
X-149474Y256738D01*
X-149803Y255943D01*
Y255081D01*
X-149474Y254285D01*
X-148864Y253676D01*
X-148482Y253518D01*
X-140654Y245690D01*
X-140560Y245627D01*
X-139733Y244549D01*
X-139170Y243190D01*
X-139068Y242416D01*
X-139173Y242163D01*
Y241302D01*
X-138844Y240506D01*
X-138234Y239897D01*
X-137439Y239567D01*
X-136577D01*
X-135781Y239897D01*
X-135172Y240506D01*
X-134843Y241302D01*
Y242163D01*
X-135096Y242774D01*
X-135178Y243609D01*
X-135725Y245413D01*
X-136614Y247076D01*
X-137810Y248534D01*
X-137816Y248528D01*
X-145644Y256356D01*
X-145802Y256738D01*
X-146411Y257347D01*
X-147207Y257677D01*
D02*
G37*
G36*
X177476Y241649D02*
X176985Y241517D01*
X176581Y241207D01*
X176326Y240767D01*
X176260Y240262D01*
X176391Y239770D01*
X176701Y239366D01*
X177142Y239112D01*
X177647Y239045D01*
X178139Y239177D01*
X178542Y239487D01*
X178797Y239928D01*
X178863Y240433D01*
X178732Y240924D01*
X178422Y241328D01*
X177981Y241583D01*
X177476Y241649D01*
D02*
G37*
G36*
X-157493Y246419D02*
X-158563Y246221D01*
X-159546Y245752D01*
X-161857Y244251D01*
X-162684Y243544D01*
X-163301Y242647D01*
X-163664Y241621D01*
X-163750Y240536D01*
X-163551Y239466D01*
X-163083Y238483D01*
X-162376Y237656D01*
X-161479Y237039D01*
X-160453Y236676D01*
X-159368Y236590D01*
X-158297Y236789D01*
X-157315Y237257D01*
X-155004Y238758D01*
X-154176Y239465D01*
X-153560Y240362D01*
X-153196Y241388D01*
X-153111Y242473D01*
X-153309Y243544D01*
X-153778Y244526D01*
X-154485Y245354D01*
X-155382Y245970D01*
X-156408Y246334D01*
X-157493Y246419D01*
D02*
G37*
G36*
X104204Y277083D02*
X102920Y276914D01*
X101723Y276418D01*
X100695Y275629D01*
X99906Y274601D01*
X99410Y273404D01*
X99241Y272119D01*
Y238655D01*
X99410Y237370D01*
X99906Y236173D01*
X100695Y235145D01*
X101723Y234356D01*
X102920Y233860D01*
X104204Y233691D01*
X105489Y233860D01*
X106686Y234356D01*
X107714Y235145D01*
X108503Y236173D01*
X108999Y237370D01*
X109168Y238655D01*
Y272119D01*
X108999Y273404D01*
X108503Y274601D01*
X107714Y275629D01*
X106686Y276418D01*
X105489Y276914D01*
X104204Y277083D01*
D02*
G37*
G36*
X-116619Y248579D02*
X-123579Y241619D01*
X-116619Y234660D01*
X-114596Y236684D01*
X-113996Y237137D01*
X-112646Y235984D01*
X-111132Y235057D01*
X-109492Y234377D01*
X-107766Y233963D01*
X-105996Y233823D01*
Y233833D01*
X-100970D01*
X-100439Y233302D01*
X-99643Y232972D01*
X-98782D01*
X-97986Y233302D01*
X-97377Y233911D01*
X-97047Y234707D01*
Y235568D01*
X-97377Y236364D01*
X-97986Y236974D01*
X-98782Y237303D01*
X-99643D01*
X-100439Y236974D01*
X-100970Y236442D01*
X-105996D01*
X-106053Y236431D01*
X-107695Y236593D01*
X-109330Y237089D01*
X-110836Y237894D01*
X-111625Y238541D01*
X-111702Y239577D01*
X-109660Y241619D01*
X-116619Y248579D01*
D02*
G37*
G36*
X-174908Y233192D02*
X-175832Y233020D01*
X-176620Y232509D01*
X-177152Y231734D01*
X-177348Y230815D01*
X-177176Y229891D01*
X-176665Y229103D01*
X-175890Y228571D01*
X-174971Y228375D01*
X-174047Y228546D01*
X-173259Y229058D01*
X-172727Y229833D01*
X-172531Y230752D01*
X-172703Y231676D01*
X-173214Y232464D01*
X-173989Y232996D01*
X-174908Y233192D01*
D02*
G37*
G36*
X-99916Y231898D02*
X-103053Y228761D01*
X-99916Y225623D01*
X-96779Y228761D01*
X-99916Y231898D01*
D02*
G37*
G36*
X-70435Y264961D02*
X-71297D01*
X-72093Y264631D01*
X-72702Y264022D01*
X-73032Y263226D01*
Y262365D01*
X-72702Y261569D01*
X-72371Y261238D01*
Y226951D01*
X-72702Y226620D01*
X-73032Y225824D01*
Y224963D01*
X-72702Y224167D01*
X-72093Y223558D01*
X-71297Y223228D01*
X-70435D01*
X-69640Y223558D01*
X-69030Y224167D01*
X-68701Y224963D01*
Y225824D01*
X-69030Y226620D01*
X-69361Y226951D01*
Y261238D01*
X-69030Y261569D01*
X-68701Y262365D01*
Y263226D01*
X-69030Y264022D01*
X-69640Y264631D01*
X-70435Y264961D01*
D02*
G37*
G36*
X-183163Y227831D02*
X-184087Y227660D01*
X-184875Y227148D01*
X-185407Y226374D01*
X-185602Y225454D01*
X-185431Y224530D01*
X-184919Y223742D01*
X-184145Y223210D01*
X-183226Y223014D01*
X-182302Y223186D01*
X-181514Y223698D01*
X-180981Y224472D01*
X-180786Y225391D01*
X-180957Y226315D01*
X-181469Y227103D01*
X-182243Y227636D01*
X-183163Y227831D01*
D02*
G37*
G36*
X-103761Y228053D02*
X-106898Y224916D01*
X-103761Y221779D01*
X-100623Y224916D01*
X-103761Y228053D01*
D02*
G37*
G36*
X-96071Y228053D02*
X-99209Y224916D01*
X-96072Y221779D01*
X-92934Y224916D01*
X-96071Y228053D01*
D02*
G37*
G36*
X-99916Y224209D02*
X-103053Y221072D01*
X-99916Y217934D01*
X-96779Y221072D01*
X-99916Y224209D01*
D02*
G37*
G36*
X-21223Y243307D02*
X-22084D01*
X-22880Y242977D01*
X-23489Y242368D01*
X-23690Y241884D01*
X-24176Y241339D01*
X-25037D01*
X-25833Y241009D01*
X-26442Y240400D01*
X-26772Y239604D01*
Y238742D01*
X-26442Y237947D01*
X-25833Y237337D01*
X-25037Y237008D01*
X-24286D01*
X-20829Y233551D01*
X-20912Y233135D01*
X-21521Y232526D01*
X-21850Y231730D01*
Y230869D01*
X-21521Y230073D01*
X-20990Y229542D01*
Y214057D01*
X-21777Y213601D01*
X-22207Y213779D01*
X-23068D01*
X-23864Y213450D01*
X-24474Y212841D01*
X-24803Y212045D01*
Y211184D01*
X-24474Y210388D01*
X-23942Y209857D01*
Y190118D01*
X-23967D01*
X-23768Y188100D01*
X-23180Y186159D01*
X-22224Y184371D01*
X-20937Y182803D01*
X-19369Y181517D01*
X-17581Y180561D01*
X-15640Y179972D01*
X-13622Y179773D01*
Y179798D01*
X20832D01*
X21509Y179532D01*
X21509Y179532D01*
X22330Y178983D01*
X23300Y178790D01*
Y178814D01*
X27559D01*
Y178802D01*
X28664Y178947D01*
X29693Y179374D01*
X30578Y180052D01*
X31256Y180937D01*
X31682Y181966D01*
X31828Y183071D01*
X31816D01*
Y184055D01*
X31832D01*
X31670Y185703D01*
X31189Y187288D01*
X30408Y188749D01*
X29357Y190029D01*
X29346Y190018D01*
X25529Y193836D01*
X25497Y193857D01*
X25069Y194497D01*
X24919Y195252D01*
X24927Y195290D01*
Y196922D01*
X25475Y197127D01*
X25714Y197149D01*
X26273Y196590D01*
X27069Y196260D01*
X27931D01*
X28727Y196590D01*
X29336Y197199D01*
X29665Y197994D01*
Y198856D01*
X29336Y199652D01*
X28805Y200183D01*
Y214581D01*
X29336Y215112D01*
X29665Y215908D01*
Y216769D01*
X29336Y217565D01*
X28727Y218174D01*
X27931Y218504D01*
X27069D01*
X26575Y218299D01*
X25852Y218683D01*
X25787Y218760D01*
Y218935D01*
X25458Y219730D01*
X24849Y220340D01*
X24053Y220669D01*
X23191D01*
X22761Y220491D01*
X21974Y220947D01*
Y226713D01*
X21981D01*
X21851Y228368D01*
X21463Y229983D01*
X20828Y231517D01*
X20079Y232739D01*
X20120Y232837D01*
Y233698D01*
X20111Y233720D01*
X20471Y234159D01*
X21305Y235719D01*
X21782Y237290D01*
X21896Y237337D01*
X22505Y237947D01*
X22835Y238742D01*
Y239604D01*
X22505Y240400D01*
X21896Y241009D01*
X21100Y241339D01*
X20239D01*
X19443Y241009D01*
X18834Y240400D01*
X18504Y239604D01*
Y238742D01*
X18834Y237947D01*
X19157Y237624D01*
X18883Y236723D01*
X18291Y235616D01*
X18142Y235433D01*
X17524D01*
X16728Y235103D01*
X16118Y234494D01*
X15871Y233898D01*
X15084Y234055D01*
Y235567D01*
X15194Y235778D01*
X15990Y236108D01*
X16600Y236717D01*
X16929Y237513D01*
Y238374D01*
X16600Y239170D01*
X15990Y239779D01*
X15194Y240109D01*
X14579D01*
X14081Y240606D01*
X13976Y240813D01*
Y241572D01*
X13647Y242368D01*
X13038Y242977D01*
X12242Y243307D01*
X11380D01*
X10584Y242977D01*
X9975Y242368D01*
X9646Y241572D01*
Y241248D01*
X9338Y240640D01*
X8918Y240543D01*
X8428D01*
X7632Y240213D01*
X7023Y239604D01*
X6693Y238809D01*
Y237947D01*
X7023Y237151D01*
X7632Y236542D01*
X8427Y236212D01*
X8538Y236002D01*
Y218910D01*
X7931Y218504D01*
X7069D01*
X6273Y218174D01*
X5664Y217565D01*
X5394Y216912D01*
X5383Y216910D01*
X4617D01*
X4606Y216912D01*
X4336Y217565D01*
X3727Y218174D01*
X2931Y218504D01*
X2069D01*
X1904Y218436D01*
X982Y218906D01*
X761Y219827D01*
X81Y221467D01*
X-847Y222981D01*
X-2000Y224331D01*
X-2007Y224324D01*
X-2007Y224324D01*
X-16535Y238853D01*
Y239604D01*
X-16865Y240400D01*
X-17474Y241009D01*
X-18270Y241339D01*
X-19131D01*
X-19617Y241884D01*
X-19818Y242368D01*
X-20427Y242977D01*
X-21223Y243307D01*
D02*
G37*
G36*
X-127953Y207127D02*
X-129574Y206967D01*
X-131132Y206494D01*
X-132568Y205727D01*
X-133827Y204693D01*
X-134860Y203434D01*
X-135628Y201998D01*
X-136101Y200440D01*
X-136260Y198819D01*
X-136101Y197198D01*
X-135628Y195640D01*
X-134860Y194203D01*
X-133827Y192945D01*
X-132568Y191911D01*
X-131132Y191144D01*
X-129574Y190671D01*
X-127953Y190511D01*
X-126332Y190671D01*
X-124774Y191144D01*
X-123337Y191911D01*
X-122078Y192945D01*
X-121045Y194203D01*
X-120277Y195640D01*
X-119805Y197198D01*
X-119645Y198819D01*
X-119805Y200440D01*
X-120277Y201998D01*
X-121045Y203434D01*
X-122078Y204693D01*
X-123337Y205727D01*
X-124774Y206494D01*
X-126332Y206967D01*
X-127953Y207127D01*
D02*
G37*
G36*
X102869Y192477D02*
X95909Y185517D01*
X102869Y178557D01*
X104476Y180164D01*
X105405Y179980D01*
X105448Y179876D01*
X106057Y179267D01*
X106853Y178937D01*
X107714D01*
X108510Y179267D01*
X109119Y179876D01*
X109449Y180672D01*
Y181533D01*
X109119Y182329D01*
X108510Y182938D01*
X108406Y182981D01*
X108221Y183910D01*
X109828Y185517D01*
X102869Y192477D01*
D02*
G37*
G36*
X-141378Y182112D02*
X-141450D01*
X-142556Y181816D01*
X-143547Y181243D01*
X-144356Y180434D01*
X-144928Y179443D01*
X-145224Y178338D01*
Y178265D01*
X-141378D01*
Y182112D01*
D02*
G37*
G36*
X-140306D02*
X-140378D01*
Y177765D01*
Y173419D01*
X-140306D01*
X-139200Y173715D01*
X-138209Y174287D01*
X-137400Y175096D01*
X-137325Y175226D01*
X-136538D01*
X-136469Y175106D01*
X-135663Y174300D01*
X-134675Y173730D01*
X-133574Y173435D01*
X-132433D01*
X-131332Y173730D01*
X-130344Y174300D01*
X-129538Y175106D01*
X-129461Y175241D01*
X-128673D01*
X-128595Y175106D01*
X-127789Y174300D01*
X-126802Y173730D01*
X-125700Y173435D01*
X-124560D01*
X-123458Y173730D01*
X-122471Y174300D01*
X-121665Y175106D01*
X-121094Y176094D01*
X-120799Y177195D01*
Y178335D01*
X-121094Y179437D01*
X-121665Y180424D01*
X-122471Y181231D01*
X-123458Y181801D01*
X-124560Y182096D01*
X-125700D01*
X-126802Y181801D01*
X-127789Y181231D01*
X-128595Y180424D01*
X-128673Y180290D01*
X-129461D01*
X-129538Y180424D01*
X-130344Y181231D01*
X-131332Y181801D01*
X-132433Y182096D01*
X-133574D01*
X-134675Y181801D01*
X-135663Y181231D01*
X-136469Y180424D01*
X-136538Y180305D01*
X-137325D01*
X-137400Y180434D01*
X-138209Y181243D01*
X-139200Y181816D01*
X-140306Y182112D01*
D02*
G37*
G36*
X-141378Y177265D02*
X-145224D01*
Y177193D01*
X-144928Y176088D01*
X-144356Y175096D01*
X-143547Y174287D01*
X-142556Y173715D01*
X-141450Y173419D01*
X-141378D01*
Y177265D01*
D02*
G37*
G36*
X147638Y187442D02*
X146017Y187282D01*
X144459Y186809D01*
X143022Y186041D01*
X141763Y185008D01*
X140730Y183749D01*
X139962Y182313D01*
X139490Y180755D01*
X139330Y179134D01*
X139490Y177513D01*
X139962Y175955D01*
X140730Y174518D01*
X141763Y173259D01*
X143022Y172226D01*
X144459Y171458D01*
X146017Y170986D01*
X147638Y170826D01*
X149258Y170986D01*
X150817Y171458D01*
X152253Y172226D01*
X153512Y173259D01*
X154545Y174518D01*
X155313Y175955D01*
X155786Y177513D01*
X155946Y179134D01*
X155786Y180755D01*
X155313Y182313D01*
X154545Y183749D01*
X153512Y185008D01*
X152253Y186041D01*
X150817Y186809D01*
X149258Y187282D01*
X147638Y187442D01*
D02*
G37*
G36*
X119572Y175796D02*
X116435Y172658D01*
X119572Y169521D01*
X122710Y172658D01*
X119572Y175796D01*
D02*
G37*
G36*
X115728Y171951D02*
X112590Y168814D01*
X115727Y165676D01*
X118865Y168814D01*
X115728Y171951D01*
D02*
G37*
G36*
X123417Y171951D02*
X120279Y168814D01*
X123417Y165676D01*
X126554Y168814D01*
X123417Y171951D01*
D02*
G37*
G36*
X-108993Y169694D02*
X-109771D01*
X-110522Y169493D01*
X-111195Y169104D01*
X-111745Y168555D01*
X-112133Y167881D01*
X-112335Y167130D01*
Y166353D01*
X-112133Y165602D01*
X-111745Y164929D01*
X-111195Y164379D01*
X-110522Y163990D01*
X-109771Y163789D01*
X-108993D01*
X-108242Y163990D01*
X-107569Y164379D01*
X-107019Y164929D01*
X-106630Y165602D01*
X-106429Y166353D01*
Y167130D01*
X-106630Y167881D01*
X-107019Y168555D01*
X-107569Y169104D01*
X-108242Y169493D01*
X-108993Y169694D01*
D02*
G37*
G36*
X200696Y167228D02*
X199991Y167203D01*
X199350Y166911D01*
X198869Y166395D01*
X198623Y165735D01*
X198647Y165031D01*
X198939Y164390D01*
X199455Y163909D01*
X200115Y163662D01*
X200819Y163687D01*
X201461Y163979D01*
X201941Y164494D01*
X202188Y165155D01*
X202164Y165859D01*
X201871Y166500D01*
X201356Y166981D01*
X200696Y167228D01*
D02*
G37*
G36*
X119572Y168107D02*
X116435Y164969D01*
X119572Y161832D01*
X122710Y164969D01*
X119572Y168107D01*
D02*
G37*
G36*
X209334Y159173D02*
X208629Y159148D01*
X207988Y158856D01*
X207507Y158340D01*
X207261Y157680D01*
X207270Y157399D01*
X206492Y157123D01*
X205821Y158014D01*
X203992Y156636D01*
X204008Y156596D01*
X204056Y156498D01*
X204098Y156426D01*
X204198Y156307D01*
X204303Y156199D01*
X204404Y156113D01*
X204503Y156050D01*
X204597Y156009D01*
X204688Y155991D01*
X204776Y155994D01*
X204860Y156020D01*
X204940Y156068D01*
X204466Y155711D01*
X206228Y153372D01*
X208607Y150215D01*
X210578Y151700D01*
X208078Y155019D01*
X208569Y155676D01*
X208753Y155607D01*
X209457Y155631D01*
X210099Y155924D01*
X210579Y156439D01*
X210826Y157099D01*
X210802Y157804D01*
X210509Y158445D01*
X209994Y158926D01*
X209334Y159173D01*
D02*
G37*
G36*
X203051Y155927D02*
X201079Y154441D01*
X203157Y151683D01*
X205129Y153169D01*
X203667Y155109D01*
X203367Y154883D01*
X203436Y154947D01*
X203486Y155022D01*
X203516Y155107D01*
X203527Y155203D01*
X203520Y155304D01*
X203051Y155927D01*
D02*
G37*
G36*
X-5693Y152969D02*
X-9146D01*
Y150500D01*
X-5693D01*
Y152969D01*
D02*
G37*
G36*
X-10146D02*
X-13598D01*
Y150500D01*
X-10146D01*
Y152969D01*
D02*
G37*
G36*
X205730Y152371D02*
X203759Y150885D01*
X205837Y148127D01*
X207808Y149613D01*
X205730Y152371D01*
D02*
G37*
G36*
X13583Y152953D02*
X5709D01*
Y147047D01*
X13583D01*
Y148695D01*
X22407D01*
X22938Y148164D01*
X23734Y147835D01*
X24596D01*
X25391Y148164D01*
X26000Y148773D01*
X26330Y149569D01*
Y150431D01*
X26000Y151227D01*
X25391Y151836D01*
X24596Y152165D01*
X23734D01*
X22938Y151836D01*
X22407Y151305D01*
X13583D01*
Y152953D01*
D02*
G37*
G36*
X-5693Y149500D02*
X-9146D01*
Y147031D01*
X-5693D01*
Y149500D01*
D02*
G37*
G36*
X-10146D02*
X-13598D01*
Y147031D01*
X-10146D01*
Y149500D01*
D02*
G37*
G36*
X195756Y150410D02*
X191040Y146856D01*
X191040Y146856D01*
X190503Y146260D01*
X190147D01*
X189351Y145930D01*
X188742Y145321D01*
X188412Y144525D01*
Y143664D01*
X188742Y142868D01*
X189351Y142259D01*
X190147Y141929D01*
X191008D01*
X191804Y142259D01*
X192413Y142868D01*
X192642Y143421D01*
X193366Y143604D01*
X193500Y143591D01*
X195778Y140568D01*
X200495Y144122D01*
X195756Y150410D01*
D02*
G37*
G36*
X-195699Y150551D02*
X-197728Y147758D01*
X-195731Y146307D01*
X-193702Y149100D01*
X-195699Y150551D01*
D02*
G37*
G36*
X140270Y150154D02*
X134615Y144499D01*
X132185D01*
X131654Y145030D01*
X130859Y145360D01*
X129997D01*
X129201Y145030D01*
X128592Y144421D01*
X128262Y143625D01*
Y142763D01*
X128592Y141968D01*
X129201Y141358D01*
X129997Y141029D01*
X130859D01*
X131654Y141358D01*
X132185Y141890D01*
X134615D01*
X140270Y136234D01*
X147230Y143194D01*
X140270Y150154D01*
D02*
G37*
G36*
X-192893Y148512D02*
X-194922Y145719D01*
X-192925Y144268D01*
X-190896Y147061D01*
X-192893Y148512D01*
D02*
G37*
G36*
X-198316Y146949D02*
X-200346Y144155D01*
X-198348Y142704D01*
X-196319Y145498D01*
X-198316Y146949D01*
D02*
G37*
G36*
X-195510Y144910D02*
X-197539Y142116D01*
X-195542Y140666D01*
X-193513Y143459D01*
X-195510Y144910D01*
D02*
G37*
G36*
X65467Y150154D02*
X58508Y143194D01*
X65467Y136234D01*
X69043Y139810D01*
X69972Y139625D01*
X70015Y139522D01*
X70624Y138912D01*
X71420Y138583D01*
X72281D01*
X73077Y138912D01*
X73686Y139522D01*
X74016Y140317D01*
Y141179D01*
X73686Y141975D01*
X73077Y142584D01*
X72973Y142627D01*
X72427Y143194D01*
X72427Y143194D01*
X72427Y143194D01*
X65467Y150154D01*
D02*
G37*
G36*
X-5709Y140354D02*
X-13583D01*
Y138116D01*
X-23833D01*
X-24364Y138647D01*
X-25160Y138976D01*
X-26021D01*
X-26817Y138647D01*
X-27426Y138038D01*
X-27756Y137242D01*
Y136380D01*
X-27426Y135584D01*
X-26817Y134975D01*
X-26021Y134646D01*
X-25160D01*
X-24364Y134975D01*
X-23833Y135506D01*
X-13583D01*
Y134449D01*
X-5709D01*
Y140354D01*
D02*
G37*
G36*
X13583D02*
X5709D01*
Y138353D01*
X4921Y137970D01*
Y138226D01*
X4592Y139022D01*
X3982Y139631D01*
X3187Y139961D01*
X2325D01*
X1529Y139631D01*
X920Y139022D01*
X591Y138226D01*
Y137365D01*
X920Y136569D01*
X1529Y135960D01*
X2325Y135630D01*
X2780D01*
X3217Y134813D01*
X3579Y133619D01*
X3699Y132397D01*
X3695Y132378D01*
Y130315D01*
X2575D01*
Y130331D01*
X500D01*
Y126378D01*
X-500D01*
Y130331D01*
X-2575D01*
Y130315D01*
X-7559D01*
Y127991D01*
X-24778D01*
X-25160Y128150D01*
X-26021D01*
X-26817Y127820D01*
X-27426Y127211D01*
X-27756Y126415D01*
Y125554D01*
X-27426Y124758D01*
X-26817Y124149D01*
X-26702Y124101D01*
Y123249D01*
X-26883Y123174D01*
X-27492Y122565D01*
X-27822Y121769D01*
Y120907D01*
X-27492Y120112D01*
X-26883Y119502D01*
X-26087Y119173D01*
X-25226D01*
X-24844Y119331D01*
X15000D01*
X15013Y119334D01*
X16878Y119481D01*
X18710Y119920D01*
X20450Y120641D01*
X22057Y121625D01*
X23489Y122849D01*
X24713Y124282D01*
X25697Y125888D01*
X26418Y127628D01*
X26858Y129460D01*
X27005Y131325D01*
X27007Y131338D01*
Y137016D01*
X27165Y137398D01*
Y138260D01*
X26836Y139056D01*
X26227Y139665D01*
X25431Y139994D01*
X24569D01*
X24187Y139836D01*
X13583D01*
Y140354D01*
D02*
G37*
G36*
X-167079Y155324D02*
X-168220D01*
X-169321Y155029D01*
X-170309Y154459D01*
X-171115Y153653D01*
X-171685Y152665D01*
X-171980Y151564D01*
Y150424D01*
X-171685Y149322D01*
X-171115Y148335D01*
X-170309Y147528D01*
X-170174Y147450D01*
Y146663D01*
X-170309Y146585D01*
X-171115Y145779D01*
X-171685Y144791D01*
X-171980Y143690D01*
Y142549D01*
X-171685Y141448D01*
X-171115Y140461D01*
X-170309Y139654D01*
X-170190Y139585D01*
Y138798D01*
X-170318Y138724D01*
X-171128Y137914D01*
X-171700Y136923D01*
X-171996Y135818D01*
Y135746D01*
X-167650D01*
X-163303D01*
Y135818D01*
X-163599Y136923D01*
X-164172Y137914D01*
X-164981Y138724D01*
X-165110Y138798D01*
Y139585D01*
X-164990Y139654D01*
X-164184Y140461D01*
X-163614Y141448D01*
X-163319Y142549D01*
Y143690D01*
X-163614Y144791D01*
X-164184Y145779D01*
X-164990Y146585D01*
X-165125Y146663D01*
Y147450D01*
X-164990Y147528D01*
X-164184Y148335D01*
X-163614Y149322D01*
X-163319Y150424D01*
Y151564D01*
X-163614Y152665D01*
X-164184Y153653D01*
X-164990Y154459D01*
X-165978Y155029D01*
X-167079Y155324D01*
D02*
G37*
G36*
X-205888Y157934D02*
X-210516Y151564D01*
X-207318Y149241D01*
Y143211D01*
X-207305Y143144D01*
X-207462Y141550D01*
X-207946Y139953D01*
X-208733Y138481D01*
X-209750Y137242D01*
X-209806Y137204D01*
X-213072Y133938D01*
X-213082Y133948D01*
X-213568Y133356D01*
X-214191Y132598D01*
X-214859Y131346D01*
X-215647Y131544D01*
Y134455D01*
X-212449Y138856D01*
X-217227Y142327D01*
X-221855Y135957D01*
X-218657Y133634D01*
Y129116D01*
X-218644Y129049D01*
X-218801Y127455D01*
X-219286Y125858D01*
X-220073Y124385D01*
X-221089Y123147D01*
X-221145Y123109D01*
X-227288Y116967D01*
X-227913Y117456D01*
X-227910Y117461D01*
X-227910Y117461D01*
X-227907Y117466D01*
X-224219Y123602D01*
X-229281Y126644D01*
X-233337Y119895D01*
X-228425Y116943D01*
X-228388Y116828D01*
X-228155Y116100D01*
X-236050Y108205D01*
X-239217Y110108D01*
X-242843Y104073D01*
X-244011Y102906D01*
X-244478D01*
X-245274Y102576D01*
X-245883Y101967D01*
X-246213Y101171D01*
Y100310D01*
X-245883Y99514D01*
X-245274Y98905D01*
X-244478Y98575D01*
X-243616D01*
X-242821Y98905D01*
X-242212Y99514D01*
X-241882Y100310D01*
Y100777D01*
X-240791Y101868D01*
X-238211Y100317D01*
X-235636Y104602D01*
X-235463Y104694D01*
X-234582Y105417D01*
X-234576Y105421D01*
X-234576Y105421D01*
X-234576Y105421D01*
X-234019Y105978D01*
X-229846Y110152D01*
X-229132Y109752D01*
X-229285Y109114D01*
X-229427Y107313D01*
X-229420D01*
Y101952D01*
X-232474Y96870D01*
X-227412Y93828D01*
X-223356Y100578D01*
X-226410Y102412D01*
Y107313D01*
X-226423Y107380D01*
X-226266Y108974D01*
X-225781Y110572D01*
X-224994Y112043D01*
X-223978Y113282D01*
X-223921Y113320D01*
X-222915Y114326D01*
X-222294Y113842D01*
X-222559Y113400D01*
X-220444Y112129D01*
X-218408Y115517D01*
X-216372Y118905D01*
X-217051Y119313D01*
X-217146Y120095D01*
X-214501Y122740D01*
X-214500Y122740D01*
X-214499Y122741D01*
X-213721Y123688D01*
X-213143Y124770D01*
X-212787Y125944D01*
X-212667Y127165D01*
X-212667D01*
X-212646Y127944D01*
X-212562Y128796D01*
X-212227Y129902D01*
X-211682Y130921D01*
X-210966Y131794D01*
X-210946Y131807D01*
X-210945Y131809D01*
X-210944Y131810D01*
X-208477Y134276D01*
X-207876Y133763D01*
X-211663Y128552D01*
X-206885Y125081D01*
X-202257Y131451D01*
X-206868Y134801D01*
X-207140Y135695D01*
X-206500Y136445D01*
X-205556Y137985D01*
X-204865Y139654D01*
X-204443Y141410D01*
X-204301Y143211D01*
X-204308D01*
Y150062D01*
X-201110Y154463D01*
X-205888Y157934D01*
D02*
G37*
G36*
X-163303Y134746D02*
X-167150D01*
Y130899D01*
X-167077D01*
X-165972Y131195D01*
X-164981Y131767D01*
X-164172Y132577D01*
X-163599Y133568D01*
X-163303Y134673D01*
Y134746D01*
D02*
G37*
G36*
X-168150D02*
X-171996D01*
Y134673D01*
X-171700Y133568D01*
X-171128Y132577D01*
X-170318Y131767D01*
X-169327Y131195D01*
X-168222Y130899D01*
X-168150D01*
Y134746D01*
D02*
G37*
G36*
X232387Y131284D02*
X231688Y131192D01*
X231078Y130840D01*
X230649Y130281D01*
X230466Y129600D01*
X230558Y128901D01*
X230911Y128291D01*
X231470Y127862D01*
X232151Y127679D01*
X232849Y127771D01*
X233460Y128124D01*
X233889Y128683D01*
X234071Y129364D01*
X233979Y130062D01*
X233627Y130673D01*
X233068Y131102D01*
X232387Y131284D01*
D02*
G37*
G36*
X156974Y133473D02*
X153836Y130335D01*
X156974Y127198D01*
X160111Y130335D01*
X156974Y133473D01*
D02*
G37*
G36*
X82171D02*
X79033Y130335D01*
X82171Y127198D01*
X85308Y130335D01*
X82171Y133473D01*
D02*
G37*
G36*
X86015Y129628D02*
X82878Y126491D01*
X86015Y123353D01*
X89152Y126491D01*
X86015Y129628D01*
D02*
G37*
G36*
X160818Y129628D02*
X157681Y126491D01*
X160818Y123353D01*
X163956Y126491D01*
X160818Y129628D01*
D02*
G37*
G36*
X153129D02*
X149992Y126491D01*
X153129Y123353D01*
X156267Y126491D01*
X153129Y129628D01*
D02*
G37*
G36*
X78326Y129628D02*
X75189Y126491D01*
X78326Y123353D01*
X81463Y126491D01*
X78326Y129628D01*
D02*
G37*
G36*
X229193Y125978D02*
X227077Y124707D01*
X228855Y121747D01*
X230971Y123019D01*
X229193Y125978D01*
D02*
G37*
G36*
X226220Y124192D02*
X224104Y122920D01*
X225882Y119961D01*
X226625Y120408D01*
X226535Y120448D01*
X226398Y120491D01*
X226248Y120525D01*
X226084Y120550D01*
X225905Y120564D01*
X225713Y120569D01*
X225121Y121553D01*
X225308Y121558D01*
X225469Y121573D01*
X225604Y121598D01*
X225712Y121633D01*
X225795Y121678D01*
X225852Y121733D01*
X225883Y121798D01*
X225888Y121872D01*
X225867Y121957D01*
X225820Y122052D01*
X226760Y120488D01*
X227998Y121232D01*
X226220Y124192D01*
D02*
G37*
G36*
X156974Y125784D02*
X153836Y122646D01*
X156974Y119509D01*
X160111Y122646D01*
X156974Y125784D01*
D02*
G37*
G36*
X82171Y125784D02*
X79033Y122646D01*
X82171Y119509D01*
X85308Y122646D01*
X82171Y125784D01*
D02*
G37*
G36*
X231486Y122161D02*
X229370Y120890D01*
X231148Y117930D01*
X233264Y119202D01*
X231486Y122161D01*
D02*
G37*
G36*
X238292Y121055D02*
X237594Y120964D01*
X236983Y120611D01*
X236554Y120052D01*
X236372Y119371D01*
X236464Y118672D01*
X236816Y118062D01*
X237375Y117633D01*
X238056Y117450D01*
X238755Y117543D01*
X239365Y117895D01*
X239794Y118454D01*
X239977Y119135D01*
X239885Y119834D01*
X239532Y120444D01*
X238973Y120873D01*
X238292Y121055D01*
D02*
G37*
G36*
X-156237Y122450D02*
X-157014D01*
X-157765Y122248D01*
X-158438Y121860D01*
X-158988Y121310D01*
X-159377Y120637D01*
X-159578Y119886D01*
Y119108D01*
X-159377Y118357D01*
X-158988Y117684D01*
X-158438Y117134D01*
X-157765Y116745D01*
X-157014Y116544D01*
X-156237D01*
X-155486Y116745D01*
X-154812Y117134D01*
X-154263Y117684D01*
X-153874Y118357D01*
X-153673Y119108D01*
Y119886D01*
X-153874Y120637D01*
X-154263Y121310D01*
X-154812Y121860D01*
X-155486Y122248D01*
X-156237Y122450D01*
D02*
G37*
G36*
X228513Y120375D02*
X226397Y119104D01*
X228175Y116144D01*
X230291Y117415D01*
X228513Y120375D01*
D02*
G37*
G36*
X-215515Y118391D02*
X-217293Y115431D01*
X-215177Y114160D01*
X-213399Y117119D01*
X-215515Y118391D01*
D02*
G37*
G36*
X175628Y113878D02*
X174767D01*
X173971Y113549D01*
X173440Y113017D01*
X133155D01*
X132624Y113549D01*
X131828Y113878D01*
X130967D01*
X130171Y113549D01*
X129562Y112940D01*
X129232Y112144D01*
Y111282D01*
X129562Y110486D01*
X130015Y110033D01*
X129569Y109365D01*
X129368Y109449D01*
X128506D01*
X127710Y109119D01*
X127101Y108510D01*
X126772Y107714D01*
Y106853D01*
X127101Y106057D01*
X127710Y105448D01*
X128506Y105118D01*
X129368D01*
X130164Y105448D01*
X130695Y105979D01*
X161212D01*
X161269Y105990D01*
X162912Y105828D01*
X164546Y105333D01*
X166053Y104528D01*
X167328Y103481D01*
X167361Y103432D01*
X177251Y93542D01*
X177251Y93542D01*
X177244Y93535D01*
X178594Y92382D01*
X180108Y91454D01*
X181748Y90775D01*
X183475Y90360D01*
X185245Y90221D01*
Y90231D01*
X201567D01*
X201624Y90242D01*
X203266Y90080D01*
X204901Y89585D01*
X206407Y88779D01*
X207683Y87732D01*
X207715Y87684D01*
X209731Y85668D01*
X209724Y85661D01*
X211074Y84508D01*
X212588Y83580D01*
X214229Y82901D01*
X215955Y82486D01*
X217725Y82347D01*
Y82357D01*
X228622D01*
Y82347D01*
X230392Y82486D01*
X232118Y82901D01*
X233759Y83580D01*
X235273Y84508D01*
X236623Y85661D01*
X237776Y87011D01*
X238703Y88525D01*
X239383Y90165D01*
X239797Y91891D01*
X239936Y93661D01*
X239927D01*
Y100718D01*
X243178Y102671D01*
X239123Y109421D01*
X234061Y106379D01*
X237317Y100959D01*
Y93661D01*
X237329Y93604D01*
X237167Y91962D01*
X236671Y90327D01*
X235866Y88821D01*
X234783Y87501D01*
X233463Y86417D01*
X231956Y85612D01*
X230322Y85116D01*
X228679Y84955D01*
X228622Y84966D01*
X217725D01*
X217668Y84955D01*
X216025Y85116D01*
X214391Y85612D01*
X212884Y86417D01*
X211609Y87464D01*
X211576Y87513D01*
X209560Y89529D01*
X209567Y89536D01*
X208217Y90689D01*
X206703Y91617D01*
X205063Y92296D01*
X203337Y92711D01*
X201567Y92850D01*
Y92840D01*
X185245D01*
X185187Y92829D01*
X183545Y92990D01*
X181910Y93486D01*
X180404Y94291D01*
X179128Y95338D01*
X179096Y95387D01*
X169206Y105277D01*
X169213Y105284D01*
X167863Y106437D01*
X166349Y107365D01*
X164708Y108044D01*
X162982Y108459D01*
X161212Y108598D01*
Y108588D01*
X131016D01*
X130886Y108793D01*
X131342Y109548D01*
X131828D01*
X132624Y109877D01*
X133155Y110408D01*
X173440D01*
X173971Y109877D01*
X174767Y109548D01*
X175628D01*
X176424Y109877D01*
X177033Y110486D01*
X177363Y111282D01*
Y112144D01*
X177033Y112940D01*
X176424Y113549D01*
X175628Y113878D01*
D02*
G37*
G36*
X-217808Y114574D02*
X-219586Y111614D01*
X-217470Y110343D01*
X-215692Y113302D01*
X-217808Y114574D01*
D02*
G37*
G36*
X217427Y142585D02*
X212711Y139031D01*
X216213Y134384D01*
Y118161D01*
X213326Y116426D01*
X217382Y109677D01*
X222444Y112719D01*
X219223Y118078D01*
Y134079D01*
X222166Y136297D01*
X217427Y142585D01*
D02*
G37*
G36*
X102869Y106847D02*
X95909Y99887D01*
X102869Y92927D01*
X106779Y96837D01*
X107835Y96780D01*
X108025Y96589D01*
X108821Y96260D01*
X109683D01*
X110478Y96589D01*
X111088Y97199D01*
X111417Y97995D01*
Y98856D01*
X111088Y99652D01*
X110478Y100261D01*
X109683Y100591D01*
X109125D01*
X102869Y106847D01*
D02*
G37*
G36*
X207366Y135003D02*
X202649Y131449D01*
X205370Y127839D01*
Y99042D01*
X205360D01*
X205555Y97559D01*
X206127Y96177D01*
X206329Y95914D01*
X206629Y95190D01*
X207238Y94581D01*
X208034Y94251D01*
X208895D01*
X209277Y94410D01*
X223910D01*
X223932Y94414D01*
X225380Y94557D01*
X226299Y94836D01*
X227317Y93141D01*
X232379Y96183D01*
X228324Y102932D01*
X223262Y99891D01*
X223670Y99211D01*
X223225Y98424D01*
X209871D01*
X209384Y99042D01*
Y126665D01*
X212105Y128715D01*
X207366Y135003D01*
D02*
G37*
G36*
X119572Y90166D02*
X116435Y87028D01*
X119572Y83891D01*
X122710Y87028D01*
X119572Y90166D01*
D02*
G37*
G36*
X115728Y86321D02*
X112590Y83184D01*
X115727Y80046D01*
X118865Y83184D01*
X115728Y86321D01*
D02*
G37*
G36*
X123417Y86321D02*
X120279Y83184D01*
X123417Y80046D01*
X126554Y83184D01*
X123417Y86321D01*
D02*
G37*
G36*
X119572Y82477D02*
X116435Y79339D01*
X119572Y76202D01*
X122710Y79339D01*
X119572Y82477D01*
D02*
G37*
G36*
X147638Y45709D02*
X146017Y45550D01*
X144459Y45077D01*
X143022Y44309D01*
X141763Y43276D01*
X140730Y42017D01*
X139962Y40581D01*
X139490Y39022D01*
X139330Y37402D01*
X139490Y35781D01*
X139962Y34222D01*
X140730Y32786D01*
X141763Y31527D01*
X143022Y30494D01*
X144459Y29726D01*
X146017Y29254D01*
X147638Y29094D01*
X149258Y29254D01*
X150817Y29726D01*
X152253Y30494D01*
X153512Y31527D01*
X154545Y32786D01*
X155313Y34222D01*
X155786Y35781D01*
X155946Y37402D01*
X155786Y39022D01*
X155313Y40581D01*
X154545Y42017D01*
X153512Y43276D01*
X152253Y44309D01*
X150817Y45077D01*
X149258Y45550D01*
X147638Y45709D01*
D02*
G37*
G36*
X-147638D02*
X-149258Y45550D01*
X-150817Y45077D01*
X-152253Y44309D01*
X-153512Y43276D01*
X-154545Y42017D01*
X-155313Y40581D01*
X-155786Y39022D01*
X-155946Y37402D01*
X-155786Y35781D01*
X-155313Y34222D01*
X-154545Y32786D01*
X-153512Y31527D01*
X-152253Y30494D01*
X-150817Y29726D01*
X-149258Y29254D01*
X-147638Y29094D01*
X-146017Y29254D01*
X-144459Y29726D01*
X-143022Y30494D01*
X-141763Y31527D01*
X-140730Y32786D01*
X-139962Y34222D01*
X-139490Y35781D01*
X-139330Y37402D01*
X-139490Y39022D01*
X-139962Y40581D01*
X-140730Y42017D01*
X-141763Y43276D01*
X-143022Y44309D01*
X-144459Y45077D01*
X-146017Y45550D01*
X-147638Y45709D01*
D02*
G37*
G36*
X25431Y28819D02*
X24569D01*
X23773Y28489D01*
X23164Y27880D01*
X22835Y27084D01*
Y26223D01*
X23164Y25427D01*
X23773Y24818D01*
X24569Y24488D01*
X25431D01*
X26227Y24818D01*
X26836Y25427D01*
X27165Y26223D01*
Y27084D01*
X26836Y27880D01*
X26227Y28489D01*
X25431Y28819D01*
D02*
G37*
G36*
X15431D02*
X14569D01*
X13773Y28489D01*
X13164Y27880D01*
X12835Y27084D01*
Y26223D01*
X13164Y25427D01*
X13773Y24818D01*
X14569Y24488D01*
X15431D01*
X16227Y24818D01*
X16836Y25427D01*
X17165Y26223D01*
Y27084D01*
X16836Y27880D01*
X16227Y28489D01*
X15431Y28819D01*
D02*
G37*
G36*
X5431D02*
X4569D01*
X3773Y28489D01*
X3164Y27880D01*
X2835Y27084D01*
Y26223D01*
X3164Y25427D01*
X3773Y24818D01*
X4569Y24488D01*
X5431D01*
X6227Y24818D01*
X6836Y25427D01*
X7165Y26223D01*
Y27084D01*
X6836Y27880D01*
X6227Y28489D01*
X5431Y28819D01*
D02*
G37*
G36*
X-4569D02*
X-5431D01*
X-6227Y28489D01*
X-6836Y27880D01*
X-7165Y27084D01*
Y26223D01*
X-6836Y25427D01*
X-6227Y24818D01*
X-5431Y24488D01*
X-4569D01*
X-3773Y24818D01*
X-3164Y25427D01*
X-2835Y26223D01*
Y27084D01*
X-3164Y27880D01*
X-3773Y28489D01*
X-4569Y28819D01*
D02*
G37*
G36*
X-14569D02*
X-15431D01*
X-16227Y28489D01*
X-16836Y27880D01*
X-17165Y27084D01*
Y26223D01*
X-16836Y25427D01*
X-16227Y24818D01*
X-15431Y24488D01*
X-14569D01*
X-13773Y24818D01*
X-13164Y25427D01*
X-12835Y26223D01*
Y27084D01*
X-13164Y27880D01*
X-13773Y28489D01*
X-14569Y28819D01*
D02*
G37*
G36*
X-24569D02*
X-25431D01*
X-26227Y28489D01*
X-26836Y27880D01*
X-27165Y27084D01*
Y26223D01*
X-26836Y25427D01*
X-26227Y24818D01*
X-25431Y24488D01*
X-24569D01*
X-23773Y24818D01*
X-23164Y25427D01*
X-22835Y26223D01*
Y27084D01*
X-23164Y27880D01*
X-23773Y28489D01*
X-24569Y28819D01*
D02*
G37*
G36*
X20470Y24016D02*
X19530D01*
X18662Y23656D01*
X17997Y22992D01*
X17638Y22123D01*
Y21184D01*
X17997Y20315D01*
X18662Y19651D01*
X19530Y19291D01*
X20470D01*
X21338Y19651D01*
X22003Y20315D01*
X22362Y21184D01*
Y22123D01*
X22003Y22992D01*
X21338Y23656D01*
X20470Y24016D01*
D02*
G37*
G36*
X-19530D02*
X-20470D01*
X-21338Y23656D01*
X-22003Y22992D01*
X-22362Y22123D01*
Y21184D01*
X-22003Y20315D01*
X-21338Y19651D01*
X-20470Y19291D01*
X-19530D01*
X-18662Y19651D01*
X-17997Y20315D01*
X-17638Y21184D01*
Y22123D01*
X-17997Y22992D01*
X-18662Y23656D01*
X-19530Y24016D01*
D02*
G37*
G36*
X25431Y18819D02*
X24569D01*
X23773Y18489D01*
X23164Y17880D01*
X22835Y17084D01*
Y16223D01*
X23164Y15427D01*
X23773Y14818D01*
X24569Y14488D01*
X25431D01*
X26227Y14818D01*
X26836Y15427D01*
X27165Y16223D01*
Y17084D01*
X26836Y17880D01*
X26227Y18489D01*
X25431Y18819D01*
D02*
G37*
G36*
X15431D02*
X14569D01*
X13773Y18489D01*
X13164Y17880D01*
X12835Y17084D01*
Y16223D01*
X13164Y15427D01*
X13773Y14818D01*
X14569Y14488D01*
X15431D01*
X16227Y14818D01*
X16836Y15427D01*
X17165Y16223D01*
Y17084D01*
X16836Y17880D01*
X16227Y18489D01*
X15431Y18819D01*
D02*
G37*
G36*
X5431D02*
X4569D01*
X3773Y18489D01*
X3164Y17880D01*
X2835Y17084D01*
Y16223D01*
X3164Y15427D01*
X3773Y14818D01*
X4569Y14488D01*
X5431D01*
X6227Y14818D01*
X6836Y15427D01*
X7165Y16223D01*
Y17084D01*
X6836Y17880D01*
X6227Y18489D01*
X5431Y18819D01*
D02*
G37*
G36*
X-4569D02*
X-5431D01*
X-6227Y18489D01*
X-6836Y17880D01*
X-7165Y17084D01*
Y16223D01*
X-6836Y15427D01*
X-6227Y14818D01*
X-5431Y14488D01*
X-4569D01*
X-3773Y14818D01*
X-3164Y15427D01*
X-2835Y16223D01*
Y17084D01*
X-3164Y17880D01*
X-3773Y18489D01*
X-4569Y18819D01*
D02*
G37*
G36*
X-14569D02*
X-15431D01*
X-16227Y18489D01*
X-16836Y17880D01*
X-17165Y17084D01*
Y16223D01*
X-16836Y15427D01*
X-16227Y14818D01*
X-15431Y14488D01*
X-14569D01*
X-13773Y14818D01*
X-13164Y15427D01*
X-12835Y16223D01*
Y17084D01*
X-13164Y17880D01*
X-13773Y18489D01*
X-14569Y18819D01*
D02*
G37*
G36*
X-24569D02*
X-25431D01*
X-26227Y18489D01*
X-26836Y17880D01*
X-27165Y17084D01*
Y16223D01*
X-26836Y15427D01*
X-26227Y14818D01*
X-25431Y14488D01*
X-24569D01*
X-23773Y14818D01*
X-23164Y15427D01*
X-22835Y16223D01*
Y17084D01*
X-23164Y17880D01*
X-23773Y18489D01*
X-24569Y18819D01*
D02*
G37*
%LPD*%
G36*
X-129414Y316618D02*
X-129585Y316412D01*
X-129654Y316310D01*
X-129712Y316209D01*
X-129760Y316108D01*
X-129797Y316008D01*
X-129824Y315909D01*
X-129840Y315811D01*
X-129845Y315713D01*
X-130436D01*
X-130441Y315811D01*
X-130457Y315909D01*
X-130483Y316008D01*
X-130521Y316108D01*
X-130568Y316209D01*
X-130627Y316310D01*
X-130696Y316412D01*
X-130776Y316514D01*
X-130866Y316618D01*
X-130967Y316722D01*
X-129314D01*
X-129414Y316618D01*
D02*
G37*
G36*
X-132087Y306711D02*
X-132152Y306638D01*
X-132211Y306557D01*
X-132262Y306468D01*
X-132306Y306371D01*
X-132343Y306267D01*
X-132374Y306154D01*
X-132397Y306033D01*
X-132413Y305904D01*
X-132422Y305767D01*
X-132424Y305622D01*
X-133593Y306791D01*
X-133449Y306793D01*
X-133183Y306819D01*
X-133062Y306842D01*
X-132949Y306872D01*
X-132844Y306909D01*
X-132747Y306954D01*
X-132658Y307005D01*
X-132577Y307064D01*
X-132504Y307129D01*
X-132087Y306711D01*
D02*
G37*
G36*
X95018Y304943D02*
X95004Y304998D01*
X94976Y305044D01*
X94933Y305079D01*
X94874Y305105D01*
X94800Y305120D01*
X94712Y305126D01*
X94608Y305121D01*
X94490Y305106D01*
X94356Y305082D01*
X94207Y305047D01*
X93919Y305580D01*
X94111Y305632D01*
X94432Y305737D01*
X94562Y305791D01*
X94670Y305846D01*
X94758Y305902D01*
X94825Y305958D01*
X94871Y306015D01*
X94897Y306073D01*
X94901Y306132D01*
X95018Y304943D01*
D02*
G37*
G36*
X90348Y302570D02*
X90283Y302497D01*
X90224Y302416D01*
X90173Y302327D01*
X90129Y302230D01*
X90092Y302125D01*
X90061Y302012D01*
X90038Y301892D01*
X90022Y301763D01*
X90013Y301626D01*
X90011Y301481D01*
X88842Y302650D01*
X88986Y302652D01*
X89252Y302677D01*
X89373Y302701D01*
X89486Y302731D01*
X89591Y302768D01*
X89688Y302813D01*
X89777Y302864D01*
X89858Y302922D01*
X89931Y302988D01*
X90348Y302570D01*
D02*
G37*
G36*
X59196Y283622D02*
X59127Y283686D01*
X59053Y283743D01*
X58973Y283793D01*
X58888Y283837D01*
X58797Y283873D01*
X58700Y283904D01*
X58598Y283927D01*
X58490Y283944D01*
X58376Y283954D01*
X58257Y283957D01*
Y284941D01*
X58376Y284945D01*
X58490Y284955D01*
X58598Y284971D01*
X58700Y284995D01*
X58797Y285025D01*
X58888Y285062D01*
X58973Y285105D01*
X59053Y285156D01*
X59127Y285212D01*
X59196Y285276D01*
Y283622D01*
D02*
G37*
G36*
X-4781Y283622D02*
X-4884Y283723D01*
X-5090Y283893D01*
X-5192Y283962D01*
X-5293Y284021D01*
X-5394Y284068D01*
X-5494Y284106D01*
X-5593Y284132D01*
X-5691Y284148D01*
X-5789Y284154D01*
X-5789Y284744D01*
X-5691Y284749D01*
X-5593Y284765D01*
X-5494Y284792D01*
X-5394Y284829D01*
X-5293Y284877D01*
X-5192Y284935D01*
X-5090Y285004D01*
X-4988Y285084D01*
X-4884Y285175D01*
X-4781Y285276D01*
X-4781Y283622D01*
D02*
G37*
G36*
X-61061Y285175D02*
X-60855Y285004D01*
X-60753Y284935D01*
X-60652Y284877D01*
X-60551Y284829D01*
X-60451Y284792D01*
X-60352Y284765D01*
X-60254Y284749D01*
X-60156Y284744D01*
Y284154D01*
X-60254Y284148D01*
X-60352Y284132D01*
X-60451Y284106D01*
X-60551Y284068D01*
X-60652Y284021D01*
X-60753Y283962D01*
X-60855Y283893D01*
X-60957Y283813D01*
X-61061Y283723D01*
X-61164Y283622D01*
Y285276D01*
X-61061Y285175D01*
D02*
G37*
G36*
X-7733Y280669D02*
X-7837Y280770D01*
X-8043Y280940D01*
X-8145Y281010D01*
X-8246Y281068D01*
X-8347Y281116D01*
X-8446Y281153D01*
X-8546Y281179D01*
X-8644Y281195D01*
X-8742Y281201D01*
Y281791D01*
X-8644Y281797D01*
X-8546Y281813D01*
X-8446Y281839D01*
X-8347Y281876D01*
X-8246Y281924D01*
X-8145Y281983D01*
X-8043Y282052D01*
X-7940Y282132D01*
X-7837Y282222D01*
X-7733Y282323D01*
Y280669D01*
D02*
G37*
G36*
X-59092Y282222D02*
X-58886Y282052D01*
X-58784Y281983D01*
X-58683Y281924D01*
X-58583Y281876D01*
X-58483Y281839D01*
X-58384Y281813D01*
X-58285Y281797D01*
X-58187Y281791D01*
Y281201D01*
X-58285Y281195D01*
X-58384Y281179D01*
X-58483Y281153D01*
X-58583Y281116D01*
X-58683Y281068D01*
X-58784Y281010D01*
X-58886Y280940D01*
X-58989Y280861D01*
X-59092Y280770D01*
X-59196Y280669D01*
Y282323D01*
X-59092Y282222D01*
D02*
G37*
G36*
X64117Y278701D02*
X64013Y278802D01*
X63808Y278972D01*
X63706Y279041D01*
X63604Y279099D01*
X63504Y279147D01*
X63404Y279185D01*
X63305Y279211D01*
X63206Y279227D01*
X63108Y279232D01*
Y279823D01*
X63206Y279828D01*
X63305Y279844D01*
X63404Y279871D01*
X63504Y279908D01*
X63604Y279956D01*
X63706Y280014D01*
X63808Y280083D01*
X63910Y280163D01*
X64013Y280253D01*
X64117Y280354D01*
Y278701D01*
D02*
G37*
G36*
X-19544Y277716D02*
X-19648Y277818D01*
X-19854Y277988D01*
X-19956Y278057D01*
X-20057Y278115D01*
X-20157Y278163D01*
X-20257Y278200D01*
X-20357Y278227D01*
X-20455Y278243D01*
X-20553Y278248D01*
X-20553Y278839D01*
X-20455Y278844D01*
X-20357Y278860D01*
X-20257Y278886D01*
X-20157Y278924D01*
X-20057Y278972D01*
X-19956Y279030D01*
X-19854Y279099D01*
X-19751Y279179D01*
X-19648Y279269D01*
X-19544Y279370D01*
X-19544Y277716D01*
D02*
G37*
G36*
X-61061Y279269D02*
X-60855Y279099D01*
X-60753Y279030D01*
X-60652Y278972D01*
X-60551Y278924D01*
X-60451Y278886D01*
X-60352Y278860D01*
X-60254Y278844D01*
X-60156Y278839D01*
Y278248D01*
X-60254Y278243D01*
X-60352Y278227D01*
X-60451Y278200D01*
X-60551Y278163D01*
X-60652Y278115D01*
X-60753Y278057D01*
X-60855Y277988D01*
X-60957Y277908D01*
X-61061Y277818D01*
X-61164Y277716D01*
Y279370D01*
X-61061Y279269D01*
D02*
G37*
G36*
X27522Y277301D02*
X27728Y277131D01*
X27830Y277061D01*
X27931Y277003D01*
X28032Y276955D01*
X28131Y276918D01*
X28231Y276891D01*
X28329Y276875D01*
X28427Y276870D01*
Y276279D01*
X28329Y276274D01*
X28231Y276258D01*
X28131Y276232D01*
X28032Y276195D01*
X27931Y276147D01*
X27830Y276088D01*
X27728Y276019D01*
X27625Y275939D01*
X27522Y275849D01*
X27418Y275748D01*
Y277402D01*
X27522Y277301D01*
D02*
G37*
G36*
X-13639Y274764D02*
X-13743Y274865D01*
X-13948Y275035D01*
X-14050Y275104D01*
X-14151Y275162D01*
X-14252Y275210D01*
X-14352Y275247D01*
X-14451Y275274D01*
X-14550Y275290D01*
X-14648Y275295D01*
Y275886D01*
X-14550Y275891D01*
X-14451Y275907D01*
X-14352Y275934D01*
X-14252Y275971D01*
X-14151Y276019D01*
X-14050Y276077D01*
X-13948Y276146D01*
X-13846Y276226D01*
X-13743Y276316D01*
X-13639Y276417D01*
Y274764D01*
D02*
G37*
G36*
X-59092Y276316D02*
X-58886Y276146D01*
X-58784Y276077D01*
X-58683Y276019D01*
X-58583Y275971D01*
X-58483Y275934D01*
X-58384Y275907D01*
X-58285Y275891D01*
X-58187Y275886D01*
Y275295D01*
X-58285Y275290D01*
X-58384Y275274D01*
X-58483Y275247D01*
X-58583Y275210D01*
X-58683Y275162D01*
X-58784Y275104D01*
X-58886Y275035D01*
X-58989Y274955D01*
X-59092Y274865D01*
X-59196Y274764D01*
Y276417D01*
X-59092Y276316D01*
D02*
G37*
G36*
X58206Y270833D02*
X58104Y270934D01*
X57900Y271108D01*
X57799Y271180D01*
X57699Y271243D01*
X57599Y271297D01*
X57499Y271340D01*
X57400Y271375D01*
X57301Y271399D01*
X57203Y271414D01*
X57207Y272008D01*
X57304Y272003D01*
X57402Y272010D01*
X57500Y272028D01*
X57600Y272059D01*
X57701Y272101D01*
X57802Y272154D01*
X57904Y272220D01*
X58008Y272297D01*
X58112Y272386D01*
X58217Y272486D01*
X58206Y270833D01*
D02*
G37*
G36*
X-16591Y271811D02*
X-16695Y271912D01*
X-16901Y272082D01*
X-17003Y272151D01*
X-17104Y272210D01*
X-17205Y272257D01*
X-17305Y272295D01*
X-17404Y272321D01*
X-17502Y272337D01*
X-17600Y272342D01*
Y272933D01*
X-17502Y272938D01*
X-17404Y272954D01*
X-17305Y272981D01*
X-17205Y273018D01*
X-17104Y273066D01*
X-17003Y273124D01*
X-16901Y273194D01*
X-16799Y273273D01*
X-16695Y273364D01*
X-16591Y273465D01*
Y271811D01*
D02*
G37*
G36*
X-61061Y273364D02*
X-60855Y273194D01*
X-60753Y273124D01*
X-60652Y273066D01*
X-60551Y273018D01*
X-60451Y272981D01*
X-60352Y272954D01*
X-60254Y272938D01*
X-60156Y272933D01*
Y272342D01*
X-60254Y272337D01*
X-60352Y272321D01*
X-60451Y272295D01*
X-60551Y272257D01*
X-60652Y272210D01*
X-60753Y272151D01*
X-60855Y272082D01*
X-60957Y272002D01*
X-61061Y271912D01*
X-61164Y271811D01*
Y273465D01*
X-61061Y273364D01*
D02*
G37*
G36*
X-30371Y268858D02*
X-30475Y268959D01*
X-30681Y269129D01*
X-30782Y269198D01*
X-30884Y269257D01*
X-30984Y269305D01*
X-31084Y269342D01*
X-31183Y269369D01*
X-31282Y269385D01*
X-31380Y269390D01*
Y269980D01*
X-31282Y269986D01*
X-31183Y270002D01*
X-31084Y270028D01*
X-30984Y270065D01*
X-30884Y270113D01*
X-30782Y270172D01*
X-30681Y270241D01*
X-30578Y270321D01*
X-30475Y270411D01*
X-30371Y270512D01*
Y268858D01*
D02*
G37*
G36*
X-59092Y270411D02*
X-58886Y270241D01*
X-58784Y270172D01*
X-58683Y270113D01*
X-58583Y270065D01*
X-58483Y270028D01*
X-58384Y270002D01*
X-58285Y269986D01*
X-58187Y269980D01*
Y269390D01*
X-58285Y269385D01*
X-58384Y269369D01*
X-58483Y269342D01*
X-58583Y269305D01*
X-58683Y269257D01*
X-58784Y269198D01*
X-58886Y269129D01*
X-58989Y269050D01*
X-59092Y268959D01*
X-59196Y268858D01*
Y270512D01*
X-59092Y270411D01*
D02*
G37*
G36*
X-10650Y265905D02*
X-10754Y266006D01*
X-10960Y266177D01*
X-11061Y266246D01*
X-11163Y266304D01*
X-11263Y266352D01*
X-11363Y266389D01*
X-11462Y266416D01*
X-11561Y266432D01*
X-11659Y266437D01*
Y267028D01*
X-11561Y267033D01*
X-11462Y267049D01*
X-11363Y267075D01*
X-11263Y267113D01*
X-11163Y267160D01*
X-11061Y267219D01*
X-10960Y267288D01*
X-10857Y267368D01*
X-10754Y267458D01*
X-10650Y267559D01*
Y265905D01*
D02*
G37*
G36*
X-61061Y267458D02*
X-60855Y267288D01*
X-60753Y267219D01*
X-60652Y267160D01*
X-60551Y267113D01*
X-60451Y267075D01*
X-60352Y267049D01*
X-60254Y267033D01*
X-60156Y267028D01*
Y266437D01*
X-60254Y266432D01*
X-60352Y266416D01*
X-60451Y266389D01*
X-60551Y266352D01*
X-60652Y266304D01*
X-60753Y266246D01*
X-60855Y266177D01*
X-60957Y266097D01*
X-61061Y266006D01*
X-61164Y265905D01*
Y267559D01*
X-61061Y267458D01*
D02*
G37*
G36*
X-58431Y238117D02*
X-58513Y238030D01*
X-58586Y237943D01*
X-58651Y237855D01*
X-58707Y237766D01*
X-58754Y237676D01*
X-58792Y237585D01*
X-58822Y237494D01*
X-58843Y237403D01*
X-58855Y237310D01*
X-58858Y237216D01*
X-60028Y238386D01*
X-59934Y238389D01*
X-59842Y238401D01*
X-59750Y238422D01*
X-59659Y238452D01*
X-59568Y238490D01*
X-59478Y238537D01*
X-59390Y238593D01*
X-59301Y238658D01*
X-59214Y238731D01*
X-59127Y238813D01*
X-58431Y238117D01*
D02*
G37*
G36*
X-58521Y233384D02*
X-58586Y233311D01*
X-58645Y233230D01*
X-58696Y233141D01*
X-58740Y233045D01*
X-58778Y232940D01*
X-58808Y232827D01*
X-58831Y232706D01*
X-58847Y232577D01*
X-58856Y232440D01*
X-58858Y232295D01*
X-60028Y233465D01*
X-59883Y233467D01*
X-59617Y233492D01*
X-59496Y233515D01*
X-59383Y233545D01*
X-59278Y233582D01*
X-59181Y233627D01*
X-59092Y233678D01*
X-59011Y233736D01*
X-58938Y233802D01*
X-58521Y233384D01*
D02*
G37*
G36*
X-116085Y300627D02*
X-116135Y300600D01*
X-116179Y300556D01*
X-116218Y300494D01*
X-116250Y300414D01*
X-116277Y300317D01*
X-116297Y300201D01*
X-116312Y300069D01*
X-116324Y299750D01*
X-116915D01*
X-116918Y299918D01*
X-116941Y300201D01*
X-116962Y300317D01*
X-116988Y300414D01*
X-117021Y300494D01*
X-117059Y300556D01*
X-117104Y300600D01*
X-117154Y300627D01*
X-117210Y300636D01*
X-116029D01*
X-116085Y300627D01*
D02*
G37*
G36*
X-115914Y279182D02*
X-115859Y279102D01*
X-115794Y279030D01*
X-115717Y278965D01*
X-115630Y278907D01*
X-115532Y278858D01*
X-115422Y278815D01*
X-115302Y278780D01*
X-115171Y278753D01*
X-115030Y278733D01*
X-116329Y277711D01*
X-116313Y277855D01*
X-116299Y278126D01*
X-116300Y278253D01*
X-116322Y278490D01*
X-116342Y278599D01*
X-116368Y278703D01*
X-116400Y278801D01*
X-116437Y278893D01*
X-115958Y279270D01*
X-115914Y279182D01*
D02*
G37*
G36*
X30100Y268417D02*
X30200Y268325D01*
X30300Y268244D01*
X30400Y268174D01*
X30499Y268115D01*
X30598Y268066D01*
X30698Y268028D01*
X30797Y268001D01*
X30895Y267985D01*
X30994Y267979D01*
X30977Y267389D01*
X30880Y267384D01*
X30782Y267368D01*
X30683Y267342D01*
X30582Y267305D01*
X30480Y267258D01*
X30377Y267201D01*
X30273Y267133D01*
X30168Y267055D01*
X30062Y266966D01*
X29954Y266867D01*
X30000Y268520D01*
X30100Y268417D01*
D02*
G37*
G36*
X44038Y266857D02*
X43935Y266958D01*
X43729Y267128D01*
X43627Y267198D01*
X43526Y267256D01*
X43425Y267304D01*
X43325Y267341D01*
X43226Y267368D01*
X43128Y267384D01*
X43030Y267389D01*
Y267979D01*
X43128Y267985D01*
X43226Y268001D01*
X43325Y268027D01*
X43425Y268064D01*
X43526Y268112D01*
X43627Y268171D01*
X43729Y268240D01*
X43831Y268320D01*
X43935Y268410D01*
X44038Y268511D01*
Y266857D01*
D02*
G37*
G36*
X51322Y240504D02*
X51218Y240605D01*
X51012Y240775D01*
X50910Y240844D01*
X50809Y240903D01*
X50709Y240950D01*
X50609Y240988D01*
X50510Y241014D01*
X50411Y241030D01*
X50313Y241036D01*
Y241626D01*
X50411Y241631D01*
X50510Y241647D01*
X50609Y241674D01*
X50709Y241711D01*
X50809Y241759D01*
X50910Y241817D01*
X51012Y241886D01*
X51115Y241966D01*
X51218Y242057D01*
X51322Y242158D01*
Y240504D01*
D02*
G37*
G36*
X29214Y240078D02*
X29133Y240023D01*
X29059Y239959D01*
X28993Y239885D01*
X28934Y239801D01*
X28883Y239707D01*
X28839Y239604D01*
X28802Y239490D01*
X28773Y239367D01*
X28751Y239233D01*
X28737Y239090D01*
X27665Y240350D01*
X27810Y240339D01*
X28081Y240338D01*
X28207Y240347D01*
X28326Y240362D01*
X28439Y240384D01*
X28545Y240412D01*
X28645Y240446D01*
X28738Y240487D01*
X28825Y240534D01*
X29214Y240078D01*
D02*
G37*
G36*
X164490Y249135D02*
X164695Y248965D01*
X164797Y248896D01*
X164899Y248837D01*
X164999Y248790D01*
X165099Y248752D01*
X165198Y248726D01*
X165297Y248710D01*
X165395Y248705D01*
Y248114D01*
X165297Y248109D01*
X165198Y248093D01*
X165099Y248066D01*
X164999Y248029D01*
X164899Y247981D01*
X164797Y247923D01*
X164695Y247854D01*
X164593Y247774D01*
X164490Y247684D01*
X164386Y247583D01*
Y249236D01*
X164490Y249135D01*
D02*
G37*
G36*
X179287Y245154D02*
X179368Y245095D01*
X179457Y245044D01*
X179554Y245000D01*
X179659Y244963D01*
X179772Y244932D01*
X179893Y244909D01*
X180021Y244893D01*
X180158Y244884D01*
X180303Y244882D01*
X179134Y243713D01*
X179132Y243858D01*
X179107Y244123D01*
X179084Y244244D01*
X179053Y244357D01*
X179016Y244462D01*
X178972Y244559D01*
X178920Y244648D01*
X178862Y244729D01*
X178796Y244802D01*
X179214Y245219D01*
X179287Y245154D01*
D02*
G37*
G36*
X-113470Y239226D02*
X-113493Y239178D01*
X-113503Y239125D01*
X-113500Y239068D01*
X-113485Y239007D01*
X-113457Y238941D01*
X-113416Y238871D01*
X-113363Y238797D01*
X-113296Y238718D01*
X-113218Y238635D01*
X-113635Y238218D01*
X-113718Y238297D01*
X-113797Y238363D01*
X-113871Y238416D01*
X-113941Y238457D01*
X-114007Y238485D01*
X-114068Y238500D01*
X-114125Y238503D01*
X-114178Y238493D01*
X-114226Y238470D01*
X-114270Y238435D01*
X-113435Y239270D01*
X-113470Y239226D01*
D02*
G37*
G36*
X-100056Y234311D02*
X-100160Y234412D01*
X-100366Y234582D01*
X-100468Y234651D01*
X-100569Y234710D01*
X-100669Y234757D01*
X-100769Y234795D01*
X-100868Y234821D01*
X-100967Y234837D01*
X-101065Y234842D01*
Y235433D01*
X-100967Y235438D01*
X-100868Y235454D01*
X-100769Y235481D01*
X-100669Y235518D01*
X-100569Y235566D01*
X-100468Y235624D01*
X-100366Y235694D01*
X-100263Y235773D01*
X-100160Y235864D01*
X-100056Y235965D01*
Y234311D01*
D02*
G37*
G36*
X-70103Y261883D02*
X-70160Y261809D01*
X-70210Y261730D01*
X-70253Y261644D01*
X-70290Y261553D01*
X-70320Y261456D01*
X-70344Y261354D01*
X-70361Y261246D01*
X-70371Y261132D01*
X-70374Y261013D01*
X-71358D01*
X-71362Y261132D01*
X-71372Y261246D01*
X-71388Y261354D01*
X-71412Y261456D01*
X-71442Y261553D01*
X-71479Y261644D01*
X-71522Y261730D01*
X-71572Y261809D01*
X-71629Y261883D01*
X-71693Y261952D01*
X-70039D01*
X-70103Y261883D01*
D02*
G37*
G36*
X-70371Y227057D02*
X-70361Y226943D01*
X-70344Y226835D01*
X-70320Y226733D01*
X-70290Y226636D01*
X-70253Y226545D01*
X-70210Y226459D01*
X-70160Y226380D01*
X-70103Y226306D01*
X-70039Y226237D01*
X-71693D01*
X-71629Y226306D01*
X-71572Y226380D01*
X-71522Y226459D01*
X-71479Y226545D01*
X-71442Y226636D01*
X-71412Y226733D01*
X-71388Y226835D01*
X-71372Y226943D01*
X-71362Y227057D01*
X-71358Y227176D01*
X-70374D01*
X-70371Y227057D01*
D02*
G37*
G36*
X12537Y240194D02*
X12367Y239989D01*
X12298Y239887D01*
X12239Y239786D01*
X12191Y239685D01*
X12154Y239585D01*
X12128Y239486D01*
X12112Y239387D01*
X12106Y239289D01*
X11516D01*
X11510Y239387D01*
X11495Y239486D01*
X11468Y239585D01*
X11431Y239685D01*
X11383Y239786D01*
X11324Y239887D01*
X11255Y239989D01*
X11176Y240091D01*
X11085Y240194D01*
X10984Y240298D01*
X12638D01*
X12537Y240194D01*
D02*
G37*
G36*
X-20833Y240274D02*
X-20909Y240163D01*
X-20972Y240054D01*
X-21022Y239948D01*
X-21060Y239843D01*
X-21085Y239740D01*
X-21097Y239640D01*
X-21096Y239541D01*
X-21083Y239445D01*
X-21057Y239351D01*
X-21659Y239289D01*
X-21693Y239382D01*
X-21736Y239475D01*
X-21788Y239568D01*
X-21848Y239661D01*
X-21916Y239754D01*
X-21994Y239847D01*
X-22080Y239940D01*
X-22278Y240125D01*
X-22390Y240218D01*
X-20745Y240387D01*
X-20833Y240274D01*
D02*
G37*
G36*
X-17518Y239017D02*
X-17492Y238751D01*
X-17469Y238630D01*
X-17439Y238517D01*
X-17402Y238412D01*
X-17357Y238315D01*
X-17306Y238226D01*
X-17248Y238145D01*
X-17182Y238072D01*
X-17600Y237655D01*
X-17673Y237720D01*
X-17754Y237779D01*
X-17843Y237830D01*
X-17940Y237874D01*
X-18045Y237912D01*
X-18158Y237942D01*
X-18278Y237965D01*
X-18407Y237981D01*
X-18544Y237990D01*
X-18689Y237992D01*
X-17520Y239161D01*
X-17518Y239017D01*
D02*
G37*
G36*
X-23423D02*
X-23398Y238751D01*
X-23375Y238630D01*
X-23345Y238517D01*
X-23307Y238412D01*
X-23263Y238315D01*
X-23212Y238226D01*
X-23153Y238145D01*
X-23088Y238072D01*
X-23505Y237655D01*
X-23578Y237720D01*
X-23659Y237779D01*
X-23748Y237830D01*
X-23845Y237874D01*
X-23950Y237912D01*
X-24063Y237942D01*
X-24184Y237965D01*
X-24313Y237981D01*
X-24450Y237990D01*
X-24595Y237992D01*
X-23425Y239161D01*
X-23423Y239017D01*
D02*
G37*
G36*
X21429Y238269D02*
X21320Y238173D01*
X21128Y237982D01*
X21046Y237887D01*
X20973Y237791D01*
X20910Y237696D01*
X20855Y237601D01*
X20809Y237506D01*
X20773Y237410D01*
X20746Y237315D01*
X20149Y237361D01*
X20167Y237457D01*
X20173Y237554D01*
X20166Y237654D01*
X20147Y237755D01*
X20117Y237858D01*
X20074Y237962D01*
X20019Y238068D01*
X19951Y238175D01*
X19872Y238285D01*
X19780Y238396D01*
X21429Y238269D01*
D02*
G37*
G36*
X9994Y238016D02*
X9952Y237618D01*
X9949Y237495D01*
X9958Y237264D01*
X9970Y237156D01*
X9988Y237053D01*
X10011Y236955D01*
X9489Y236598D01*
X9463Y236693D01*
X9424Y236781D01*
X9373Y236860D01*
X9309Y236933D01*
X9233Y236998D01*
X9144Y237056D01*
X9043Y237106D01*
X8929Y237149D01*
X8802Y237185D01*
X8662Y237213D01*
X10019Y238159D01*
X9994Y238016D01*
D02*
G37*
G36*
X14960Y236778D02*
X14820Y236750D01*
X14694Y236715D01*
X14579Y236672D01*
X14478Y236621D01*
X14389Y236564D01*
X14313Y236498D01*
X14249Y236426D01*
X14198Y236346D01*
X14159Y236259D01*
X14133Y236164D01*
X13611Y236520D01*
X13634Y236619D01*
X13652Y236722D01*
X13664Y236830D01*
X13674Y237061D01*
X13670Y237184D01*
X13647Y237444D01*
X13628Y237582D01*
X13603Y237724D01*
X14960Y236778D01*
D02*
G37*
G36*
X19408Y234433D02*
X19353Y234350D01*
X19304Y234260D01*
X19261Y234164D01*
X19224Y234061D01*
X19194Y233950D01*
X19170Y233834D01*
X19152Y233710D01*
X19140Y233579D01*
X19135Y233298D01*
X17948Y234449D01*
X18093Y234454D01*
X18228Y234466D01*
X18355Y234487D01*
X18472Y234515D01*
X18580Y234551D01*
X18678Y234595D01*
X18768Y234646D01*
X18848Y234706D01*
X18919Y234773D01*
X18980Y234848D01*
X19408Y234433D01*
D02*
G37*
G36*
X19124Y233036D02*
X19128Y232766D01*
X19140Y232641D01*
X19159Y232523D01*
X19184Y232411D01*
X19215Y232307D01*
X19253Y232209D01*
X19298Y232117D01*
X19349Y232033D01*
X18902Y231639D01*
X18843Y231717D01*
X18775Y231788D01*
X18698Y231851D01*
X18611Y231907D01*
X18514Y231956D01*
X18408Y231997D01*
X18293Y232031D01*
X18169Y232058D01*
X18034Y232077D01*
X17891Y232088D01*
X19132Y233181D01*
X19124Y233036D01*
D02*
G37*
G36*
X-18959Y230352D02*
X-19129Y230146D01*
X-19198Y230044D01*
X-19257Y229943D01*
X-19305Y229842D01*
X-19342Y229743D01*
X-19368Y229643D01*
X-19385Y229545D01*
X-19390Y229447D01*
X-19980D01*
X-19986Y229545D01*
X-20002Y229643D01*
X-20028Y229743D01*
X-20065Y229842D01*
X-20113Y229943D01*
X-20172Y230044D01*
X-20241Y230146D01*
X-20321Y230249D01*
X-20411Y230352D01*
X-20512Y230456D01*
X-18858D01*
X-18959Y230352D01*
D02*
G37*
G36*
X24348Y217557D02*
X24178Y217351D01*
X24109Y217249D01*
X24050Y217148D01*
X24002Y217047D01*
X23965Y216947D01*
X23939Y216848D01*
X23923Y216750D01*
X23917Y216652D01*
X23327D01*
X23322Y216750D01*
X23305Y216848D01*
X23279Y216947D01*
X23242Y217047D01*
X23194Y217148D01*
X23135Y217249D01*
X23066Y217351D01*
X22987Y217453D01*
X22896Y217557D01*
X22795Y217660D01*
X24449D01*
X24348Y217557D01*
D02*
G37*
G36*
X-3442Y216728D02*
X-3587Y216724D01*
X-3723Y216713D01*
X-3851Y216694D01*
X-3969Y216668D01*
X-4079Y216633D01*
X-4179Y216592D01*
X-4271Y216542D01*
X-4354Y216485D01*
X-4427Y216421D01*
X-4492Y216348D01*
X-4915Y216765D01*
X-4857Y216845D01*
X-4805Y216933D01*
X-4759Y217027D01*
X-4720Y217129D01*
X-4687Y217237D01*
X-4661Y217353D01*
X-4641Y217476D01*
X-4628Y217606D01*
X-4620Y217887D01*
X-3442Y216728D01*
D02*
G37*
G36*
X17605Y215162D02*
X17462Y215145D01*
X17330Y215121D01*
X17208Y215089D01*
X17097Y215050D01*
X16996Y215003D01*
X16905Y214948D01*
X16825Y214886D01*
X16754Y214817D01*
X16695Y214740D01*
X16645Y214656D01*
X16178Y215039D01*
X16221Y215128D01*
X16257Y215224D01*
X16287Y215326D01*
X16311Y215434D01*
X16329Y215548D01*
X16341Y215668D01*
X16346Y215794D01*
X16339Y216066D01*
X16326Y216210D01*
X17605Y215162D01*
D02*
G37*
G36*
X28226Y215391D02*
X28056Y215185D01*
X27987Y215084D01*
X27928Y214982D01*
X27880Y214882D01*
X27843Y214782D01*
X27817Y214683D01*
X27801Y214584D01*
X27795Y214486D01*
X27205D01*
X27199Y214584D01*
X27183Y214683D01*
X27157Y214782D01*
X27120Y214882D01*
X27072Y214982D01*
X27013Y215084D01*
X26944Y215185D01*
X26865Y215288D01*
X26774Y215391D01*
X26673Y215495D01*
X28327D01*
X28226Y215391D01*
D02*
G37*
G36*
X8226D02*
X8056Y215185D01*
X7987Y215084D01*
X7928Y214982D01*
X7880Y214882D01*
X7843Y214782D01*
X7817Y214683D01*
X7801Y214584D01*
X7795Y214486D01*
X7205D01*
X7199Y214584D01*
X7183Y214683D01*
X7157Y214782D01*
X7120Y214882D01*
X7072Y214982D01*
X7013Y215084D01*
X6944Y215185D01*
X6865Y215288D01*
X6774Y215391D01*
X6673Y215495D01*
X8327D01*
X8226Y215391D01*
D02*
G37*
G36*
X3226D02*
X3056Y215185D01*
X2987Y215084D01*
X2928Y214982D01*
X2880Y214882D01*
X2843Y214782D01*
X2816Y214683D01*
X2801Y214584D01*
X2795Y214486D01*
X2205D01*
X2199Y214584D01*
X2183Y214683D01*
X2157Y214782D01*
X2120Y214882D01*
X2072Y214982D01*
X2013Y215084D01*
X1944Y215185D01*
X1865Y215288D01*
X1774Y215391D01*
X1673Y215495D01*
X3327D01*
X3226Y215391D01*
D02*
G37*
G36*
X-3211Y211651D02*
X-3381Y211445D01*
X-3450Y211344D01*
X-3509Y211242D01*
X-3557Y211142D01*
X-3594Y211042D01*
X-3621Y210943D01*
X-3636Y210844D01*
X-3642Y210746D01*
X-4232D01*
X-4238Y210844D01*
X-4253Y210943D01*
X-4280Y211042D01*
X-4317Y211142D01*
X-4365Y211242D01*
X-4424Y211344D01*
X-4493Y211445D01*
X-4572Y211548D01*
X-4663Y211651D01*
X-4764Y211755D01*
X-3110D01*
X-3211Y211651D01*
D02*
G37*
G36*
X-21912Y210667D02*
X-22082Y210461D01*
X-22151Y210359D01*
X-22210Y210258D01*
X-22257Y210157D01*
X-22295Y210058D01*
X-22321Y209958D01*
X-22337Y209860D01*
X-22343Y209762D01*
X-22933D01*
X-22938Y209860D01*
X-22954Y209958D01*
X-22981Y210058D01*
X-23018Y210157D01*
X-23066Y210258D01*
X-23124Y210359D01*
X-23193Y210461D01*
X-23273Y210564D01*
X-23364Y210667D01*
X-23465Y210771D01*
X-21811D01*
X-21912Y210667D01*
D02*
G37*
G36*
X27801Y200180D02*
X27817Y200081D01*
X27843Y199982D01*
X27880Y199882D01*
X27928Y199781D01*
X27987Y199680D01*
X28056Y199578D01*
X28135Y199476D01*
X28226Y199372D01*
X28327Y199269D01*
X26673D01*
X26774Y199372D01*
X26944Y199578D01*
X27013Y199680D01*
X27072Y199781D01*
X27120Y199882D01*
X27157Y199982D01*
X27183Y200081D01*
X27199Y200180D01*
X27205Y200277D01*
X27795D01*
X27801Y200180D01*
D02*
G37*
G36*
X2801Y197817D02*
X2816Y197719D01*
X2843Y197620D01*
X2880Y197520D01*
X2928Y197419D01*
X2987Y197318D01*
X3056Y197216D01*
X3135Y197114D01*
X3226Y197010D01*
X3327Y196906D01*
X1673D01*
X1774Y197010D01*
X1944Y197216D01*
X2013Y197318D01*
X2072Y197419D01*
X2120Y197520D01*
X2157Y197620D01*
X2183Y197719D01*
X2199Y197817D01*
X2205Y197915D01*
X2795D01*
X2801Y197817D01*
D02*
G37*
G36*
X301Y193684D02*
X316Y193585D01*
X343Y193486D01*
X380Y193386D01*
X428Y193285D01*
X487Y193184D01*
X556Y193082D01*
X635Y192980D01*
X726Y192877D01*
X827Y192773D01*
X-827D01*
X-726Y192877D01*
X-556Y193082D01*
X-487Y193184D01*
X-428Y193285D01*
X-380Y193386D01*
X-343Y193486D01*
X-317Y193585D01*
X-301Y193684D01*
X-295Y193781D01*
X295D01*
X301Y193684D01*
D02*
G37*
G36*
X20965Y193781D02*
X20970Y193684D01*
X20986Y193585D01*
X21012Y193486D01*
X21050Y193386D01*
X21097Y193285D01*
X21156Y193184D01*
X21225Y193082D01*
X21305Y192980D01*
X21395Y192876D01*
X21496Y192773D01*
X19842Y192773D01*
X19943Y192877D01*
X20114Y193082D01*
X20183Y193184D01*
X20241Y193285D01*
X20289Y193386D01*
X20326Y193486D01*
X20353Y193585D01*
X20369Y193684D01*
X20374Y193781D01*
X20965Y193781D01*
D02*
G37*
G36*
X13156Y193210D02*
X13110Y193122D01*
X13071Y193027D01*
X13039Y192926D01*
X13012Y192819D01*
X12992Y192706D01*
X12979Y192586D01*
X12971Y192460D01*
X12975Y192190D01*
X12986Y192045D01*
X11719Y193107D01*
X11862Y193122D01*
X11995Y193145D01*
X12117Y193175D01*
X12230Y193213D01*
X12333Y193258D01*
X12425Y193311D01*
X12508Y193371D01*
X12580Y193438D01*
X12643Y193513D01*
X12695Y193596D01*
X13156Y193210D01*
D02*
G37*
G36*
X-10674Y193513D02*
X-10612Y193438D01*
X-10539Y193371D01*
X-10457Y193310D01*
X-10364Y193258D01*
X-10262Y193213D01*
X-10149Y193175D01*
X-10026Y193145D01*
X-9894Y193122D01*
X-9751Y193107D01*
X-11018Y192045D01*
X-11007Y192190D01*
X-11003Y192460D01*
X-11010Y192586D01*
X-11024Y192706D01*
X-11044Y192819D01*
X-11070Y192926D01*
X-11103Y193027D01*
X-11142Y193121D01*
X-11187Y193210D01*
X-10727Y193596D01*
X-10674Y193513D01*
D02*
G37*
G36*
X6519Y193030D02*
X6453Y192957D01*
X6395Y192876D01*
X6343Y192787D01*
X6299Y192690D01*
X6262Y192585D01*
X6231Y192472D01*
X6208Y192351D01*
X6192Y192223D01*
X6183Y192086D01*
X6181Y191941D01*
X5012Y193110D01*
X5157Y193112D01*
X5422Y193137D01*
X5543Y193161D01*
X5656Y193191D01*
X5761Y193228D01*
X5858Y193272D01*
X5947Y193324D01*
X6028Y193382D01*
X6101Y193448D01*
X6519Y193030D01*
D02*
G37*
G36*
X9156Y190731D02*
X9172Y190632D01*
X9199Y190533D01*
X9236Y190433D01*
X9284Y190332D01*
X9342Y190231D01*
X9411Y190129D01*
X9491Y190027D01*
X9582Y189924D01*
X9683Y189820D01*
X8029D01*
X8130Y189924D01*
X8300Y190129D01*
X8369Y190231D01*
X8428Y190332D01*
X8475Y190433D01*
X8513Y190533D01*
X8539Y190632D01*
X8555Y190731D01*
X8561Y190829D01*
X9151D01*
X9156Y190731D01*
D02*
G37*
G36*
X16049Y190731D02*
X16064Y190632D01*
X16091Y190533D01*
X16128Y190433D01*
X16176Y190332D01*
X16235Y190231D01*
X16304Y190129D01*
X16383Y190027D01*
X16474Y189924D01*
X16575Y189820D01*
X14921D01*
X15022Y189924D01*
X15192Y190129D01*
X15261Y190231D01*
X15320Y190332D01*
X15368Y190433D01*
X15405Y190533D01*
X15431Y190632D01*
X15447Y190731D01*
X15453Y190829D01*
X16043D01*
X16049Y190731D01*
D02*
G37*
G36*
X3056D02*
X3072Y190632D01*
X3099Y190533D01*
X3136Y190433D01*
X3184Y190332D01*
X3243Y190231D01*
X3312Y190129D01*
X3391Y190027D01*
X3482Y189924D01*
X3583Y189820D01*
X1929D01*
X2030Y189924D01*
X2200Y190129D01*
X2269Y190231D01*
X2328Y190332D01*
X2376Y190433D01*
X2413Y190533D01*
X2439Y190632D01*
X2455Y190731D01*
X2461Y190829D01*
X3051D01*
X3056Y190731D01*
D02*
G37*
G36*
X-3642Y190829D02*
X-3636Y190731D01*
X-3621Y190632D01*
X-3594Y190533D01*
X-3557Y190433D01*
X-3509Y190332D01*
X-3450Y190231D01*
X-3381Y190129D01*
X-3302Y190027D01*
X-3211Y189924D01*
X-3110Y189820D01*
X-4764Y189820D01*
X-4663Y189924D01*
X-4493Y190129D01*
X-4424Y190231D01*
X-4365Y190332D01*
X-4317Y190433D01*
X-4280Y190533D01*
X-4253Y190632D01*
X-4238Y190731D01*
X-4232Y190829D01*
X-3642Y190829D01*
D02*
G37*
G36*
X-14384Y190661D02*
X-14346Y190574D01*
X-14295Y190494D01*
X-14231Y190421D01*
X-14154Y190356D01*
X-14065Y190298D01*
X-13964Y190248D01*
X-13850Y190205D01*
X-13723Y190169D01*
X-13584Y190141D01*
X-14940Y189196D01*
X-14915Y189338D01*
X-14873Y189736D01*
X-14870Y189859D01*
X-14879Y190090D01*
X-14891Y190198D01*
X-14909Y190301D01*
X-14933Y190399D01*
X-14410Y190756D01*
X-14384Y190661D01*
D02*
G37*
G36*
X23763Y185197D02*
X23659Y185298D01*
X23453Y185468D01*
X23351Y185537D01*
X23250Y185596D01*
X23150Y185643D01*
X23050Y185680D01*
X22951Y185707D01*
X22852Y185723D01*
X22754Y185728D01*
Y186319D01*
X22852Y186324D01*
X22951Y186340D01*
X23050Y186367D01*
X23150Y186404D01*
X23250Y186452D01*
X23351Y186510D01*
X23453Y186579D01*
X23556Y186659D01*
X23659Y186749D01*
X23763Y186850D01*
Y185197D01*
D02*
G37*
G36*
X26716Y182244D02*
X26612Y182345D01*
X26406Y182515D01*
X26304Y182584D01*
X26203Y182643D01*
X26102Y182691D01*
X26002Y182728D01*
X25903Y182754D01*
X25805Y182770D01*
X25707Y182776D01*
Y183366D01*
X25805Y183371D01*
X25903Y183387D01*
X26002Y183414D01*
X26102Y183451D01*
X26203Y183499D01*
X26304Y183557D01*
X26406Y183627D01*
X26509Y183706D01*
X26612Y183797D01*
X26716Y183898D01*
Y182244D01*
D02*
G37*
G36*
X106018Y183124D02*
X105995Y183075D01*
X105985Y183023D01*
X105988Y182966D01*
X106003Y182905D01*
X106031Y182839D01*
X106072Y182769D01*
X106126Y182694D01*
X106192Y182616D01*
X106212Y182594D01*
X106255Y182555D01*
X106336Y182497D01*
X106425Y182446D01*
X106522Y182401D01*
X106627Y182364D01*
X106740Y182334D01*
X106861Y182311D01*
X106990Y182294D01*
X107127Y182285D01*
X107272Y182283D01*
X106102Y181114D01*
X106100Y181259D01*
X106075Y181525D01*
X106052Y181646D01*
X106022Y181759D01*
X105984Y181863D01*
X105940Y181960D01*
X105889Y182049D01*
X105830Y182130D01*
X105792Y182173D01*
X105770Y182194D01*
X105691Y182260D01*
X105617Y182314D01*
X105547Y182354D01*
X105481Y182383D01*
X105420Y182398D01*
X105363Y182401D01*
X105310Y182391D01*
X105262Y182368D01*
X105218Y182333D01*
X106053Y183168D01*
X106018Y183124D01*
D02*
G37*
G36*
X12580Y150534D02*
X12598Y150484D01*
X12629Y150440D01*
X12671Y150402D01*
X12725Y150369D01*
X12791Y150343D01*
X12870Y150322D01*
X12960Y150307D01*
X13062Y150298D01*
X13177Y150295D01*
Y149705D01*
X13062Y149702D01*
X12960Y149693D01*
X12870Y149678D01*
X12791Y149657D01*
X12725Y149631D01*
X12671Y149598D01*
X12629Y149560D01*
X12598Y149516D01*
X12580Y149466D01*
X12574Y149409D01*
Y150591D01*
X12580Y150534D01*
D02*
G37*
G36*
X23321Y149173D02*
X23217Y149274D01*
X23012Y149444D01*
X22910Y149513D01*
X22809Y149572D01*
X22708Y149620D01*
X22608Y149657D01*
X22509Y149683D01*
X22411Y149699D01*
X22313Y149705D01*
Y150295D01*
X22411Y150301D01*
X22509Y150317D01*
X22608Y150343D01*
X22708Y150380D01*
X22809Y150428D01*
X22910Y150487D01*
X23012Y150556D01*
X23114Y150635D01*
X23217Y150726D01*
X23321Y150827D01*
Y149173D01*
D02*
G37*
G36*
X192296Y144878D02*
X192208Y144836D01*
X192127Y144783D01*
X192054Y144719D01*
X191988Y144644D01*
X191930Y144557D01*
X191879Y144460D01*
X191836Y144351D01*
X191800Y144232D01*
X191772Y144101D01*
X191751Y143960D01*
X190736Y145265D01*
X190880Y145248D01*
X191152Y145232D01*
X191279Y145233D01*
X191516Y145252D01*
X191626Y145271D01*
X191730Y145295D01*
X191829Y145326D01*
X191921Y145362D01*
X192296Y144878D01*
D02*
G37*
G36*
X193751Y144933D02*
X193708Y144982D01*
X193657Y145024D01*
X193597Y145057D01*
X193531Y145084D01*
X193456Y145103D01*
X193375Y145115D01*
X193285Y145119D01*
X193187Y145115D01*
X193082Y145104D01*
X192970Y145086D01*
X192567Y145593D01*
X192679Y145617D01*
X192775Y145645D01*
X192854Y145676D01*
X192918Y145710D01*
X192965Y145748D01*
X192997Y145789D01*
X193012Y145833D01*
X193010Y145880D01*
X192993Y145930D01*
X192959Y145984D01*
X193751Y144933D01*
D02*
G37*
G36*
X135310Y142604D02*
X135301Y142660D01*
X135275Y142710D01*
X135230Y142754D01*
X135168Y142793D01*
X135089Y142825D01*
X134991Y142852D01*
X134876Y142872D01*
X134743Y142887D01*
X134424Y142899D01*
Y143489D01*
X134593Y143492D01*
X134876Y143516D01*
X134991Y143537D01*
X135089Y143563D01*
X135168Y143596D01*
X135230Y143634D01*
X135275Y143678D01*
X135301Y143729D01*
X135310Y143785D01*
Y142604D01*
D02*
G37*
G36*
X131375Y143920D02*
X131581Y143750D01*
X131683Y143681D01*
X131784Y143622D01*
X131885Y143575D01*
X131984Y143537D01*
X132084Y143511D01*
X132182Y143495D01*
X132280Y143489D01*
Y142899D01*
X132182Y142894D01*
X132084Y142878D01*
X131984Y142851D01*
X131885Y142814D01*
X131784Y142766D01*
X131683Y142708D01*
X131581Y142639D01*
X131478Y142559D01*
X131375Y142468D01*
X131271Y142367D01*
Y144021D01*
X131375Y143920D01*
D02*
G37*
G36*
X70585Y142769D02*
X70562Y142721D01*
X70552Y142668D01*
X70555Y142612D01*
X70570Y142550D01*
X70598Y142485D01*
X70639Y142415D01*
X70692Y142340D01*
X70759Y142262D01*
X70779Y142240D01*
X70822Y142201D01*
X70903Y142143D01*
X70992Y142091D01*
X71089Y142047D01*
X71194Y142010D01*
X71307Y141980D01*
X71428Y141956D01*
X71557Y141940D01*
X71694Y141931D01*
X71839Y141929D01*
X70669Y140760D01*
X70667Y140905D01*
X70642Y141170D01*
X70619Y141291D01*
X70589Y141404D01*
X70551Y141509D01*
X70507Y141606D01*
X70456Y141695D01*
X70397Y141776D01*
X70359Y141819D01*
X70337Y141840D01*
X70258Y141906D01*
X70184Y141959D01*
X70114Y142000D01*
X70048Y142028D01*
X69987Y142044D01*
X69930Y142046D01*
X69877Y142036D01*
X69829Y142014D01*
X69785Y141978D01*
X70620Y142813D01*
X70585Y142769D01*
D02*
G37*
G36*
X-12574Y136221D02*
X-12580Y136277D01*
X-12598Y136327D01*
X-12629Y136371D01*
X-12671Y136409D01*
X-12725Y136442D01*
X-12791Y136469D01*
X-12870Y136489D01*
X-12960Y136504D01*
X-13062Y136513D01*
X-13177Y136516D01*
Y137106D01*
X-13062Y137109D01*
X-12960Y137118D01*
X-12870Y137133D01*
X-12791Y137153D01*
X-12725Y137180D01*
X-12671Y137213D01*
X-12629Y137251D01*
X-12598Y137295D01*
X-12580Y137346D01*
X-12574Y137402D01*
Y136221D01*
D02*
G37*
G36*
X-24643Y137537D02*
X-24438Y137367D01*
X-24336Y137298D01*
X-24234Y137239D01*
X-24134Y137191D01*
X-24034Y137154D01*
X-23935Y137127D01*
X-23836Y137112D01*
X-23738Y137106D01*
Y136516D01*
X-23836Y136510D01*
X-23935Y136495D01*
X-24034Y136468D01*
X-24134Y136431D01*
X-24234Y136383D01*
X-24336Y136324D01*
X-24438Y136255D01*
X-24540Y136176D01*
X-24643Y136085D01*
X-24747Y135984D01*
Y137638D01*
X-24643Y137537D01*
D02*
G37*
G36*
X3923Y137548D02*
X3923Y137277D01*
X3932Y137152D01*
X3948Y137032D01*
X3970Y136920D01*
X3999Y136814D01*
X4034Y136714D01*
X4075Y136621D01*
X4123Y136535D01*
X3669Y136145D01*
X3613Y136226D01*
X3548Y136299D01*
X3474Y136365D01*
X3389Y136423D01*
X3295Y136474D01*
X3191Y136517D01*
X3077Y136553D01*
X2953Y136582D01*
X2820Y136603D01*
X2677Y136617D01*
X3932Y137692D01*
X3923Y137548D01*
D02*
G37*
G36*
X12606Y139255D02*
X12665Y139162D01*
X12764Y139080D01*
X12901Y139009D01*
X13079Y138950D01*
X13295Y138900D01*
X13551Y138862D01*
X13846Y138835D01*
X14555Y138813D01*
Y136845D01*
X14179Y136835D01*
X13843Y136805D01*
X13546Y136756D01*
X13289Y136687D01*
X13071Y136599D01*
X12893Y136490D01*
X12754Y136363D01*
X12655Y136215D01*
X12595Y136048D01*
X12574Y135861D01*
X12586Y139358D01*
X12606Y139255D01*
D02*
G37*
G36*
X5298Y129795D02*
X5307Y129692D01*
X5322Y129602D01*
X5342Y129524D01*
X5369Y129457D01*
X5402Y129403D01*
X5440Y129361D01*
X5484Y129331D01*
X5534Y129313D01*
X5590Y129307D01*
X4409D01*
X4465Y129313D01*
X4516Y129331D01*
X4560Y129361D01*
X4598Y129403D01*
X4631Y129457D01*
X4657Y129524D01*
X4678Y129602D01*
X4693Y129692D01*
X4702Y129795D01*
X4705Y129909D01*
X5295D01*
X5298Y129795D01*
D02*
G37*
G36*
X-6551Y124016D02*
X-6571Y124203D01*
X-6630Y124370D01*
X-6729Y124518D01*
X-6868Y124646D01*
X-7046Y124754D01*
X-7264Y124843D01*
X-7521Y124911D01*
X-7818Y124961D01*
X-8155Y124990D01*
X-8531Y125000D01*
Y126969D01*
X-8155Y126978D01*
X-7818Y127008D01*
X-7521Y127057D01*
X-7264Y127126D01*
X-7046Y127215D01*
X-6868Y127323D01*
X-6729Y127451D01*
X-6630Y127598D01*
X-6571Y127766D01*
X-6551Y127953D01*
Y124016D01*
D02*
G37*
G36*
X-204930Y150988D02*
X-205012Y150905D01*
X-205084Y150798D01*
X-205147Y150668D01*
X-205200Y150513D01*
X-205244Y150334D01*
X-205277Y150131D01*
X-205302Y149904D01*
X-205321Y149378D01*
X-206305Y148752D01*
X-206310Y149051D01*
X-206349Y149539D01*
X-206383Y149729D01*
X-206426Y149883D01*
X-206480Y150000D01*
X-206543Y150080D01*
X-206615Y150124D01*
X-206698Y150132D01*
X-206790Y150103D01*
X-204838Y151047D01*
X-204930Y150988D01*
D02*
G37*
G36*
X-216253Y135366D02*
X-216339Y135283D01*
X-216414Y135176D01*
X-216479Y135046D01*
X-216534Y134892D01*
X-216580Y134715D01*
X-216615Y134514D01*
X-216640Y134290D01*
X-216660Y133771D01*
X-217644Y133145D01*
X-217649Y133441D01*
X-217689Y133924D01*
X-217724Y134112D01*
X-217769Y134263D01*
X-217824Y134378D01*
X-217889Y134457D01*
X-217964Y134500D01*
X-218049Y134506D01*
X-218143Y134477D01*
X-216158Y135425D01*
X-216253Y135366D01*
D02*
G37*
G36*
X-240519Y102881D02*
X-240609Y102922D01*
X-240704Y102945D01*
X-240804Y102948D01*
X-240910Y102933D01*
X-241021Y102898D01*
X-241137Y102844D01*
X-241259Y102770D01*
X-241386Y102678D01*
X-241518Y102566D01*
X-241656Y102436D01*
X-242526Y102958D01*
X-242441Y103044D01*
X-242038Y103505D01*
X-241989Y103573D01*
X-241905Y103700D01*
X-240519Y102881D01*
D02*
G37*
G36*
X-227418Y102568D02*
X-227379Y102115D01*
X-227345Y101937D01*
X-227301Y101792D01*
X-227248Y101679D01*
X-227185Y101599D01*
X-227112Y101551D01*
X-227029Y101536D01*
X-226937Y101553D01*
X-228889Y100878D01*
X-228797Y100926D01*
X-228715Y101004D01*
X-228643Y101111D01*
X-228580Y101248D01*
X-228527Y101414D01*
X-228484Y101610D01*
X-228450Y101835D01*
X-228426Y102090D01*
X-228407Y102688D01*
X-227423Y102843D01*
X-227418Y102568D01*
D02*
G37*
G36*
X-242439Y101653D02*
X-242521Y101566D01*
X-242594Y101479D01*
X-242659Y101390D01*
X-242715Y101301D01*
X-242762Y101212D01*
X-242800Y101121D01*
X-242830Y101030D01*
X-242850Y100938D01*
X-242863Y100846D01*
X-242866Y100752D01*
X-244035Y101922D01*
X-243942Y101925D01*
X-243849Y101937D01*
X-243758Y101958D01*
X-243666Y101988D01*
X-243576Y102026D01*
X-243486Y102073D01*
X-243397Y102129D01*
X-243309Y102193D01*
X-243222Y102267D01*
X-243135Y102349D01*
X-242439Y101653D01*
D02*
G37*
G36*
X174354Y110886D02*
X174250Y110987D01*
X174044Y111157D01*
X173942Y111226D01*
X173841Y111285D01*
X173740Y111333D01*
X173641Y111370D01*
X173541Y111396D01*
X173443Y111412D01*
X173345Y111418D01*
Y112008D01*
X173443Y112013D01*
X173541Y112030D01*
X173641Y112056D01*
X173740Y112093D01*
X173841Y112141D01*
X173942Y112199D01*
X174044Y112269D01*
X174147Y112348D01*
X174250Y112439D01*
X174354Y112540D01*
Y110886D01*
D02*
G37*
G36*
X132345Y112439D02*
X132550Y112269D01*
X132652Y112199D01*
X132753Y112141D01*
X132854Y112093D01*
X132954Y112056D01*
X133053Y112030D01*
X133152Y112013D01*
X133250Y112008D01*
Y111418D01*
X133152Y111412D01*
X133053Y111396D01*
X132954Y111370D01*
X132854Y111333D01*
X132753Y111285D01*
X132652Y111226D01*
X132550Y111157D01*
X132448Y111077D01*
X132345Y110987D01*
X132241Y110886D01*
Y112540D01*
X132345Y112439D01*
D02*
G37*
G36*
X129884Y108009D02*
X130090Y107839D01*
X130192Y107770D01*
X130293Y107712D01*
X130394Y107664D01*
X130494Y107627D01*
X130593Y107600D01*
X130691Y107584D01*
X130789Y107579D01*
Y106988D01*
X130691Y106983D01*
X130593Y106967D01*
X130494Y106940D01*
X130394Y106903D01*
X130293Y106855D01*
X130192Y106797D01*
X130090Y106728D01*
X129988Y106648D01*
X129884Y106558D01*
X129780Y106457D01*
Y108110D01*
X129884Y108009D01*
D02*
G37*
G36*
X239207Y101461D02*
X239152Y101464D01*
X239102Y101450D01*
X239059Y101417D01*
X239021Y101366D01*
X238990Y101298D01*
X238964Y101211D01*
X238943Y101106D01*
X238929Y100983D01*
X238920Y100842D01*
X238917Y100683D01*
X238327Y100623D01*
X238324Y100819D01*
X238301Y101153D01*
X238281Y101290D01*
X238256Y101409D01*
X238224Y101508D01*
X238187Y101588D01*
X238144Y101648D01*
X238096Y101690D01*
X238042Y101712D01*
X239207Y101461D01*
D02*
G37*
G36*
X218695Y134944D02*
X218603Y134949D01*
X218521Y134922D01*
X218448Y134864D01*
X218385Y134774D01*
X218332Y134654D01*
X218288Y134502D01*
X218254Y134318D01*
X218230Y134103D01*
X218215Y133857D01*
X218210Y133579D01*
X217226Y133711D01*
X217221Y134005D01*
X217183Y134507D01*
X217149Y134714D01*
X217106Y134893D01*
X217052Y135043D01*
X216990Y135164D01*
X216917Y135257D01*
X216835Y135320D01*
X216744Y135355D01*
X218695Y134944D01*
D02*
G37*
G36*
X218215Y118483D02*
X218254Y117922D01*
X218287Y117691D01*
X218331Y117493D01*
X218384Y117329D01*
X218446Y117198D01*
X218519Y117100D01*
X218601Y117036D01*
X218692Y117004D01*
X216740Y117301D01*
X216832Y117301D01*
X216915Y117329D01*
X216988Y117386D01*
X217051Y117472D01*
X217105Y117587D01*
X217148Y117730D01*
X217182Y117903D01*
X217207Y118104D01*
X217221Y118333D01*
X217226Y118592D01*
X218210Y118814D01*
X218215Y118483D01*
D02*
G37*
G36*
X108224Y99878D02*
X108305Y99820D01*
X108334Y99803D01*
X108420Y99887D01*
X108404Y99863D01*
X108398Y99832D01*
X108403Y99796D01*
X108417Y99758D01*
X108491Y99724D01*
X108596Y99687D01*
X108709Y99657D01*
X108830Y99634D01*
X108958Y99617D01*
X109095Y99608D01*
X109240Y99606D01*
X108071Y98437D01*
X108069Y98582D01*
X108044Y98848D01*
X108020Y98968D01*
X107990Y99081D01*
X107953Y99186D01*
X107941Y99213D01*
X107882Y99227D01*
X107825Y99230D01*
X107772Y99221D01*
X107723Y99198D01*
X107679Y99163D01*
X107870Y99350D01*
X107857Y99372D01*
X107799Y99453D01*
X107733Y99526D01*
X108151Y99944D01*
X108224Y99878D01*
D02*
G37*
G36*
X209338Y127893D02*
X209153Y127936D01*
X208987Y127908D01*
X208840Y127811D01*
X208713Y127644D01*
X208606Y127407D01*
X208518Y127100D01*
X208449Y126723D01*
X208400Y126276D01*
X208361Y125173D01*
X206393Y126169D01*
X206383Y126723D01*
X206305Y127680D01*
X206237Y128083D01*
X206149Y128437D01*
X206042Y128740D01*
X205915Y128993D01*
X205769Y129195D01*
X205603Y129348D01*
X205418Y129451D01*
X209338Y127893D01*
D02*
G37*
G36*
X227273Y95172D02*
X227160Y95324D01*
X227018Y95449D01*
X226847Y95548D01*
X226647Y95620D01*
X226418Y95666D01*
X226161Y95685D01*
X225875Y95679D01*
X225560Y95645D01*
X225216Y95586D01*
X224844Y95500D01*
X223910Y97401D01*
X224238Y97495D01*
X224521Y97596D01*
X224760Y97704D01*
X224953Y97821D01*
X225101Y97944D01*
X225205Y98076D01*
X225263Y98214D01*
X225276Y98361D01*
X225245Y98514D01*
X225168Y98676D01*
X227273Y95172D01*
D02*
G37*
%LPC*%
G36*
X552946Y-125099D02*
X544929D01*
Y-125385D01*
Y-125672D01*
Y-125958D01*
Y-126244D01*
Y-126531D01*
X544643D01*
Y-126817D01*
Y-127103D01*
Y-127390D01*
Y-127676D01*
Y-127962D01*
Y-128249D01*
X544357D01*
Y-128535D01*
Y-128821D01*
Y-129108D01*
Y-129394D01*
Y-129680D01*
Y-129966D01*
X544070D01*
Y-130253D01*
Y-130539D01*
Y-130825D01*
Y-131112D01*
Y-131398D01*
Y-131684D01*
X543784D01*
Y-131971D01*
Y-132257D01*
Y-132543D01*
Y-132830D01*
Y-133116D01*
Y-133402D01*
Y-133689D01*
X543498D01*
Y-133975D01*
Y-134261D01*
Y-134547D01*
Y-134834D01*
Y-135120D01*
Y-135406D01*
X543211D01*
Y-135693D01*
Y-135979D01*
Y-136265D01*
X550369D01*
Y-135979D01*
X551514D01*
Y-135693D01*
X552087D01*
Y-135406D01*
X552373D01*
Y-135120D01*
X552660D01*
Y-134834D01*
X552946D01*
Y-134547D01*
X553232D01*
Y-134261D01*
Y-133975D01*
X553519D01*
Y-133689D01*
Y-133402D01*
X553805D01*
Y-133116D01*
Y-132830D01*
X554091D01*
Y-132543D01*
Y-132257D01*
Y-131971D01*
Y-131684D01*
X554378D01*
Y-131398D01*
Y-131112D01*
Y-130825D01*
Y-130539D01*
Y-130253D01*
X554664D01*
Y-129966D01*
Y-129680D01*
Y-129394D01*
Y-129108D01*
Y-128821D01*
Y-128535D01*
Y-128249D01*
Y-127962D01*
Y-127676D01*
Y-127390D01*
Y-127103D01*
X554378D01*
Y-126817D01*
Y-126531D01*
X554091D01*
Y-126244D01*
Y-125958D01*
X553805D01*
Y-125672D01*
X553519D01*
Y-125385D01*
X552946D01*
Y-125099D01*
D02*
G37*
%LPD*%
D10*
X91767Y314577D02*
G03*
X129364Y339217I-52907J121738D01*
G01*
D02*
G03*
X155040Y374098I-80825J86384D01*
G01*
X168839Y389843D02*
G03*
X155040Y374098I16314J-28217D01*
G01*
X176874Y391813D02*
G03*
X168839Y389843I175J-18087D01*
G01*
X185134Y389994D02*
G03*
X176874Y391813I-8303J-18042D01*
G01*
X193219Y384496D02*
G03*
X185134Y389994I-20655J-21680D01*
G01*
X200730Y375428D02*
G03*
X193219Y384496I-41154J-26442D01*
G01*
X207267Y362899D02*
G03*
X200730Y375428I-70678J-28908D01*
G01*
X212431Y347019D02*
G03*
X207267Y362899I-107692J-26241D01*
G01*
X215823Y327898D02*
G03*
X212431Y347019I-149969J-16736D01*
G01*
X217042Y305644D02*
G03*
X215823Y327898I-195765J435D01*
G01*
X212929Y267716D02*
G03*
X217042Y305644I-158365J36362D01*
G01*
X208213Y252572D02*
G03*
X212929Y267716I-107642J41824D01*
G01*
X202103Y239736D02*
G03*
X208213Y252572I-84333J48011D01*
G01*
X186839Y220272D02*
G03*
X202103Y239736I-56831J60289D01*
G01*
X152077Y201169D02*
G03*
X186839Y220272I-20455J78400D01*
G01*
X180884Y189077D02*
G03*
X152077Y201169I-59379J-101098D01*
G01*
X194964Y179934D02*
G03*
X180884Y189077I-92829J-127538D01*
G01*
X241222Y129890D02*
G03*
X194964Y179934I-147746J-90166D01*
G01*
X248576Y115549D02*
G03*
X241222Y129890I-114971J-49903D01*
G01*
X253569Y101091D02*
G03*
X248576Y115549I-95232J-24794D01*
G01*
X255861Y86823D02*
G03*
X253569Y101091I-75142J-4753D01*
G01*
X253092Y76988D02*
G03*
X255861Y86823I-8538J7711D01*
G01*
X249042Y75095D02*
G03*
X253092Y76988I-1529J8548D01*
G01*
X243263Y74809D02*
G03*
X249042Y75095I1826J21686D01*
G01*
X235789Y75826D02*
G03*
X243263Y74809I12104J61022D01*
G01*
X226655Y77837D02*
G03*
X235789Y75826I44565J180602D01*
G01*
X203546Y83622D02*
G03*
X189641Y86783I-115360J-475374D01*
G01*
X189641Y86783D02*
G03*
X174215Y89714I-77766J-367228D01*
G01*
X198975Y64420D02*
G03*
X174215Y89714I-96898J-70089D01*
G01*
X207963Y49418D02*
G03*
X198975Y64420I-93552J-45856D01*
G01*
X214115Y33202D02*
G03*
X207963Y49418I-89758J-24775D01*
G01*
X216997Y16041D02*
G03*
X214115Y33202I-84847J-5429D01*
G01*
X212089Y6707D02*
G03*
X216997Y16041I-2414J7227D01*
G01*
X205337Y6426D02*
G03*
X212089Y6707I2636J17964D01*
G01*
X195863Y8230D02*
G03*
X205337Y6426I18690J72374D01*
G01*
X183772Y11488D02*
G03*
X195863Y8230I100060J347283D01*
G01*
X169170Y15570D02*
G03*
X152165Y19845I-116799J-428674D01*
G01*
D02*
G03*
X132862Y23682I-73845J-320968D01*
G01*
Y23682D02*
G03*
X111368Y26452I-47220J-281612D01*
G01*
Y26452D02*
G03*
X87789Y27525I-23813J-263832D01*
G01*
X-0Y0D02*
G03*
X87789Y27525I224J153047D01*
G01*
X-87787D02*
G03*
X0Y0I87563J125515D01*
G01*
X-87787Y27525D02*
G03*
X-152164Y19845I1569J-286799D01*
G01*
X-152164D02*
G03*
X-169169Y15570I99793J-432953D01*
G01*
X-195862Y8230D02*
G03*
X-183771Y11488I-87974J350560D01*
G01*
X-205336Y6426D02*
G03*
X-195862Y8230I-9215J74176D01*
G01*
X-212088Y6707D02*
G03*
X-205336Y6426I4115J17681D01*
G01*
X-216009Y9701D02*
G03*
X-212088Y6707I5356J2948D01*
G01*
X-216995Y16041D02*
G03*
X-216009Y9701I11670J-1432D01*
G01*
X-207961Y49418D02*
G03*
X-216995Y16041I79463J-39419D01*
G01*
X-198973Y64420D02*
G03*
X-207961Y49418I84564J-60859D01*
G01*
X-181115Y84063D02*
G03*
X-198973Y64420I77546J-88436D01*
G01*
X-174212Y89714D02*
G03*
X-181115Y84063I75495J-99267D01*
G01*
X-174212Y89714D02*
G03*
X-203544Y83622I70545J-413344D01*
G01*
X-235787Y75826D02*
G03*
X-226653Y77837I-35431J182614D01*
G01*
X-243261Y74809D02*
G03*
X-235787Y75826I-4630J62038D01*
G01*
X-249040Y75095D02*
G03*
X-243261Y74809I3953J21400D01*
G01*
X-253089Y76988D02*
G03*
X-249040Y75095I5579J6654D01*
G01*
X-255374Y80796D02*
G03*
X-253089Y76988I7511J1918D01*
G01*
X-255858Y86823D02*
G03*
X-255374Y80796I18178J-1571D01*
G01*
X-248574Y115549D02*
G03*
X-255858Y86823I78445J-35178D01*
G01*
X-241220Y129890D02*
G03*
X-248574Y115549I107617J-64243D01*
G01*
X-231843Y143807D02*
G03*
X-241220Y129890I120747J-91477D01*
G01*
X-180883Y189077D02*
G03*
X-231843Y143807I88510J-150952D01*
G01*
X-166474Y196258D02*
G03*
X-180883Y189077I51569J-121522D01*
G01*
X-152075Y201169D02*
G03*
X-166474Y196258I26165J-100273D01*
G01*
X-208211Y252572D02*
G03*
X-152075Y201169I76834J27556D01*
G01*
X-212926Y267716D02*
G03*
X-208211Y252572I112359J26679D01*
G01*
X-215964Y285347D02*
G03*
X-212926Y267716I142638J15496D01*
G01*
X-217039Y305644D02*
G03*
X-215964Y285347I183825J-436D01*
G01*
X-212429Y347019D02*
G03*
X-217039Y305644I168121J-39679D01*
G01*
X-207265Y362899D02*
G03*
X-212429Y347019I102530J-42121D01*
G01*
X-200728Y375428D02*
G03*
X-207265Y362899I64142J-41437D01*
G01*
X-193217Y384496D02*
G03*
X-200728Y375428I33644J-35510D01*
G01*
X-185132Y389994D02*
G03*
X-193217Y384496I12570J-27177D01*
G01*
X-176873Y391813D02*
G03*
X-185132Y389994I43J-19860D01*
G01*
X-168838Y389843D02*
G03*
X-176873Y391813I-8210J-16115D01*
G01*
X-161427Y383975D02*
G03*
X-168838Y389843I-18894J-16246D01*
G01*
X-155040Y374098D02*
G03*
X-161427Y383975I-38825J-18105D01*
G01*
X-155040Y374098D02*
G03*
X-115626Y328016I108234J52676D01*
G01*
Y328016D02*
G03*
X-91767Y314577I78834J112061D01*
G01*
X-77011Y319032D02*
G03*
X-91767Y314577I42008J-165808D01*
G01*
X-68823Y320959D02*
G03*
X-77011Y319032I46364J-215321D01*
G01*
X-60148Y322670D02*
G03*
X-68823Y320959I44536J-248741D01*
G01*
X-51023Y324151D02*
G03*
X-60148Y322670I40892J-280732D01*
G01*
X-31577Y326377D02*
G03*
X-51023Y324151I27221J-323856D01*
G01*
X0Y327687D02*
G03*
X-31577Y326377I-266J-374771D01*
G01*
X41487Y325391D02*
G03*
X0Y327687I-40950J-363939D01*
G01*
X60149Y322670D02*
G03*
X41487Y325391I-52312J-293391D01*
G01*
X68824Y320959D02*
G03*
X60149Y322670I-53208J-247011D01*
G01*
X77012Y319032D02*
G03*
X68824Y320959I-54544J-213359D01*
G01*
X84672Y316901D02*
G03*
X77012Y319032I-54064J-179467D01*
G01*
X91767Y314577D02*
G03*
X84672Y316901I-51913J-146530D01*
G01*
X215896Y80538D02*
X226655Y77837D01*
X203546Y83622D02*
X215896Y80538D01*
X169170Y15570D02*
X183772Y11488D01*
X-183771Y11488D02*
X-169169Y15570D01*
X-215893Y80538D02*
X-203544Y83622D01*
X-226653Y77837D02*
X-215893Y80538D01*
D11*
X27559Y180118D02*
G03*
X30512Y183071I0J2953D01*
G01*
X22448Y180471D02*
G03*
X23300Y180118I852J852D01*
G01*
X22448Y180471D02*
G03*
X20923Y181102I-1525J-1525D01*
G01*
X-22638Y190118D02*
G03*
X-13622Y181102I9016J0D01*
G01*
X178535Y245480D02*
G03*
X171464Y248409I-7071J-7071D01*
G01*
X193944Y145489D02*
G03*
X190578Y144095I0J-4761D01*
G01*
X-113067Y238067D02*
G03*
X-105996Y235138I7071J7071D01*
G01*
X51205Y274583D02*
G03*
X58276Y271654I7071J7071D01*
G01*
X51181Y274606D02*
G03*
X46429Y276575I-4752J-4752D01*
G01*
X30512Y184055D02*
G03*
X28424Y189096I-7129J0D01*
G01*
X23622Y195290D02*
G03*
X24606Y192913I3360J0D01*
G01*
X-65945Y252174D02*
G03*
X-63016Y245103I10000J0D01*
G01*
Y271630D02*
G03*
X-65945Y264559I7071J-7071D01*
G01*
X228622Y83661D02*
G03*
X238622Y93661I0J10000D01*
G01*
X210654Y86590D02*
G03*
X217725Y83661I7071J7071D01*
G01*
X178173Y94464D02*
G03*
X185245Y91535I7071J7071D01*
G01*
X208638Y88607D02*
G03*
X201567Y91535I-7071J-7071D01*
G01*
X-6890Y187992D02*
G03*
X-4921Y186024I1969J0D01*
G01*
X-3961Y217387D02*
G03*
X-6890Y210316I7071J-7071D01*
G01*
X-19685Y189961D02*
G03*
X-12795Y183071I6890J0D01*
G01*
X168283Y104355D02*
G03*
X161212Y107283I-7071J-7071D01*
G01*
X-116619Y281088D02*
G03*
X-115157Y277559I4991J0D01*
G01*
X-29528Y259842D02*
G03*
X-34568Y257755I0J-7129D01*
G01*
X14969Y279528D02*
G03*
X7898Y276599I0J-10000D01*
G01*
X-13000Y259842D02*
G03*
X-5929Y262772I0J10000D01*
G01*
X-11071Y136811D02*
G03*
X-9646Y137402I0J2016D01*
G01*
X-21654Y241142D02*
G03*
X-19963Y237060I5773J-0D01*
G01*
X-11811Y224204D02*
G03*
X-15137Y232234I-11356J-0D01*
G01*
X-14764Y225189D02*
G03*
X-17693Y232260I-10000J-0D01*
G01*
X20669Y226713D02*
G03*
X17954Y233268I-9270J0D01*
G01*
X-131637Y307579D02*
G03*
X-130140Y311191I-3613J3613D01*
G01*
X17500Y216339D02*
G03*
X15748Y212109I4230J-4230D01*
G01*
X18413Y233727D02*
G03*
X20669Y239173I-5446J5446D01*
G01*
X9843Y236002D02*
G03*
X8858Y238378I-3360J0D01*
G01*
X14764Y237943D02*
G03*
X13780Y235567I2376J-2376D01*
G01*
X6914Y193843D02*
G03*
X9843Y200914I-7071J7071D01*
G01*
Y194882D02*
G03*
X11811Y199634I-4752J4752D01*
G01*
X9843Y194882D02*
G03*
X8856Y192500I2382J-2382D01*
G01*
X-0Y216330D02*
G03*
X-2929Y223401I-10000J0D01*
G01*
X32768Y241331D02*
G03*
X27559Y239173I0J-7367D01*
G01*
X4571Y194975D02*
G03*
X7500Y202046I-7071J7071D01*
G01*
X3713Y194117D02*
G03*
X2756Y191806I2311J-2311D01*
G01*
X5000Y132378D02*
G03*
X2756Y137795I-7662J0D01*
G01*
X96118Y305596D02*
G03*
X90721Y303360I0J-7633D01*
G01*
X-14764Y191352D02*
G03*
X-13780Y188976I3360J0D01*
G01*
X-11811Y196681D02*
G03*
X-9843Y191929I6721J0D01*
G01*
X11811Y191929D02*
G03*
X13780Y196682I-4752J4752D01*
G01*
X102869Y185517D02*
X107283Y181102D01*
X65467Y143194D02*
X69404D01*
X71850Y140748D01*
X102869Y99887D02*
X107790D01*
X109252Y98425D01*
X23300Y180118D02*
X27559D01*
X-22638Y190118D02*
Y211614D01*
X-13622Y181102D02*
X20923D01*
X178535Y245480D02*
X180315Y243701D01*
X163542Y248409D02*
X171464D01*
X193944Y145489D02*
X195767D01*
X-116619Y241619D02*
X-113067Y238067D01*
X-105996Y235138D02*
X-99213D01*
X58276Y271654D02*
X59055D01*
X51181Y274606D02*
X51205Y274583D01*
X26575Y276575D02*
X46429D01*
X30512Y183071D02*
Y184055D01*
X24606Y192913D02*
X28424Y189096D01*
X23622Y195290D02*
Y218504D01*
X-63016Y245103D02*
X-62008Y244095D01*
X-65945Y252174D02*
Y264559D01*
X-63016Y271630D02*
X-62008Y272638D01*
X238622Y93661D02*
Y104525D01*
X217725Y83661D02*
X228622D01*
X208638Y88607D02*
X210654Y86590D01*
X185245Y91535D02*
X201567D01*
X238620Y104525D02*
X238622D01*
X-4921Y186024D02*
X24606D01*
X-3961Y217387D02*
X-3440Y217909D01*
X-6890Y187992D02*
Y210316D01*
X-12795Y183071D02*
X27397D01*
X128937Y107283D02*
X161212D01*
X168283Y104355D02*
X178173Y94464D01*
X-19685Y189961D02*
Y231299D01*
X131397Y111713D02*
X175197D01*
X-116619Y281088D02*
Y305596D01*
X-29528Y259842D02*
X-13000D01*
X-60039Y232283D02*
X-34568Y257755D01*
X14969Y279528D02*
X64961D01*
X-5929Y262772D02*
X7898Y276599D01*
X-24606Y239173D02*
X-17693Y232260D01*
X-18701Y239173D02*
X-2929Y223401D01*
X-25591Y136811D02*
X-11071D01*
X-3937Y188976D02*
Y212598D01*
X9646Y150000D02*
X24165D01*
X-19963Y237060D02*
X-15137Y232234D01*
X-62008Y278543D02*
X-18701D01*
X17954Y233268D02*
X18413Y233727D01*
X20669Y191929D02*
Y226713D01*
X-62008Y284449D02*
X-3937D01*
X-133605Y305610D02*
X-131637Y307579D01*
X15748Y188976D02*
Y212109D01*
X9843Y200914D02*
Y236002D01*
X5000Y191929D02*
X6914Y193843D01*
X8856Y188976D02*
Y192500D01*
X13780Y196682D02*
Y235567D01*
X-60039Y281496D02*
X-6890D01*
X-62008Y266732D02*
X-9806D01*
X-62008Y272638D02*
X-15748D01*
X-0Y191929D02*
Y216330D01*
X-11811Y196681D02*
Y224204D01*
X-14764Y191352D02*
Y225189D01*
X-60039Y269685D02*
X-29528D01*
X-60039Y275590D02*
X-12795D01*
X20669Y191929D02*
X20669Y191929D01*
X-130140Y311191D02*
Y317565D01*
X32768Y241331D02*
X52165D01*
X27500Y198425D02*
Y216339D01*
X3713Y194117D02*
X4571Y194975D01*
X5000Y126378D02*
Y132378D01*
X2756Y188976D02*
Y191806D01*
X96118Y305596D02*
X99916D01*
X-3937Y188976D02*
X-3937Y188976D01*
X11811Y199634D02*
Y241142D01*
X7500Y202046D02*
Y216339D01*
X2500Y196063D02*
Y216339D01*
X88830Y301469D02*
X90721Y303360D01*
X130428Y143194D02*
X140270D01*
X29134Y267684D02*
X44882D01*
X29134D02*
Y267717D01*
D13*
X863787Y-202012D02*
Y-162642D01*
X706307Y-123272D02*
X981897D01*
X706307Y-162642D02*
X981897D01*
X509456Y-202012D02*
X981897D01*
X509456Y-83902D02*
X981897D01*
X509456Y-241382D02*
Y-83902D01*
X706307Y-241382D02*
Y-83902D01*
X-671646Y927909D02*
X981897D01*
Y-241382D02*
Y927909D01*
X-671646Y-241382D02*
Y927909D01*
Y-241382D02*
X981897D01*
X720085Y-227604D02*
X716149D01*
Y-230556D01*
X718117D01*
X716149D01*
Y-233508D01*
X722053Y-229572D02*
Y-233508D01*
Y-231540D01*
X723037Y-230556D01*
X724021Y-229572D01*
X725005D01*
X727956Y-233508D02*
X729924D01*
X728940D01*
Y-229572D01*
X727956D01*
X732876Y-228588D02*
X733860Y-227604D01*
X735828D01*
X736812Y-228588D01*
Y-229572D01*
X735828Y-230556D01*
X734844D01*
X735828D01*
X736812Y-231540D01*
Y-232524D01*
X735828Y-233508D01*
X733860D01*
X732876Y-232524D01*
X738780Y-227604D02*
Y-233508D01*
X741732D01*
X742716Y-232524D01*
Y-228588D01*
X741732Y-227604D01*
X738780D01*
X744683Y-234492D02*
X748619D01*
X754523Y-233508D02*
X750587D01*
X754523Y-229572D01*
Y-228588D01*
X753539Y-227604D01*
X751571D01*
X750587Y-228588D01*
X756491D02*
X757475Y-227604D01*
X759442D01*
X760426Y-228588D01*
Y-232524D01*
X759442Y-233508D01*
X757475D01*
X756491Y-232524D01*
Y-228588D01*
X766330Y-233508D02*
X762394D01*
X766330Y-229572D01*
Y-228588D01*
X765346Y-227604D01*
X763378D01*
X762394Y-228588D01*
X771250Y-233508D02*
Y-227604D01*
X768298Y-230556D01*
X772233D01*
X774201Y-234492D02*
X778137D01*
X780105Y-228588D02*
X781089Y-227604D01*
X783057D01*
X784041Y-228588D01*
Y-232524D01*
X783057Y-233508D01*
X781089D01*
X780105Y-232524D01*
Y-228588D01*
X786009Y-233508D02*
X787976D01*
X786993D01*
Y-227604D01*
X786009Y-228588D01*
X790928Y-233508D02*
Y-232524D01*
X791912D01*
Y-233508D01*
X790928D01*
X795848D02*
Y-227604D01*
X798800D01*
X799784Y-228588D01*
Y-230556D01*
X798800Y-231540D01*
X795848D01*
X805687Y-229572D02*
X802735D01*
X801752Y-230556D01*
Y-232524D01*
X802735Y-233508D01*
X805687D01*
X807655Y-227604D02*
Y-233508D01*
X810607D01*
X811591Y-232524D01*
Y-231540D01*
Y-230556D01*
X810607Y-229572D01*
X807655D01*
X813559Y-227604D02*
Y-233508D01*
X816510D01*
X817494Y-232524D01*
Y-228588D01*
X816510Y-227604D01*
X813559D01*
X820446Y-233508D02*
X822414D01*
X823398Y-232524D01*
Y-230556D01*
X822414Y-229572D01*
X820446D01*
X819462Y-230556D01*
Y-232524D01*
X820446Y-233508D01*
X829302Y-229572D02*
X826350D01*
X825366Y-230556D01*
Y-232524D01*
X826350Y-233508D01*
X829302D01*
D14*
X727960Y-140993D02*
X737144D01*
X732552D01*
Y-154768D01*
X744031D02*
X748623D01*
X750919Y-152472D01*
Y-147880D01*
X748623Y-145584D01*
X744031D01*
X741735Y-147880D01*
Y-152472D01*
X744031Y-154768D01*
X755511Y-159360D02*
Y-145584D01*
X762398D01*
X764694Y-147880D01*
Y-152472D01*
X762398Y-154768D01*
X755511D01*
X783061Y-140993D02*
Y-154768D01*
X792244D01*
X799132Y-145584D02*
X803723D01*
X806019Y-147880D01*
Y-154768D01*
X799132D01*
X796836Y-152472D01*
X799132Y-150176D01*
X806019D01*
X810611Y-145584D02*
Y-152472D01*
X812907Y-154768D01*
X819794D01*
Y-157064D01*
X817498Y-159360D01*
X815203D01*
X819794Y-154768D02*
Y-145584D01*
X831273Y-154768D02*
X826682D01*
X824386Y-152472D01*
Y-147880D01*
X826682Y-145584D01*
X831273D01*
X833569Y-147880D01*
Y-150176D01*
X824386D01*
X838161Y-145584D02*
Y-154768D01*
Y-150176D01*
X840457Y-147880D01*
X842753Y-145584D01*
X845049D01*
X531110Y-219734D02*
Y-235476D01*
X536358Y-230229D01*
X541605Y-235476D01*
Y-219734D01*
X546853Y-235476D02*
X552101D01*
X549477D01*
Y-224981D01*
X546853D01*
X559972Y-235476D02*
Y-224981D01*
X562596D01*
X565220Y-227605D01*
Y-235476D01*
Y-227605D01*
X567843Y-224981D01*
X570467Y-227605D01*
Y-235476D01*
X575715Y-219734D02*
Y-230229D01*
X580963Y-235476D01*
X586210Y-230229D01*
Y-219734D01*
X601953Y-222357D02*
X599329Y-219734D01*
X594082D01*
X591458Y-222357D01*
Y-232853D01*
X594082Y-235476D01*
X599329D01*
X601953Y-232853D01*
Y-227605D01*
X596705D01*
X885441Y-182987D02*
X888064Y-180364D01*
X893312D01*
X895936Y-182987D01*
Y-193483D01*
X893312Y-196106D01*
X888064D01*
X885441Y-193483D01*
Y-182987D01*
X901184Y-196106D02*
X906431D01*
X903807D01*
Y-180364D01*
X901184Y-182987D01*
X722055Y-196106D02*
X726647D01*
X724351D01*
Y-182331D01*
X722055Y-184627D01*
X742717Y-182331D02*
X738126Y-184627D01*
X733534Y-189219D01*
Y-193811D01*
X735830Y-196106D01*
X740422D01*
X742717Y-193811D01*
Y-191515D01*
X740422Y-189219D01*
X733534D01*
X747309Y-196106D02*
X756493Y-186923D01*
X761084Y-184627D02*
X763380Y-182331D01*
X767972D01*
X770268Y-184627D01*
Y-193811D01*
X767972Y-196106D01*
X763380D01*
X761084Y-193811D01*
Y-184627D01*
X781747Y-196106D02*
Y-182331D01*
X774859Y-189219D01*
X784043D01*
X788634Y-196106D02*
X797818Y-186923D01*
X811593Y-196106D02*
X802409D01*
X811593Y-186923D01*
Y-184627D01*
X809297Y-182331D01*
X804705D01*
X802409Y-184627D01*
X816185D02*
X818480Y-182331D01*
X823072D01*
X825368Y-184627D01*
Y-193811D01*
X823072Y-196106D01*
X818480D01*
X816185Y-193811D01*
Y-184627D01*
X839143Y-196106D02*
X829960D01*
X839143Y-186923D01*
Y-184627D01*
X836847Y-182331D01*
X832255D01*
X829960Y-184627D01*
X850622Y-196106D02*
Y-182331D01*
X843735Y-189219D01*
X852918D01*
X724545Y-104772D02*
X716149D01*
Y-111069D01*
X720347D01*
X716149D01*
Y-117366D01*
X728744Y-108970D02*
Y-117366D01*
Y-113168D01*
X730843Y-111069D01*
X732942Y-108970D01*
X735041D01*
X741338Y-117366D02*
X745536D01*
X743437D01*
Y-108970D01*
X741338D01*
X751833Y-106871D02*
X753932Y-104772D01*
X758131D01*
X760230Y-106871D01*
Y-108970D01*
X758131Y-111069D01*
X756031D01*
X758131D01*
X760230Y-113168D01*
Y-115267D01*
X758131Y-117366D01*
X753932D01*
X751833Y-115267D01*
X764428Y-104772D02*
Y-117366D01*
X770725D01*
X772824Y-115267D01*
Y-106871D01*
X770725Y-104772D01*
X764428D01*
X789616D02*
Y-117366D01*
X795914D01*
X798013Y-115267D01*
Y-113168D01*
X795914Y-111069D01*
X789616D01*
X795914D01*
X798013Y-108970D01*
Y-106871D01*
X795914Y-104772D01*
X789616D01*
X804310Y-108970D02*
X808508D01*
X810607Y-111069D01*
Y-117366D01*
X804310D01*
X802211Y-115267D01*
X804310Y-113168D01*
X810607D01*
X823201Y-104772D02*
Y-117366D01*
X816904D01*
X814805Y-115267D01*
Y-111069D01*
X816904Y-108970D01*
X823201D01*
X831598Y-121564D02*
X833697D01*
X835796Y-119465D01*
Y-108970D01*
X829498D01*
X827400Y-111069D01*
Y-115267D01*
X829498Y-117366D01*
X835796D01*
X846291D02*
X842093D01*
X839994Y-115267D01*
Y-111069D01*
X842093Y-108970D01*
X846291D01*
X848390Y-111069D01*
Y-113168D01*
X839994D01*
X873579Y-117366D02*
X865183D01*
X873579Y-108970D01*
Y-106871D01*
X871480Y-104772D01*
X867282D01*
X865183Y-106871D01*
X877777D02*
X879876Y-104772D01*
X884074D01*
X886173Y-106871D01*
Y-115267D01*
X884074Y-117366D01*
X879876D01*
X877777Y-115267D01*
Y-106871D01*
X898767Y-117366D02*
X890371D01*
X898767Y-108970D01*
Y-106871D01*
X896668Y-104772D01*
X892470D01*
X890371Y-106871D01*
X909263Y-117366D02*
Y-104772D01*
X902966Y-111069D01*
X911362D01*
D15*
X-24402Y264088D02*
G03*
X-39346Y257898I0J-21134D01*
G01*
X-10180Y264088D02*
G03*
X-5717Y265936I-0J6311D01*
G01*
X-220081Y122045D02*
G03*
X-217152Y129116I-7071J7071D01*
G01*
X-238714Y105213D02*
G03*
X-235640Y106486I0J4347D01*
G01*
X-238714Y105213D02*
G03*
X-240184Y104604I0J-2079D01*
G01*
X16938Y284449D02*
G03*
X9867Y281520I0J-10000D01*
G01*
X-212010Y132872D02*
G03*
X-214173Y127646I5230J-5226D01*
G01*
X-212008Y132874D02*
G03*
X-212010Y132872I5228J-5228D01*
G01*
X-215564Y123806D02*
G03*
X-214173Y127165I-3361J3359D01*
G01*
X-215565Y123805D02*
G03*
X-215564Y123806I-3360J3360D01*
G01*
X-224986Y114384D02*
G03*
X-227915Y107313I7071J-7071D01*
G01*
X-208742Y136140D02*
G03*
X-205813Y143211I-7071J7071D01*
G01*
X-70866Y225394D02*
Y262795D01*
X-24402Y264088D02*
X-10180D01*
X-5717Y265936D02*
X9867Y281520D01*
X-235640Y106486D02*
X-220081Y122045D01*
X-244047Y100741D02*
X-240184Y104604D01*
X-60039Y237205D02*
X-39346Y257898D01*
X222441Y123031D02*
X224411Y121061D01*
X228684D01*
X202756Y157480D02*
X205829Y153071D01*
X217718Y114573D02*
X217885D01*
X217439Y137664D02*
X217718Y137384D01*
Y114573D02*
Y137384D01*
X16938Y284449D02*
X60039D01*
X-217152Y129116D02*
Y137406D01*
X-214173Y127165D02*
Y127646D01*
X-212008Y132874D02*
X-208742Y136140D01*
X-215565Y123805D02*
X-215564Y123806D01*
X-224986Y114384D02*
X-215565Y123805D01*
X-227915Y98724D02*
Y107313D01*
X-205813Y143211D02*
Y153013D01*
X867724Y-174453D02*
Y-166581D01*
X871660D01*
X872972Y-167893D01*
Y-170517D01*
X871660Y-171829D01*
X867724D01*
X870348D02*
X872972Y-174453D01*
X879531D02*
X876908D01*
X875596Y-173141D01*
Y-170517D01*
X876908Y-169205D01*
X879531D01*
X880843Y-170517D01*
Y-171829D01*
X875596D01*
X883467Y-169205D02*
X886091Y-174453D01*
X888715Y-169205D01*
X513393Y-205951D02*
Y-213823D01*
X517329D01*
X518641Y-212511D01*
Y-207263D01*
X517329Y-205951D01*
X513393D01*
X525201Y-213823D02*
X522577D01*
X521265Y-212511D01*
Y-209887D01*
X522577Y-208575D01*
X525201D01*
X526512Y-209887D01*
Y-211199D01*
X521265D01*
X529136Y-213823D02*
X533072D01*
X534384Y-212511D01*
X533072Y-211199D01*
X530448D01*
X529136Y-209887D01*
X530448Y-208575D01*
X534384D01*
X539632Y-216447D02*
X540944D01*
X542255Y-215135D01*
Y-208575D01*
X538320D01*
X537008Y-209887D01*
Y-212511D01*
X538320Y-213823D01*
X542255D01*
X544879D02*
X547503D01*
X546191D01*
Y-208575D01*
X544879D01*
X551439Y-213823D02*
Y-208575D01*
X555375D01*
X556686Y-209887D01*
Y-213823D01*
X563246D02*
X560622D01*
X559310Y-212511D01*
Y-209887D01*
X560622Y-208575D01*
X563246D01*
X564558Y-209887D01*
Y-211199D01*
X559310D01*
X567182Y-208575D02*
Y-213823D01*
Y-211199D01*
X568494Y-209887D01*
X569806Y-208575D01*
X571118D01*
X710244Y-87841D02*
Y-95713D01*
X714180D01*
X715491Y-94401D01*
Y-89153D01*
X714180Y-87841D01*
X710244D01*
X719427Y-95713D02*
X722051D01*
X723363Y-94401D01*
Y-91777D01*
X722051Y-90465D01*
X719427D01*
X718115Y-91777D01*
Y-94401D01*
X719427Y-95713D01*
X731234Y-90465D02*
X727299D01*
X725987Y-91777D01*
Y-94401D01*
X727299Y-95713D01*
X731234D01*
X733858Y-90465D02*
Y-94401D01*
X735170Y-95713D01*
X739106D01*
Y-90465D01*
X741730Y-95713D02*
Y-90465D01*
X743042D01*
X744353Y-91777D01*
Y-95713D01*
Y-91777D01*
X745665Y-90465D01*
X746977Y-91777D01*
Y-95713D01*
X753537D02*
X750913D01*
X749601Y-94401D01*
Y-91777D01*
X750913Y-90465D01*
X753537D01*
X754849Y-91777D01*
Y-93089D01*
X749601D01*
X757473Y-95713D02*
Y-90465D01*
X761408D01*
X762720Y-91777D01*
Y-95713D01*
X766656Y-89153D02*
Y-90465D01*
X765344D01*
X767968D01*
X766656D01*
Y-94401D01*
X767968Y-95713D01*
X710244Y-127211D02*
Y-135083D01*
X715491D01*
X719427Y-129835D02*
X722051D01*
X723363Y-131147D01*
Y-135083D01*
X719427D01*
X718115Y-133771D01*
X719427Y-132459D01*
X723363D01*
X725987Y-129835D02*
Y-133771D01*
X727299Y-135083D01*
X731234D01*
Y-136395D01*
X729922Y-137707D01*
X728611D01*
X731234Y-135083D02*
Y-129835D01*
X737794Y-135083D02*
X735170D01*
X733858Y-133771D01*
Y-131147D01*
X735170Y-129835D01*
X737794D01*
X739106Y-131147D01*
Y-132459D01*
X733858D01*
X741730Y-129835D02*
Y-135083D01*
Y-132459D01*
X743042Y-131147D01*
X744353Y-129835D01*
X745665D01*
X757473Y-135083D02*
Y-127211D01*
X762720Y-135083D01*
Y-127211D01*
X766656Y-129835D02*
X769280D01*
X770592Y-131147D01*
Y-135083D01*
X766656D01*
X765344Y-133771D01*
X766656Y-132459D01*
X770592D01*
X773216Y-135083D02*
Y-129835D01*
X774528D01*
X775839Y-131147D01*
Y-135083D01*
Y-131147D01*
X777151Y-129835D01*
X778463Y-131147D01*
Y-135083D01*
X785023D02*
X782399D01*
X781087Y-133771D01*
Y-131147D01*
X782399Y-129835D01*
X785023D01*
X786335Y-131147D01*
Y-132459D01*
X781087D01*
X710244Y-166581D02*
Y-174453D01*
X714180D01*
X715491Y-173141D01*
Y-167893D01*
X714180Y-166581D01*
X710244D01*
X719427Y-169205D02*
X722051D01*
X723363Y-170517D01*
Y-174453D01*
X719427D01*
X718115Y-173141D01*
X719427Y-171829D01*
X723363D01*
X727299Y-167893D02*
Y-169205D01*
X725987D01*
X728611D01*
X727299D01*
Y-173141D01*
X728611Y-174453D01*
X736482D02*
X733858D01*
X732546Y-173141D01*
Y-170517D01*
X733858Y-169205D01*
X736482D01*
X737794Y-170517D01*
Y-171829D01*
X732546D01*
X710244Y-205951D02*
Y-213823D01*
X714180D01*
X715491Y-212511D01*
Y-207263D01*
X714180Y-205951D01*
X710244D01*
X719427Y-213823D02*
X722051D01*
X723363Y-212511D01*
Y-209887D01*
X722051Y-208575D01*
X719427D01*
X718115Y-209887D01*
Y-212511D01*
X719427Y-213823D01*
X731234Y-208575D02*
X727299D01*
X725987Y-209887D01*
Y-212511D01*
X727299Y-213823D01*
X731234D01*
X733858Y-208575D02*
Y-212511D01*
X735170Y-213823D01*
X739106D01*
Y-208575D01*
X741730Y-213823D02*
Y-208575D01*
X743042D01*
X744353Y-209887D01*
Y-213823D01*
Y-209887D01*
X745665Y-208575D01*
X746977Y-209887D01*
Y-213823D01*
X753537D02*
X750913D01*
X749601Y-212511D01*
Y-209887D01*
X750913Y-208575D01*
X753537D01*
X754849Y-209887D01*
Y-211199D01*
X749601D01*
X757473Y-213823D02*
Y-208575D01*
X761408D01*
X762720Y-209887D01*
Y-213823D01*
X766656Y-207263D02*
Y-208575D01*
X765344D01*
X767968D01*
X766656D01*
Y-212511D01*
X767968Y-213823D01*
D16*
X119572Y168814D02*
D03*
X102869Y185517D02*
D03*
X119572Y83184D02*
D03*
X102869Y99887D02*
D03*
X65467Y143194D02*
D03*
X82171Y126491D02*
D03*
X-99916Y224916D02*
D03*
X-116619Y241619D02*
D03*
X116619Y288892D02*
D03*
X99916Y305596D02*
D03*
X156974Y126491D02*
D03*
X140270Y143194D02*
D03*
X-99916Y288892D02*
D03*
X-116619Y305596D02*
D03*
D17*
X-228778Y121748D02*
D03*
X-217979Y115260D02*
D03*
X-227915Y98724D02*
D03*
X-238714Y105213D02*
D03*
D18*
X-205813Y153013D02*
D03*
X-195621Y145608D02*
D03*
X-206960Y130001D02*
D03*
X-217152Y137406D02*
D03*
D19*
X-9646Y137402D02*
D03*
Y150000D02*
D03*
X9646D02*
D03*
Y137402D02*
D03*
D20*
X195767Y145489D02*
D03*
X205829Y153071D02*
D03*
X217439Y137664D02*
D03*
X207377Y130082D02*
D03*
D21*
X217885Y114573D02*
D03*
X228684Y121061D02*
D03*
X238620Y104525D02*
D03*
X227821Y98037D02*
D03*
D22*
X-5000Y126378D02*
D03*
X0D02*
D03*
X5000D02*
D03*
D31*
X-20000Y21654D02*
D03*
X20000D02*
D03*
X-169151Y258014D02*
D03*
X-204637Y258441D02*
D03*
X-196382Y263802D02*
D03*
X-174940Y230783D02*
D03*
X-183194Y225423D02*
D03*
D43*
X207377Y99042D02*
G03*
X208465Y96417I3713J0D01*
G01*
X223910D02*
G03*
X227821Y98037I0J5531D01*
G01*
X15000Y121338D02*
G03*
X25000Y131338I0J10000D01*
G01*
X10678Y137829D02*
G03*
X9646Y137402I0J-1460D01*
G01*
X65448Y284946D02*
G03*
X58377Y287875I-7071J-7071D01*
G01*
X-137008Y241732D02*
G03*
X-139235Y247109I-7604J0D01*
G01*
X208465Y96417D02*
X223910D01*
X207377Y99042D02*
Y130082D01*
X-25591Y125984D02*
X-5000D01*
X10678Y137829D02*
X25000D01*
X-25657Y121338D02*
X15000D01*
X25000Y131338D02*
Y137829D01*
X-5000Y125984D02*
Y126378D01*
X-55392Y287875D02*
X58377D01*
X65448Y284946D02*
X85630Y264764D01*
X-147638Y255512D02*
X-139235Y247109D01*
X-188976Y277165D02*
Y287402D01*
D44*
X147638Y37402D02*
D03*
Y179134D02*
D03*
X-127953Y198819D02*
D03*
X-147638Y37402D02*
D03*
D45*
X25000Y16654D02*
D03*
Y26654D02*
D03*
X5000Y16654D02*
D03*
Y26654D02*
D03*
X-25000Y16654D02*
D03*
X-15000D02*
D03*
X-25000Y26654D02*
D03*
X-15000D02*
D03*
X-5000D02*
D03*
Y16654D02*
D03*
X15000Y26654D02*
D03*
Y16654D02*
D03*
D46*
X188939Y260054D02*
D03*
X177562Y240347D02*
D03*
D47*
X-163791Y249759D02*
D03*
X-158430Y241505D02*
D03*
X-174512Y266268D02*
D03*
X-179873Y274523D02*
D03*
D48*
X-185661Y247293D02*
D03*
D49*
X-156625Y119497D02*
D03*
X-109382Y166742D02*
D03*
X-188976Y328898D02*
D03*
X-198976D02*
D03*
X-188976Y318898D02*
D03*
X-198976D02*
D03*
X-188976Y308898D02*
D03*
D50*
X-133004Y177765D02*
D03*
X-140878D02*
D03*
X-125130D02*
D03*
X-167650Y150994D02*
D03*
Y135246D02*
D03*
Y143120D02*
D03*
D51*
X104204Y255387D02*
D03*
D52*
X209043Y157390D02*
D03*
X200405Y165445D02*
D03*
X238174Y119253D02*
D03*
X232269Y129482D02*
D03*
D53*
X-198976Y308898D02*
D03*
D54*
X107283Y181102D02*
D03*
X71850Y140748D02*
D03*
X109252Y98425D02*
D03*
X131890Y186024D02*
D03*
X106299Y152559D02*
D03*
X207677Y138779D02*
D03*
X202756Y354331D02*
D03*
Y321850D02*
D03*
X188976Y292323D02*
D03*
X118110Y246063D02*
D03*
X128937Y216535D02*
D03*
X91535Y196850D02*
D03*
X75787Y197835D02*
D03*
X-153543Y275590D02*
D03*
X-179134Y290354D02*
D03*
X-132874Y335630D02*
D03*
X-99410Y312992D02*
D03*
X-55118Y295276D02*
D03*
X24467Y295458D02*
D03*
X7402Y292499D02*
D03*
X-20669Y296260D02*
D03*
X-115157Y202756D02*
D03*
X-118110Y216535D02*
D03*
X-72835Y213583D02*
D03*
X-57087Y184055D02*
D03*
X-88583Y182087D02*
D03*
X-140748Y120079D02*
D03*
X-212598Y88583D02*
D03*
X-187992Y57087D02*
D03*
X-177165Y24606D02*
D03*
X-74803Y38386D02*
D03*
X80709Y51181D02*
D03*
X123031Y63976D02*
D03*
X51181Y93504D02*
D03*
X59055Y271654D02*
D03*
X26575Y276575D02*
D03*
X-22638Y211614D02*
D03*
X23622Y218504D02*
D03*
X-62008Y244095D02*
D03*
X-3440Y217909D02*
D03*
X-29528Y269685D02*
D03*
X-60039Y232283D02*
D03*
X-9806Y266732D02*
D03*
X64961Y279528D02*
D03*
X-3937Y212598D02*
D03*
X-19685Y231299D02*
D03*
X-55392Y287875D02*
D03*
X-18701Y278543D02*
D03*
X-15748Y272638D02*
D03*
X-6890Y281496D02*
D03*
X-12795Y275590D02*
D03*
X-3937Y284449D02*
D03*
X17954Y233268D02*
D03*
X-62008Y266732D02*
D03*
Y284449D02*
D03*
X-60039Y281496D02*
D03*
X-62008Y278543D02*
D03*
X-60039Y275590D02*
D03*
X-62008Y272638D02*
D03*
X-60039Y269685D02*
D03*
Y237205D02*
D03*
X60039Y284449D02*
D03*
X20669Y239173D02*
D03*
X20669Y191929D02*
D03*
X17500Y216339D02*
D03*
X27559Y239173D02*
D03*
X52165Y241331D02*
D03*
X14764Y237943D02*
D03*
X8858Y238378D02*
D03*
X11811Y241142D02*
D03*
X-24606Y239173D02*
D03*
X-21654Y241142D02*
D03*
X-18701Y239173D02*
D03*
X-9843Y191929D02*
D03*
X-0D02*
D03*
X5000Y191929D02*
D03*
X11811D02*
D03*
X2500Y196063D02*
D03*
X27500Y198425D02*
D03*
X7500Y216339D02*
D03*
X2500D02*
D03*
X27500D02*
D03*
X3150Y262165D02*
D03*
X8661Y262165D02*
D03*
X8661Y267677D02*
D03*
X3150D02*
D03*
X64370Y230068D02*
D03*
X56642Y275591D02*
D03*
X67668Y261213D02*
D03*
Y244677D02*
D03*
X44882Y267684D02*
D03*
X29134Y267717D02*
D03*
X190578Y144095D02*
D03*
X-99213Y235138D02*
D03*
X-70866Y262795D02*
D03*
Y225394D02*
D03*
X24606Y186024D02*
D03*
X27559Y183071D02*
D03*
X128937Y107283D02*
D03*
X131397Y111713D02*
D03*
X175197D02*
D03*
X197483Y44677D02*
D03*
X-25657Y121338D02*
D03*
X-25591Y125984D02*
D03*
X25000Y137829D02*
D03*
X163386Y52165D02*
D03*
X39370Y38386D02*
D03*
X85630Y264764D02*
D03*
X24165Y150000D02*
D03*
X-25591Y136811D02*
D03*
X-206960Y130001D02*
D03*
X-147638Y255512D02*
D03*
X-137008Y241732D02*
D03*
X-188976Y287402D02*
D03*
Y277165D02*
D03*
X167282Y264567D02*
D03*
X163542D02*
D03*
Y248409D02*
D03*
X180315Y243701D02*
D03*
X181890Y274410D02*
D03*
X153937Y236221D02*
D03*
X203543Y255118D02*
D03*
X188976Y229921D02*
D03*
X184646Y268110D02*
D03*
X168504Y240158D02*
D03*
X222441Y123031D02*
D03*
X208465Y96417D02*
D03*
X202756Y157480D02*
D03*
X171260Y122441D02*
D03*
X156496Y167323D02*
D03*
X160433D02*
D03*
X163386Y165354D02*
D03*
X153543D02*
D03*
X158465Y164370D02*
D03*
X161417Y162402D02*
D03*
X155512D02*
D03*
X158465Y160433D02*
D03*
X161417Y158465D02*
D03*
X155512D02*
D03*
X158465Y156496D02*
D03*
X161417Y154528D02*
D03*
X155512D02*
D03*
X158465Y152559D02*
D03*
X161417Y150591D02*
D03*
X155512D02*
D03*
X158465Y148622D02*
D03*
X160433Y145669D02*
D03*
X156496D02*
D03*
X154528Y142717D02*
D03*
X162402D02*
D03*
X158465D02*
D03*
X164370Y126969D02*
D03*
X162402Y129921D02*
D03*
X163386Y132874D02*
D03*
X159252D02*
D03*
X153543D02*
D03*
X219047Y101772D02*
D03*
X230315Y109252D02*
D03*
X-134006Y275750D02*
D03*
X-115157Y277559D02*
D03*
X15748Y188976D02*
D03*
X-130140Y317565D02*
D03*
X-133605Y305610D02*
D03*
X-13780Y188976D02*
D03*
X-3937Y188976D02*
D03*
X2756D02*
D03*
X8856Y188976D02*
D03*
X2756Y137795D02*
D03*
X-28740Y36220D02*
D03*
Y32283D02*
D03*
X-228778Y121748D02*
D03*
X29847Y295315D02*
D03*
X-30831Y295315D02*
D03*
X132823Y318898D02*
D03*
X131052Y289961D02*
D03*
X88830Y301469D02*
D03*
X88729Y286024D02*
D03*
X98279Y296653D02*
D03*
X106448Y293307D02*
D03*
X-80709Y222885D02*
D03*
X-88779Y222492D02*
D03*
X130428Y143194D02*
D03*
X194451Y336581D02*
D03*
Y285502D02*
D03*
X151290Y283679D02*
D03*
Y342340D02*
D03*
X148534Y323836D02*
D03*
X132823Y314961D02*
D03*
X-41019Y295315D02*
D03*
X64051Y296555D02*
D03*
X48622Y294685D02*
D03*
X80559Y289370D02*
D03*
X-117378Y320425D02*
D03*
X-142913Y329921D02*
D03*
X-244047Y100741D02*
D03*
X-233118Y89812D02*
D03*
M02*
